<?xml version="1.0" encoding="UTF-8"?>
<!-- Created with Inkscape (http://www.inkscape.org/) -->
<svg width="720" height="250" version="1.0" xmlns="http://www.w3.org/2000/svg" xmlns:cc="http://creativecommons.org/ns#" xmlns:dc="http://purl.org/dc/elements/1.1/" xmlns:rdf="http://www.w3.org/1999/02/22-rdf-syntax-ns#">
 <metadata>
  <rdf:RDF>
   <cc:Work rdf:about="">
    <dc:format>image/svg+xml</dc:format>
    <dc:type rdf:resource="http://purl.org/dc/dcmitype/StillImage"/>
   </cc:Work>
  </rdf:RDF>
 </metadata>
 <g transform="translate(184.18 416.44)">
  <g transform="matrix(.66271 0 0 .66341 -142.05 -558.61)" fill-rule="evenodd" stroke="#000" stroke-width="1.5082">
   <g transform="matrix(1.3396 0 0 1.3396 21.561 -201.11)">
    <g>
     <path d="m-59.308 361.94h-4.0881v-4.0518h19.862v7.9593h-3.9434v-3.9015h-7.9592v3.9738h4.052v3.9795h-4.052v3.8713h7.9592v-3.9433h3.9434v7.9952h-19.862v-4.0157h4.0881z" stroke-width=".30555px"/>
     <path d="m-9.251 377.79 6.2988-0.0732c-1.3869-6.1156-6.7732-10.679-13.2-10.679-7.4778 0-13.547 6.1782-13.547 13.791 0 7.6124 6.0689 13.791 13.547 13.791 6.3484 0 11.681-4.4529 13.147-10.456l-6.3311-0.10455c-1.1971 2.6116-3.8002 4.4229-6.8164 4.4229-4.1497 0-7.5176-3.4285-7.5176-7.6529s3.3679-7.6529 7.5176-7.6529c3.0896 0 5.7457 1.9005 6.9013 4.6149z" stroke-width=".076775"/>
     <path d="m19.404 367.76c-7.2153 0-13.078 5.8629-13.078 13.078s5.8628 13.054 13.078 13.054 13.054-5.8386 13.054-13.054-5.8388-13.078-13.054-13.078zm0 4.0721c4.9608 0 8.9822 4.0454 8.9822 9.0062s-4.0214 8.9822-8.9822 8.9822-9.0062-4.0213-9.0062-8.9822 4.0453-9.0062 9.0062-9.0062z" stroke-width="2.3119"/>
     <path d="m61.212 358.82h-14.22v-14.094h69.084v27.684h-13.716v-13.57h-27.684v13.822h14.094v13.842h-14.094v13.465h27.684v-13.716h13.716v27.81h-69.084v-13.968h14.22z" stroke-width="1.0628px"/>
    </g>
    <path d="m215.98 419.76v27.156h-81.004v-26.913h27.398v-79.527h-27.398v-27.156h133.11v53.341h-26.428v-26.147h-53.341v26.632h27.156v26.671h-27.156v25.943z" stroke-width="2.0477px"/>
   </g>
   <g transform="matrix(1.3396 0 0 1.3396 8.704 -202.54)">
    <path d="m441.55 367.76c-7.2153 0-13.078 5.8629-13.078 13.078s5.8628 13.054 13.078 13.054 13.054-5.8386 13.054-13.054-5.8388-13.078-13.054-13.078zm0 4.0721c4.9608 0 8.9822 4.0454 8.9822 9.0062s-4.0214 8.9822-8.9822 8.9822-9.0062-4.0213-9.0062-8.9822 4.0453-9.0062 9.0062-9.0062z" stroke-width="2.3119"/>
    <path d="m522.14 400.9h-26.345v-39.427h13.52l3e-3 -16.003-42.157-0.0264v15.915h13.17v39.665h-13.17v13.766h68.739v-26.599h-13.76z" stroke-width="1.0474px"/>
    <path d="m633.84 419.76v27.156h-81.004v-26.913h27.398v-79.527h-27.398v-27.156h133.11v53.341h-26.428v-26.147h-53.341v26.632h27.156v26.671h-27.156v25.943z" stroke-width="2.0477px"/>
    <path d="m714.37 358.33c1.9917-0.0475 6.9244 3.7228 6.8163 9.7525-0.10889 6.0791-4.2902 10.18-6.8163 10.18l-11.203-2e-3v-4.0157h4.0878v-11.865h-4.0878v-4.0516zm-1.754 15.881c1.8256-0.0103 4.8713-2.3414 4.8262-6.2778-0.0451-3.9352-3.2-5.5444-4.8262-5.5455l-1.4906-2e-3v11.824z" stroke-width=".30553px"/>
    <path d="m750.75 378.5 6.2988-0.0732c-1.3869-6.1156-6.7732-10.679-13.2-10.679-7.4778 0-13.547 6.1782-13.547 13.791 0 7.6124 6.0689 13.791 13.547 13.791 6.3484 0 11.681-4.4529 13.147-10.456l-6.3311-0.10455c-1.1971 2.6116-3.8002 4.4229-6.8164 4.4229-4.1497 0-7.5176-3.4285-7.5176-7.6529s3.3679-7.6529 7.5176-7.6529c3.0896 0 5.7457 1.9005 6.9012 4.6149z" stroke-width=".076775"/>
   </g>
   <g transform="matrix(1.3396 0 0 1.3396 262.26 -230.76)">
    <path d="m-34.333 569.15h-5.6046v-5.5549h27.23v10.912h-5.4062v-5.3485h-10.912v5.4478h5.555v5.4556h-5.555v5.3072h10.912v-5.4062h5.4062v10.961h-27.23v-5.505h5.6046z" stroke-width=".41889px"/>
    <path d="m46.154 584.31-14.656 0.0521v13.465h14.357v14.094h-42.041v-13.968h14.22v-41.274h-14.22v-14.094h44.32c8.8754 2.1384 18.098 5.9482 18.264 20.189 0.15023 12.959-8.9746 19.493-20.243 21.537zm1.2349-13.79c3.3879-0.0827 5.59-1.7418 5.5679-7.2717-0.0205-5.1841-2.5725-6.4533-4.9273-6.5505h-16.532v13.822z" stroke-width="1.0628px"/>
    <path d="m93.155 596.71v3.4977h-10.434v-3.4667h3.5292v-10.244h-3.5292v-3.4977h17.146v6.871h-3.4043v-3.3684h-6.871v3.4307h3.498v3.4357h-3.498v3.342z" stroke-width=".26378px"/>
    <path d="m126.34 593-3.6376 0.013v3.342h3.5633v3.4977h-10.434v-3.4667h3.5292v-10.244h-3.5292v-3.4977h11c2.2028 0.5306 4.492 1.4761 4.533 5.0108 0.0373 3.2162-2.2275 4.8381-5.0242 5.3452zm0.30651-3.4224c0.84086-0.021 1.3874-0.4324 1.3819-1.8049-5e-3 -1.2869-0.63848-1.6016-1.2229-1.6261h-4.1031v3.431z" stroke-width=".26378px"/>
    <path d="m205.72 598.04h-26.345v-39.427h13.52l3e-3 -16.003-42.157-0.0264v15.915h13.17v39.665h-13.17v13.766h68.739v-26.599h-13.76z" stroke-width="1.0474px"/>
    <path d="m233.96 565.23h26.581v10.713h-5.2894v-5.0213h-5.1555v15.801h4.8207v5.423h-15.533v-5.423h5.2224v-15.801h-5.4902v5.0213h-5.1554z" stroke-width="1.131px"/>
    <g>
     <path d="m294.32 575.65 6.2988-0.0732c-1.3869-6.1156-6.7732-10.679-13.2-10.679-7.4778 0-13.547 6.1782-13.547 13.791 0 7.6124 6.0689 13.791 13.547 13.791 6.3484 0 11.681-4.4529 13.147-10.456l-6.3311-0.10455c-1.1971 2.6116-3.8002 4.4229-6.8164 4.4229-4.1497 0-7.5176-3.4285-7.5176-7.6529s3.3679-7.6529 7.5176-7.6529c3.0896 0 5.7457 1.9005 6.9012 4.6149z" stroke-width=".076775"/>
     <path d="m370.03 575.65 6.2988-0.0732c-1.3869-6.1156-6.7732-10.679-13.2-10.679-7.4778 0-13.547 6.1782-13.547 13.791 0 7.6124 6.0689 13.791 13.547 13.791 6.3484 0 11.681-4.4529 13.147-10.456l-6.3311-0.10455c-1.1971 2.6116-3.8002 4.4229-6.8164 4.4229-4.1497 0-7.5176-3.4285-7.5176-7.6529s3.3679-7.6529 7.5176-7.6529c3.0896 0 5.7457 1.9005 6.9012 4.6149z" stroke-width=".076775"/>
     <path d="m318.55 558.36h-4.0881v-4.0518h19.862v7.9593h-3.9434v-3.9015h-7.9592v3.9738h4.052v3.9795h-4.052v3.8713h7.9592v-3.9433h3.9434v7.9952h-19.862v-4.0157h4.0881z" stroke-width=".30555px"/>
    </g>
   </g>
  </g>
 </g>
</svg>
