<?xml version="1.0" encoding="UTF-8"?>
<svg width="1889.8" height="1889.8" version="1.1" viewBox="0 0 500 500" xmlns="http://www.w3.org/2000/svg" xmlns:cc="http://creativecommons.org/ns#" xmlns:dc="http://purl.org/dc/elements/1.1/" xmlns:rdf="http://www.w3.org/1999/02/22-rdf-syntax-ns#">
 <metadata>
  <rdf:RDF>
   <cc:Work rdf:about="">
    <dc:format>image/svg+xml</dc:format>
    <dc:type rdf:resource="http://purl.org/dc/dcmitype/StillImage"/>
   </cc:Work>
  </rdf:RDF>
 </metadata>
 <g transform="matrix(.15178 0 0 .15178 3.608 42.842)">
  <path d="m468 348.98c0 85.611-58.768 155.01-131.26 155.01s-131.26-69.402-131.26-155.01 58.768-138.52 131.26-138.52 131.26 52.913 131.26 138.52z" fill="#c991ff"/>
  <path d="m408 230.35c22.738 23.854 36.721 57.833 36.721 99.592 0 30.401-7.411 58.758-20.215 82.689-8.03 15.008-22.55 25.402-39.248 28.702-0.27 0.053-0.528 0.106-0.774 0.158-11.227 2.376-20.301-0.303-29.65 6.352-10.106 7.193-0.184 33.749-46.146 37.008l-0.024 2e-3c-20.878-0.886-40.513-7.529-57.801-18.627 23.018 23.535 53.039 37.775 85.876 37.775 72.494 0 131.26-69.402 131.26-155.01-1e-3 -54.586-23.893-95.878-60.001-118.64z" fill="#d3b3ff"/>
  <path d="m205.47 348.98c0 52.818 22.369 99.465 56.529 127.45 71.03-19.922 123.86-95.326 123.86-185.3 0-28.665-5.363-54.347-14.968-76.542-10.893-2.725-22.346-4.131-34.164-4.131-72.494-1e-3 -131.26 52.912-131.26 138.52z" fill="#b173ff"/>
  <path d="m68.882 24.317c23.691 109.36 135.36 17.132 135.36 17.132-49.053-63.459-135.36-17.132-135.36-17.132z" fill="#a8ffa9"/>
  <path d="m69.193 24.153c11.061 11.464 27.603 18.744 46.088 18.744 23.352 0 43.603-11.619 53.619-28.612-44.58-17.786-95.287 7.578-99.707 9.868z" fill="#c9ffd2"/>
  <path d="m302.08 28.997c-17.724 81.814-101.26 12.817-101.26 12.817 36.698-47.475 101.26-12.817 101.26-12.817z" fill="#69da61"/>
  <path d="m231.34 60.859c19.304 9.007 43.421 14.192 58.775-4.429-5.567-7.68-16.076-12.859-28.123-12.859-14.24 0-26.332 7.237-30.652 17.288z" fill="#5ab161"/>
  <path d="m366.54 271.81c0 105.18-72.204 190.45-161.27 190.45s-161.27-85.269-161.27-190.45 72.204-170.19 161.27-170.19 161.27 65.01 161.27 170.19z" fill="#c991ff"/>
  <path d="m253.75 453.5c65.375-24.307 112.78-96.462 112.78-181.69 0-93.161-56.641-154.81-131.47-167.68-2.576 6.462 3.743 14.05 10.522 19.144 27.229 20.465 53.468 44.478 67.779 76.052 11.855 26.155 14.113 57.787 0.717 83.188-8.714 16.524-24.034 31.723-22.172 50.311 0.863 8.614 5.45 16.367 7.808 24.698 6.474 22.88-4.542 47.229-19.225 65.932-8.267 10.531-17.771 20.098-26.741 30.051z" fill="#d3b3ff"/>
  <path d="m93.22 271.81c0-95.301 59.273-157.62 136.66-168.49-8.025-1.127-16.244-1.701-24.613-1.701-89.068 0-161.27 65.01-161.27 170.19s72.204 190.45 161.27 190.45c8.368 0 16.588-0.753 24.613-2.204-77.386-13.995-136.66-92.947-136.66-188.25z" fill="#b173ff"/>
  <path d="m298.56 263.92c-2.857 4.065-7.958 7.995-13.497 7.88-6.161-0.128-9.521-5.108-10.338-9.836-1.149-6.645 2.299-41.583 19.76-39.801 7.066 0.721 7.836 13.928 8.523 18.451 1.158 7.621 0.779 15.861-4.448 23.306z" fill="#d3b3ff"/>
  <path d="m408.21 417.94c2.558-1.916 5.172-4.432 5.222-7.628 0.057-3.61-3.484-6.535-7.084-6.813s-7.067 1.493-9.892 3.742c-3.923 3.124-11.942 11.486-7.515 17.032 4.415 5.531 15.262-3.331 19.269-6.333z" fill="#d3b3ff"/>
  <g fill="#231f20">
   <path d="m140.34 354.17c-1.712-4.115-6.42-6.011-10.45-4.33-4.789 1.997-6.323 7.776-3.59 11.83 2.444 3.713 7.488 4.638 11.09 2.21 3.116-2.054 4.434-6.152 2.95-9.71z"/>
   <path d="m442.44 249.88c-19.99-23.744-47.052-39.216-78.502-44.963-22.618-66-80.397-108.38-151.34-111.14 2.762-10.536 2.927-22.555 2.26-32.615 45.689 27.009 83.892 20.977 95.036-30.46 0.755-3.488-0.891-7.055-4.035-8.743-0.712-0.382-17.683-9.39-39.609-12.277-25.452-3.351-47.12 2.866-63.39 18.034-21.483-21.977-50.876-31.144-85.743-26.552-28.826 3.797-51.089 15.613-52.022 16.114-3.145 1.688-4.791 5.255-4.035 8.743 16.058 74.124 74.53 73.548 137.25 29.845 1.256 11.896 1.59 27.628-2.503 38.002-88.491 4.461-159.82 71.387-159.82 177.95 0 52.763 17.448 102.42 49.13 139.84 41.923 49.509 100.32 67.669 154.76 54.503 26.087 29.604 60.288 45.848 96.848 45.848 122.86-1e-3 180.91-172.81 105.71-262.12zm-149.74-216.41c-9.457 32.36-32.269 33.516-62.354 17.996-7.164-3.695-13.425-7.773-17.817-10.863 21.139-20.926 52.754-18.726 80.171-7.133zm-185.24 34.107c-13.789-4.787-23.621-17.833-29.277-38.822 39.162-17.319 84.947-20.248 114.51 11.442-22.277 16.165-59.237 36.404-85.229 27.38zm229.27 428.43c-29.619 0-57.592-12.363-79.867-35.06 56.635-21.17 96.779-75.069 111.24-134.74 1.041-4.294-1.597-8.619-5.891-9.659-4.296-1.04-8.619 1.597-9.659 5.891-14.061 58.022-54.352 110.8-112.04 126.98-0.129 0.036-0.249 0.089-0.375 0.131-95.985 26.504-188.14-60.251-188.14-177.73 0-89.215 53.784-147.86 125.59-159.91-41.369 45.813-68.002 119.33-56.83 213.36 0.483 4.067 3.938 7.057 7.934 7.057 4.828 0 8.517-4.21 7.955-8.945-9.333-78.546 9.672-132.88 27.258-164.63 15.72-28.38 33.14-44.304 38.882-49.103 88.586-1.27 155.75 63.241 155.75 162.17 0 4.418 3.582 8 8 8s8-3.582 8-8c0-16.546-1.741-33.294-5.57-49.461 24.378 6.062 45.37 18.99 61.235 37.833 66.273 78.718 16.305 235.82-93.47 235.82z"/>
  </g>
 </g>
 <g id="036---Final-Destination" transform="matrix(1.2952 0 0 1.2952 20.556 381.18)">
  <path id="Shape" d="m59.63 27.65c-1.1727 0.88001-2.4133 1.6658-3.71 2.35-1.3286 0.70898-2.7053 1.3238-4.12 1.84-0.07844 0.03115-0.15856 0.05785-0.24 0.08-0.36 0.14-0.72 0.26-1.09 0.38-0.92 0.31-1.86 0.58-2.81 0.83-0.32 0.09-0.64 0.17-0.97 0.25-0.15 0.04-0.3 0.08-0.45 0.11-0.4 0.1-0.8 0.19-1.21 0.28-0.07218 0.0214-0.14566 0.0381-0.22 0.05-0.4 0.09-0.8 0.17-1.2 0.25-0.34 0.07-0.67 0.14-1 0.2-0.47 0.09-0.95 0.18-1.42 0.27-0.31 0.06-0.63 0.12-0.94 0.17-0.09 0.02-0.18 0.03-0.26 0.05-0.09 0.02-0.17 0.03-0.26 0.05-0.02 0-0.05 0.01-0.07 0.01-1.19 0.21-2.37 0.41-3.56 0.62h-0.02c-0.25 0.05-0.49 0.09-0.73 0.13-0.13 0.03-0.27 0.05-0.4 0.08l-0.33 0.06c-0.49 0.09-0.98 0.18-1.46 0.27h-0.02c-0.19 0.04-0.39 0.08-0.58 0.12-0.03904 0.01151-0.07934 0.01822-0.12 0.02-0.43 0.09-0.85 0.18-1.27 0.27-0.3 0.06-0.6 0.13-0.89 0.2-0.41 0.09-0.82 0.19-1.22 0.29-0.07105 0.01192-0.14121 0.02862-0.21 0.05-0.48 0.12-0.95 0.24-1.42 0.37-1.18 0.33-2.34 0.7-3.48 1.12-2.5121 0.90725-4.8955 2.1376-7.09 3.66-0.44 0.31-0.87 0.63-1.3 0.97-0.02-0.06-0.05-0.12-0.07-0.18-1.12-2.88-3.14-5.3-4.22-8.2-1.1-2.96-2.1967-5.92-3.29-8.88-1.1-2.96-1.19-6.42-2.29-9.38 0.43-0.34 0.86-0.66 1.3-0.97 2.1926-1.5231 4.5765-2.7504 7.09-3.65 0.56-0.21 1.11-0.4 1.68-0.58 0.55-0.18 1.1-0.34 1.65-0.5 0.01535-0.0081 0.03272-0.01156 0.05-0.01 0.57-0.17 1.15-0.32 1.73-0.46 0.1-0.03 0.21-0.05 0.32-0.08 0.47-0.11 0.94-0.22 1.42-0.33 0.23-0.05 0.47-0.1 0.71-0.15 0.35-0.07 0.69-0.14 1.04-0.21 0.13-0.03 0.26-0.06 0.39-0.08 0.03-0.01 0.07-0.01 0.1-0.02 0.03265-0.00827 0.06635-0.011639 0.1-0.01 0.13-0.03 0.27-0.06 0.4-0.08 0.02178-0.011227 0.04557-0.018025 0.07-0.02 1.69-0.32 3.4-0.61 5.1-0.91 0.86-0.15 1.73-0.31 2.59-0.47 0.43-0.07 0.87-0.16 1.3-0.24 0.62-0.12 1.24-0.24 1.85-0.38 0.52-0.11 1.04-0.22 1.55-0.35 0.34-0.08 0.67-0.16 1-0.24 0.48-0.12 0.95-0.25 1.42-0.38 0.55-0.15 1.1-0.32 1.64-0.49 0.48-0.15 0.96-0.32 1.43-0.49 1.5287-0.54903 3.0159-1.2074 4.45-1.97 0.19861-0.096817 0.39219-0.20362 0.58-0.32 0.91544-0.50767 1.8003-1.0686 2.65-1.68 0.24084-0.17617 0.55001-0.23005 0.83625-0.14575s0.51685 0.29717 0.62375 0.57575c0.95 2.56 1.9 5.13 2.84 7.69 1.1 2.96 2.1967 5.9167 3.29 8.87 1.02 2.74 2.03 5.48 3.05 8.22 0.147 0.39506 0.02166 0.83983-0.31 1.1z" fill="#cfd8dc"/>
  <path d="m56.63 29.49c-0.23 0.18-0.47 0.35-0.71 0.51-1.3286 0.70898-2.7053 1.3238-4.12 1.84-0.07844 0.03115-0.15856 0.05785-0.24 0.08-0.36 0.14-0.72 0.26-1.09 0.38-0.92 0.31-1.86 0.58-2.81 0.83-0.32 0.09-0.64 0.17-0.97 0.25-0.15 0.04-0.3 0.08-0.45 0.11-0.4 0.1-0.8 0.19-1.21 0.28-0.07218 0.0214-0.14566 0.0381-0.22 0.05-0.4 0.09-0.8 0.17-1.2 0.25-0.34 0.07-0.67 0.14-1 0.2-0.47 0.09-0.95 0.18-1.42 0.27-0.31 0.06-0.63 0.12-0.94 0.17-0.09 0.02-0.18 0.03-0.26 0.05-0.09 0.02-0.17 0.03-0.26 0.05-0.02 0-0.05 0.01-0.07 0.01-1.19 0.21-2.37 0.41-3.56 0.62h-0.02c-0.25 0.05-0.49 0.09-0.73 0.13-0.13 0.03-0.27 0.05-0.4 0.08l-0.33 0.06c-0.49 0.09-0.98 0.18-1.46 0.27h-0.02c-0.19 0.04-0.39 0.08-0.58 0.12-0.03904 0.01151-0.07934 0.01822-0.12 0.02-0.43 0.09-0.85 0.18-1.27 0.27-0.3 0.06-0.6 0.13-0.89 0.2-0.41 0.09-0.82 0.19-1.22 0.29-0.07105 0.01192-0.14121 0.02862-0.21 0.05-0.48 0.12-0.95 0.24-1.42 0.37-1.18 0.33-2.34 0.7-3.48 1.12-2.5121 0.90725-4.8955 2.1376-7.09 3.66-0.46 0.25-0.92 0.51-1.37 0.79-1.12-2.88-3.14-5.3-4.22-8.2-1.1-2.96-2.1967-5.92-3.29-8.88-1.1-2.96-1.19-6.42-2.29-9.38 0.43-0.34 0.86-0.66 1.3-0.97 1.3209-0.69504 2.6873-1.2998 4.09-1.81 0.56-0.21 1.11-0.4 1.68-0.58 0.55-0.18 1.1-0.34 1.65-0.5 0.01535-0.0081 0.03272-0.01156 0.05-0.01 0.57-0.17 1.15-0.32 1.73-0.46 0.1-0.03 0.21-0.05 0.32-0.08 0.47-0.11 0.94-0.22 1.42-0.33 0.23-0.05 0.47-0.1 0.71-0.15 0.35-0.07 0.69-0.14 1.04-0.21 0.13-0.03 0.26-0.06 0.39-0.08 0.03-0.01 0.07-0.01 0.1-0.02 0.03265-0.0083 0.06635-0.01164 0.1-0.01 0.13-0.03 0.27-0.06 0.4-0.08 0.02178-0.01123 0.04557-0.01802 0.07-0.02 1.69-0.32 3.4-0.61 5.1-0.91 0.86-0.15 1.73-0.31 2.59-0.47 0.43-0.07 0.87-0.16 1.3-0.24 0.62-0.12 1.24-0.24 1.85-0.38 0.52-0.11 1.04-0.22 1.55-0.35 0.34-0.08 0.67-0.16 1-0.24 0.48-0.12 0.95-0.25 1.42-0.38 0.55-0.15 1.1-0.32 1.64-0.49 0.48-0.15 0.96-0.32 1.43-0.49 2.6439-0.92803 5.15-2.2097 7.45-3.81 0.08-0.05 0.15-0.11 0.23-0.16 0.10525-0.075414 0.2241-0.12975 0.35-0.16 0.46529-0.10711 0.93849 0.14441 1.11 0.59 0.95 2.56 1.9 5.13 2.84 7.69 1.1 2.96 2.1967 5.9167 3.29 8.87 1.02 2.74 2.03 5.48 3.05 8.22 0.147 0.39506 0.02166 0.83983-0.31 1.1z" fill="#f5f5f5"/>
  <g fill="#607d8b">
   <path d="m26.56 18.24c-3.1257 0.55268-6.1997 1.3655-9.19 2.43-1.1-2.96-2.1967-5.92-3.29-8.88 0.56-0.21 1.11-0.4 1.68-0.58 0.55-0.18 1.1-0.34 1.65-0.5 0.01535-0.0081 0.03272-0.01156 0.05-0.01 0.57-0.17 1.15-0.32 1.73-0.46 0.1-0.03 0.21-0.05 0.32-0.08 0.47-0.11 0.94-0.22 1.42-0.33 0.23-0.05 0.47-0.1 0.71-0.15 0.35-0.07 0.69-0.14 1.04-0.21 0.13-0.03 0.26-0.06 0.39-0.08 0.03-0.01 0.07-0.01 0.1-0.02 0.03265-0.00827 0.06635-0.011639 0.1-0.01 1.1 2.96 2.1967 5.92 3.29 8.88z"/>
   <path d="m33.14 35.98c-0.19 0.04-0.39 0.08-0.58 0.12-0.03904 0.01151-0.07934 0.01822-0.12 0.02-0.43 0.09-0.85 0.18-1.27 0.27-0.3 0.06-0.6 0.13-0.89 0.2-0.41 0.09-0.82 0.19-1.22 0.29-0.07105 0.01192-0.14121 0.02862-0.21 0.05-0.48 0.12-0.95 0.24-1.42 0.37-1.18 0.33-2.34 0.7-3.48 1.12-1.1-2.95-2.1967-5.9067-3.29-8.87 2.9919-1.0619 6.0654-1.878 9.19-2.44 1.1 2.96 2.1967 5.9167 3.29 8.87z"/>
   <path d="m45.22 14.08c-2.9949 1.0632-6.0719 1.8792-9.2 2.44-1.09-2.96-2.1867-5.92-3.29-8.88 0.62-0.12 1.24-0.24 1.85-0.38 0.52-0.11 1.04-0.22 1.55-0.35 0.34-0.08 0.67-0.16 1-0.24 0.48-0.12 0.95-0.25 1.42-0.38 0.55-0.15 1.1-0.32 1.64-0.49 0.48-0.15 0.96-0.32 1.43-0.49 0.10538-0.030618 0.20889-0.067347 0.31-0.11 1.1 2.96 2.1967 5.92 3.29 8.88z"/>
   <path d="m51.8 31.84c-0.07844 0.03115-0.15856 0.05785-0.24 0.08-0.36 0.14-0.72 0.26-1.09 0.38-0.92 0.31-1.86 0.58-2.81 0.83-0.32 0.09-0.64 0.17-0.97 0.25-0.15 0.04-0.3 0.08-0.45 0.11-0.4 0.1-0.8 0.19-1.21 0.28-0.07218 0.0214-0.14566 0.0381-0.22 0.05-0.4 0.09-0.8 0.17-1.2 0.25-0.34 0.07-0.67 0.14-1 0.2-1.1-2.96-2.1967-5.92-3.29-8.88 3.1246-0.56203 6.1981-1.3781 9.19-2.44 1.09 2.96 2.1867 5.9233 3.29 8.89z"/>
   <path d="m20.66 29.55c-3.0274 1.0778-5.8606 2.6379-8.39 4.62-1.1-2.96-2.1967-5.92-3.29-8.88 2.5294-1.9821 5.3626-3.5422 8.39-4.62 1.1 2.96 2.1967 5.92 3.29 8.88z"/>
   <path d="m39.32 25.39c-3.14 0.61-6.33 1.1-9.47 1.72-1.1-2.96-2.1967-5.9167-3.29-8.87 3.14-0.62 6.32-1.11 9.46-1.72 1.1 2.96 2.2 5.9167 3.3 8.87z"/>
  </g>
  <path d="m56.89 18.33c-1.7677 1.4036-3.6984 2.5888-5.75 3.53-0.86 0.4-1.74 0.76-2.63 1.09-1.07-2.87-2.12-5.73-3.19-8.6-0.03-0.09-0.07-0.18-0.1-0.27 0.91-0.34 1.81-0.71 2.69-1.13 1.0086-0.46792 1.9901-0.99208 2.94-1.57 0.95453-0.58398 1.8729-1.2251 2.75-1.92 1.1 2.96 2.1967 5.9167 3.29 8.87z" fill="#37474f"/>
  <path d="m54 19.87c-0.909 0.72489-1.8644 1.3896-2.86 1.99-0.86 0.4-1.74 0.76-2.63 1.09-1.07-2.87-2.12-5.73-3.19-8.6 0.88-0.42 1.74-0.89 2.59-1.4 0.9734-0.59049 1.9086-1.2418 2.8-1.95 0.05 0.13 0.09 0.25 0.14 0.38 1.05 2.83 2.11 5.67 3.15 8.49z" fill="#607d8b"/>
  <path d="m19.065 58.257-0.6887 0.2552c-1.0355 0.38364-2.186-0.1446-2.57-1.18l-13.773-37.167c-0.14181-0.38294-0.022178-0.81364 0.2968-1.0686l3.3608-2.6863 14.555 39.276c0.38379 1.0357-0.14468 2.1865-1.1804 2.5703z" fill="#ff9801"/>
  <g>
   <path d="m15.562 44.046c-0.41826 2.32e-4 -0.79239-0.26012-0.9375-0.6524l-9.8711-26.637c-0.15044-0.4055-0.02314-0.86176 0.3155-1.1308 6.7016-5.3228 14.866-6.7442 22.763-8.1182 7.5957-1.3223 14.77-2.5708 20.884-6.9751 0.49863-0.36417 1.1399-0.47166 1.73-0.29 0.57902 0.17416 1.0422 0.61089 1.25 1.1787l9.1836 24.784c0.29792 0.80842 0.03438 1.7166-0.65 2.24-6.5859 4.9551-14.515 6.335-22.183 7.67-8.001 1.3926-15.56 2.708-21.861 7.7144-0.17718 0.14058-0.39682 0.21688-0.623 0.2164zm-8.6777-27.295 9.1484 24.687c6.4854-4.6514 14.197-5.9932 21.67-7.294 7.7627-1.351 15.097-2.6274 21.29-7.2724l-9.1729-24.755c-6.4218 4.7124-14.161 6.0591-21.646 7.3618-7.7617 1.3506-15.105 2.6289-21.29 7.273z"/>
   <path d="m23.947 39.425c-0.41827-1.22e-4 -0.79228-0.26055-0.9375-0.6528l-9.8711-26.637c-0.0925-0.2487-0.08228-0.52399 0.0284-0.76515 0.11068-0.24116 0.31272-0.42841 0.5616-0.52045 4.5899-1.5374 9.3096-2.6559 14.101-3.3418 4.6719-0.66796 9.2742-1.7551 13.751-3.2483 0.51779-0.19188 1.0931 0.072248 1.2851 0.59l9.8711 26.637c0.0925 0.2487 0.08228 0.52399-0.0284 0.76515-0.11068 0.24116-0.31273 0.42841-0.5616 0.52045-4.5906 1.5377-9.3111 2.6563-14.104 3.3423-4.6711 0.66793-9.2727 1.7548-13.749 3.2476-0.11122 0.0412-0.2288 0.06256-0.3474 0.0631zm-8.5811-27.034 9.1758 24.761c4.3011-1.3446 8.701-2.35 13.159-3.0069 4.3383-0.63946 8.6207-1.6134 12.809-2.9131l-9.176-24.76c-4.3017 1.3446-8.7022 2.35-13.161 3.0068-4.3375 0.63978-8.6191 1.6135-12.807 2.9126z"/>
   <path d="m33.141 36.986c-0.41784-2.59e-4 -0.79141-0.26046-0.9365-0.6523l-9.8711-26.637c-0.10223-0.27515-0.07833-0.58132 0.065351-0.83728 0.14368-0.25595 0.39262-0.4358 0.68075-0.49182 1.5742-0.3062 3.1582-0.5821 4.7432-0.8579 1.5771-0.2744 3.1543-0.5494 4.7207-0.854 0.48074-0.093698 0.95859 0.17458 1.1289 0.6338l9.8711 26.637c0.10201 0.27515 0.07801 0.58123-0.06564 0.83712-0.14365 0.25589-0.39244 0.43577-0.68046 0.49198-1.5772 0.3066-3.1641 0.583-4.752 0.8593-1.5742 0.274-3.1494 0.5479-4.7119 0.8521-0.06338 0.0124-0.12782 0.0186-0.1924 0.0185zm-8.5215-26.875 9.1661 24.734c1.3017-0.2446 2.6093-0.4721 3.9169-0.7 1.1866-0.2065 2.3731-0.4131 3.5547-0.6323l-9.166-24.734c-1.3047 0.2456-2.6152 0.4737-3.9258 0.7017-1.1836 0.206-2.3671 0.4121-3.5459 0.6308z"/>
   <path d="m12.272 35.168c-0.41828 2.9e-4 -0.79243-0.26008-0.9375-0.6524l-3.291-8.8789c-0.15046-0.40548-0.023204-0.86173 0.3154-1.1308 6.7012-5.3228 14.866-6.7437 22.763-8.1182 8.0019-1.3926 15.56-2.708 21.861-7.7148 0.25096-0.19949 0.58236-0.26656 0.89114-0.18036 0.30878 0.086202 0.55752 0.31522 0.66886 0.61586l3.29 8.8789c0.15051 0.40551 0.02325 0.86182-0.3154 1.1309-6.7 5.3232-14.866 6.7441-22.763 8.1186-8.001 1.3926-15.559 2.708-21.86 7.7144-0.17709 0.14066-0.39665 0.21709-0.6228 0.2168zm-2.0977-9.5375 2.5684 6.93c6.4844-4.6509 14.197-5.9932 21.669-7.2935 7.7618-1.3511 15.106-2.6294 21.29-7.2734l-2.5674-6.9292c-6.4844 4.6513-14.197 5.9936-21.67 7.2939-7.7616 1.3507-15.105 2.6285-21.29 7.2722z"/>
   <path d="m17.68 59.638c-1.2541-0.0024-2.3749-0.78334-2.8115-1.959l-13.773-37.166c-0.29283-0.78757-0.046805-1.6742 0.61-2.1982l3.36-2.6861c0.25075-0.20021 0.58234-0.26793 0.89151-0.18208 0.30917 0.085852 0.55837 0.31485 0.66999 0.61568l14.555 39.277c0.57417 1.5533-0.21774 3.2783-1.77 3.8554l-0.6895 0.2559c-0.33384 0.12387-0.68702 0.18753-1.0431 0.188zm-12.447-41.583-2.2793 1.8222 13.789 37.106c0.19193 0.51782 0.7671 0.78225 1.2851 0.5908l0.6895-0.2554c0.51714-0.19265 0.78099-0.76734 0.59-1.2851z"/>
  </g>
 </g>
 <g transform="matrix(.097962 0 0 .097962 110.29 -12.64)">
  <path d="m45.78 646.16 281.11-234.26h305.37c6.563 0 11.903-5.34 11.903-11.903v-1h27.807v1c0 6.563 5.34 11.903 11.903 11.903h91.322v234.26z" fill="#ed1f34"/>
  <path d="m683.87 412.9c-7.126 0-12.903-5.777-12.903-12.903h-25.807c0 7.126-5.777 12.903-12.903 12.903h-305.01l-278.71 232.26h725.65v-232.26z" fill="#ed1f34"/>
  <path d="m683.87 387.1h90.322v-232.26h-725.65l278.71 232.26h305.01c7.126 0 12.903 5.777 12.903 12.903h25.807c0-7.126 5.777-12.903 12.903-12.903z" fill="#fff"/>
  <polygon points="24.807 167.35 303.99 400 24.807 632.65" fill="#103b9b"/>
  <polygon points="302.43 400 25.807 169.48 25.807 630.52" fill="#103b9b"/>
  <path d="m787.1 129.03h-774.19c-0.14 0-0.273 0.017-0.411 0.021-0.274 9e-3 -0.549 0.016-0.821 0.042-0.224 0.021-0.444 0.06-0.664 0.093-0.193 0.029-0.385 0.052-0.576 0.088-0.241 0.046-0.473 0.108-0.709 0.168-0.17 0.043-0.342 0.081-0.511 0.131-0.229 0.069-0.449 0.149-0.672 0.23-0.174 0.062-0.349 0.121-0.521 0.191-0.201 0.083-0.396 0.177-0.592 0.269-0.188 0.087-0.376 0.172-0.561 0.27-0.172 0.091-0.337 0.194-0.506 0.292-0.196 0.115-0.393 0.227-0.583 0.354-0.155 0.103-0.301 0.217-0.451 0.325-0.189 0.138-0.378 0.272-0.561 0.419-0.16 0.131-0.311 0.274-0.464 0.412-0.157 0.141-0.316 0.275-0.468 0.426-0.208 0.205-0.401 0.425-0.594 0.644-0.081 0.091-0.168 0.174-0.246 0.267-7e-3 7e-3 -0.012 0.016-0.017 0.024-0.273 0.33-0.533 0.672-0.774 1.03-0.024 0.036-0.043 0.074-0.067 0.11-0.208 0.316-0.408 0.638-0.588 0.974-0.089 0.165-0.162 0.337-0.244 0.506-0.102 0.21-0.21 0.418-0.301 0.635-0.084 0.203-0.151 0.41-0.225 0.616-0.069 0.19-0.145 0.376-0.205 0.573-0.076 0.244-0.131 0.492-0.191 0.74-0.04 0.162-0.088 0.32-0.122 0.483-0.079 0.394-0.139 0.79-0.181 1.186-1e-3 0.022-9e-3 0.044-0.01 0.068-0.043 0.429-0.063 0.859-0.065 1.289 2e-3 8e-3 0 0.017 0 0.027v516.13c0 0.011 2e-3 0.019 2e-3 0.027 0 0.431 0.021 0.86 0.065 1.289 3e-3 0.027 9e-3 0.053 0.012 0.079 0.043 0.394 0.1 0.786 0.179 1.175 0.032 0.165 0.083 0.325 0.122 0.488 0.06 0.246 0.115 0.492 0.189 0.735 0.061 0.195 0.138 0.385 0.207 0.576 0.074 0.204 0.139 0.409 0.224 0.61 0.091 0.219 0.201 0.429 0.305 0.642 0.081 0.167 0.151 0.336 0.239 0.499 0.184 0.341 0.385 0.67 0.599 0.991 0.021 0.031 0.036 0.062 0.057 0.093 0.241 0.356 0.5 0.7 0.774 1.03 7e-3 7e-3 0.012 0.016 0.018 0.024 0.044 0.054 0.095 0.098 0.139 0.149 0.244 0.284 0.497 0.56 0.766 0.821 0.131 0.127 0.267 0.244 0.401 0.364 0.198 0.178 0.396 0.352 0.604 0.517 0.16 0.127 0.323 0.246 0.487 0.364 0.2 0.143 0.402 0.28 0.609 0.413 0.17 0.108 0.339 0.213 0.513 0.312 0.224 0.127 0.453 0.246 0.685 0.359 0.163 0.081 0.323 0.163 0.49 0.235 0.265 0.117 0.537 0.221 0.81 0.32 0.141 0.052 0.279 0.108 0.421 0.155 0.32 0.103 0.647 0.188 0.978 0.268 0.103 0.024 0.207 0.058 0.31 0.079 0.382 0.081 0.772 0.142 1.167 0.188 0.057 7e-3 0.112 0.019 0.168 0.025 0.451 0.047 0.905 0.072 1.366 0.072h774.19c7.126 0 12.903-5.777 12.903-12.903v-516.12c-4e-3 -7.126-5.781-12.904-12.907-12.904zm-484.67 270.97-276.62 230.52v-461.03zm-253.88 245.16 278.71-232.26h305.01c7.126 0 12.903-5.777 12.903-12.903s-5.777-12.903-12.903-12.903h-305.01l-278.71-232.26h725.65v232.26h-90.322c-7.126 0-12.903 5.777-12.903 12.903s5.777 12.903 12.903 12.903h90.322v232.26z"/>
 </g>
 <g transform="matrix(.097962 0 0 .097962 260.86 3.7484)">
  <path d="m644.16 487.02v-1c0-6.563-5.34-11.903-11.903-11.903h-607.45v-148.24h750.39v148.24h-91.322c-6.563 0-11.903 5.34-11.903 11.903v1z" fill="#ed1f34"/>
  <path d="m683.87 473.12h90.322v-146.24h-748.39v146.24h606.45c7.128 0 12.903 5.777 12.903 12.903h25.807c0-7.125 5.775-12.903 12.903-12.903z" fill="#ed1f34"/>
  <path d="m24.807 646.16v-148.24h607.45c6.563 0 11.903-5.34 11.903-11.903v-1h27.807v1c0 6.563 5.34 11.903 11.903 11.903h91.322v148.24z" fill="#ffe000"/>
  <path d="m683.87 498.92c-7.128 0-12.903-5.777-12.903-12.903h-25.807c0 7.126-5.775 12.903-12.903 12.903h-606.45v146.24h748.39v-146.24z" fill="#ffe000"/>
  <rect x="24.807" y="153.84" width="750.39" height="148.24" fill="#333"/>
  <rect x="25.807" y="154.84" width="748.39" height="146.24" fill="#333"/>
  <path d="m787.1 129.03h-774.19c-7.126 0-12.903 5.778-12.903 12.904v516.13c0 7.126 5.777 12.903 12.903 12.903h774.19c7.128 0 12.903-5.777 12.903-12.903v-516.13c1e-3 -7.126-5.774-12.904-12.902-12.904zm-12.904 25.807v146.24h-748.39v-146.24zm-748.39 490.32v-146.24h606.45c7.128 0 12.903-5.777 12.903-12.903s-5.775-12.903-12.903-12.903h-606.45v-146.24h748.39v146.24h-90.322c-7.128 0-12.903 5.777-12.903 12.903s5.775 12.903 12.903 12.903h90.322v146.24h-748.39z"/>
 </g>
 <g transform="matrix(.097962 0 0 .097962 407.28 20.713)">
  <path d="m632.26 326.88h-606.45v146.24h748.39v-146.24h-90.322c-7.128 0-12.903-5.777-12.903-12.903h-25.807c-1e-3 7.125-5.776 12.903-12.904 12.903z" fill="#fff"/>
  <path d="m644.16 314.98v-1c0-6.563-5.34-11.903-11.903-11.903h-607.45v-148.24h750.39v148.24h-91.322c-6.563 0-11.903 5.34-11.903 11.903v1h-27.808z" fill="#b21727"/>
  <path d="m632.26 301.08c7.128 0 12.903 5.777 12.903 12.903h25.807c0-7.126 5.775-12.903 12.903-12.903h90.322v-146.24h-748.39v146.24z" fill="#b21727"/>
  <rect x="24.807" y="497.92" width="750.39" height="148.24" fill="#103b9b"/>
  <rect x="25.807" y="498.92" width="748.39" height="146.24" fill="#103b9b"/>
  <path d="m787.1 129.03h-774.19c-7.126 0-12.903 5.778-12.903 12.904v516.13c0 7.126 5.777 12.903 12.903 12.903h774.19c7.128 0 12.903-5.777 12.903-12.903v-516.13c1e-3 -7.126-5.774-12.904-12.902-12.904zm-12.904 25.807v146.24h-90.322c-7.128 0-12.903 5.777-12.903 12.903s5.775 12.903 12.903 12.903h90.322v146.24h-748.39v-146.24h606.45c7.128 0 12.903-5.777 12.903-12.903s-5.775-12.903-12.903-12.903h-606.45v-146.24zm-748.39 490.32v-146.24h748.39v146.24z"/>
 </g>
 <g transform="matrix(.097962 0 0 .097962 394.32 132.26)">
  <path d="m644.16 487.02v-1c0-6.563-5.34-11.903-11.903-11.903h-607.45v-148.24h750.39v148.24h-91.322c-6.563 0-11.903 5.34-11.903 11.903v1z" fill="#ed1f34"/>
  <path d="m683.87 473.12h90.322v-146.24h-748.39v146.24h606.45c7.128 0 12.903 5.777 12.903 12.903h25.807c0-7.125 5.775-12.903 12.903-12.903z" fill="#ed1f34"/>
  <path d="m24.807 646.16v-148.24h607.45c6.563 0 11.903-5.34 11.903-11.903v-1h27.807v1c0 6.563 5.34 11.903 11.903 11.903h91.322v148.24z" fill="#ffe000"/>
  <path d="m683.87 498.92c-7.128 0-12.903-5.777-12.903-12.903h-25.807c0 7.126-5.775 12.903-12.903 12.903h-606.45v146.24h748.39v-146.24z" fill="#ffe000"/>
  <rect x="24.807" y="153.84" width="750.39" height="148.24" fill="#333"/>
  <rect x="25.807" y="154.84" width="748.39" height="146.24" fill="#333"/>
  <path d="m787.1 129.03h-774.19c-7.126 0-12.903 5.778-12.903 12.904v516.13c0 7.126 5.777 12.903 12.903 12.903h774.19c7.128 0 12.903-5.777 12.903-12.903v-516.13c1e-3 -7.126-5.774-12.904-12.902-12.904zm-12.904 25.807v146.24h-748.39v-146.24zm-748.39 490.32v-146.24h606.45c7.128 0 12.903-5.777 12.903-12.903s-5.775-12.903-12.903-12.903h-606.45v-146.24h748.39v146.24h-90.322c-7.128 0-12.903 5.777-12.903 12.903s5.775 12.903 12.903 12.903h90.322v146.24h-748.39z"/>
 </g>
 <g transform="matrix(.097962 0 0 .097962 226.36 140.21)">
  <g fill="#103b9b">
   <polygon points="24.807 331.32 24.807 232.41 173.18 331.32"/>
   <polygon points="25.807 234.28 25.807 330.32 169.87 330.32"/>
   <polygon points="154.57 153.84 331.32 153.84 331.32 271.68"/>
   <polygon points="330.32 154.84 157.87 154.84 330.32 269.81"/>
   <polygon points="24.807 468.68 173.18 468.68 24.807 567.59"/>
   <polygon points="25.807 469.68 25.807 565.72 169.87 469.68"/>
   <polygon points="468.68 153.84 645.43 153.84 468.68 271.68"/>
   <polygon points="642.13 154.84 469.68 154.84 469.68 269.81"/>
   <polygon points="626.82 331.32 775.19 232.41 775.19 331.32"/>
   <polygon points="774.19 330.32 774.19 234.28 630.13 330.32"/>
   <polygon points="154.57 646.16 331.32 528.32 331.32 646.16"/>
   <polygon points="157.87 645.16 330.32 645.16 330.32 530.19"/>
   <polygon points="626.82 468.68 775.19 468.68 775.19 567.59"/>
   <polygon points="774.19 565.72 774.19 469.68 630.13 469.68"/>
   <polygon points="468.68 646.16 468.68 528.32 645.43 646.16"/>
   <polygon points="469.68 645.16 642.13 645.16 469.68 530.19"/>
  </g>
  <polygon points="660.74 154.84 642.13 154.84 469.68 269.81 469.68 154.84 450.32 154.84 450.32 349.68 774.19 349.68 774.19 330.32 630.13 330.32 774.19 234.28 774.19 166.04 527.78 330.32 481.25 330.32 469.68 330.32 469.68 313.24 469.68 282.23" fill="#fff"/>
  <polygon points="139.26 645.16 157.87 645.16 330.32 530.19 330.32 645.16 349.68 645.16 349.68 450.32 25.807 450.32 25.807 469.68 169.87 469.68 25.807 565.72 25.807 633.95 272.22 469.68 318.75 469.68 330.32 469.68 330.32 486.77 330.32 517.79" fill="#fff"/>
  <g fill="#ed1f34">
   <polygon points="52.217 646.16 318.44 468.68 331.32 468.68 331.32 487.3 93.041 646.16"/>
   <polygon points="318.75 469.68 55.52 645.16 92.738 645.16 330.32 486.77 330.32 469.68"/>
   <polygon points="275.52 331.32 234.13 331.32 24.807 191.44 24.807 164.18"/>
   <polygon points="272.22 330.32 25.807 166.04 25.807 190.91 234.43 330.32"/>
   <polygon points="775.19 635.82 524.48 468.68 564.03 468.68 775.19 609.79"/>
   <polygon points="527.78 469.68 774.19 633.95 774.19 610.32 563.72 469.68"/>
   <polygon points="468.68 331.32 468.68 312.71 706.96 153.84 747.78 153.84 481.56 331.32"/>
   <polygon points="481.25 330.32 744.48 154.84 707.26 154.84 469.68 313.24 469.68 330.32"/>
  </g>
  <path d="m800 657.98v-54.572-0.062-461.32-0.039-0.045c0-0.076-0.011-0.15-0.012-0.226-6e-3 -0.348-0.02-0.693-0.054-1.041-0.014-0.148-0.041-0.291-0.061-0.436-0.036-0.272-0.07-0.545-0.125-0.815-0.038-0.189-0.09-0.374-0.136-0.561-0.054-0.22-0.104-0.44-0.169-0.659-0.069-0.227-0.153-0.446-0.232-0.666-0.063-0.172-0.118-0.346-0.189-0.516-0.111-0.27-0.239-0.53-0.368-0.79-0.059-0.119-0.108-0.237-0.17-0.354-0.178-0.33-0.37-0.65-0.573-0.963-0.027-0.043-0.05-0.088-0.077-0.131-2e-3 -3e-3 -5e-3 -7e-3 -9e-3 -0.01-0.241-0.359-0.497-0.708-0.772-1.042-0.125-0.153-0.265-0.289-0.396-0.435-0.146-0.162-0.287-0.331-0.442-0.485-0.217-0.217-0.447-0.417-0.678-0.616-0.084-0.072-0.162-0.153-0.249-0.224-0.221-0.181-0.451-0.344-0.682-0.509-0.11-0.08-0.217-0.167-0.33-0.243-0.2-0.134-0.408-0.251-0.614-0.374-0.158-0.094-0.313-0.194-0.475-0.28-0.164-0.088-0.334-0.162-0.503-0.243-0.215-0.103-0.427-0.21-0.646-0.303-0.126-0.052-0.255-0.093-0.382-0.14-0.267-0.1-0.532-0.201-0.806-0.285-0.1-0.031-0.201-0.05-0.303-0.078-0.301-0.083-0.602-0.167-0.91-0.227-0.138-0.027-0.276-0.04-0.414-0.063-0.298-0.05-0.596-0.1-0.9-0.127-0.398-0.038-0.8-0.06-1.202-0.06-9e-3 -2e-3 -0.018-2e-3 -0.024-2e-3h-83.654-0.045-690.5-0.021c-0.403 2e-3 -0.805 0.022-1.206 0.06-0.351 0.033-0.695 0.088-1.038 0.148-0.091 0.016-0.183 0.024-0.272 0.042-0.337 0.067-0.666 0.155-0.993 0.248-0.072 0.021-0.146 0.035-0.218 0.057-0.296 0.089-0.583 0.198-0.871 0.308-0.105 0.04-0.213 0.072-0.316 0.117-0.241 0.1-0.473 0.215-0.706 0.33-0.146 0.072-0.298 0.136-0.442 0.213-0.184 0.098-0.359 0.21-0.538 0.318-0.184 0.11-0.372 0.215-0.552 0.335-0.136 0.091-0.262 0.193-0.394 0.288-0.208 0.151-0.42 0.299-0.621 0.464-0.108 0.088-0.207 0.188-0.312 0.279-0.208 0.182-0.42 0.363-0.618 0.561-0.189 0.188-0.361 0.391-0.539 0.59-0.1 0.114-0.207 0.217-0.303 0.333-0.275 0.334-0.532 0.682-0.772 1.041-3e-3 5e-3 -7e-3 9e-3 -0.01 0.014-0.033 0.05-0.059 0.104-0.091 0.153-0.198 0.306-0.389 0.618-0.561 0.939-0.065 0.12-0.117 0.246-0.177 0.368-0.126 0.256-0.253 0.511-0.361 0.776-0.072 0.174-0.129 0.351-0.193 0.526-0.079 0.218-0.162 0.434-0.23 0.657-0.067 0.22-0.115 0.44-0.17 0.663-0.046 0.186-0.098 0.368-0.134 0.557-0.053 0.272-0.089 0.545-0.125 0.819-0.019 0.145-0.046 0.288-0.06 0.434-0.035 0.348-0.046 0.695-0.053 1.041 4e-3 0.075-6e-3 0.149-6e-3 0.225v0.045 0.039 55.811 0.044 460.1 0.04 0.044c0 0.076 0.01 0.15 0.012 0.226 5e-3 0.348 0.019 0.693 0.053 1.041 0.014 0.146 0.041 0.289 0.06 0.436 0.036 0.273 0.071 0.545 0.125 0.817 0.038 0.188 0.09 0.373 0.136 0.561 0.053 0.22 0.103 0.44 0.168 0.659 0.069 0.225 0.151 0.441 0.232 0.662 0.063 0.174 0.119 0.35 0.191 0.521 0.11 0.268 0.239 0.526 0.366 0.784 0.059 0.119 0.108 0.239 0.172 0.357 0.177 0.331 0.37 0.65 0.573 0.964 0.027 0.043 0.05 0.088 0.078 0.131 1e-3 3e-3 5e-3 7e-3 7e-3 0.01 0.278 0.417 0.585 0.811 0.908 1.191 0.1 0.118 0.207 0.227 0.31 0.342 0.224 0.246 0.458 0.481 0.699 0.709 0.134 0.126 0.268 0.249 0.406 0.368 0.256 0.22 0.523 0.427 0.797 0.628 0.115 0.084 0.224 0.176 0.34 0.255 0.389 0.265 0.792 0.507 1.209 0.73 0.1 0.054 0.203 0.097 0.305 0.146 0.335 0.167 0.676 0.322 1.027 0.461 0.133 0.052 0.265 0.099 0.397 0.146 0.332 0.119 0.669 0.222 1.012 0.313 0.136 0.036 0.272 0.073 0.41 0.104 0.354 0.081 0.714 0.145 1.079 0.196 0.125 0.018 0.25 0.043 0.375 0.057 0.459 0.052 0.926 0.083 1.399 0.084 0.022 0 0.044 4e-3 0.068 4e-3h0.018 83.623 0.053 690.46c5e-3 0 0.013 2e-3 0.018 2e-3 0.022 0 0.045-4e-3 0.067-4e-3 0.473-2e-3 0.938-0.032 1.398-0.084 0.124-0.014 0.246-0.04 0.369-0.057 0.367-0.052 0.73-0.115 1.086-0.198 0.135-0.031 0.269-0.067 0.402-0.104 0.348-0.093 0.688-0.197 1.022-0.316 0.131-0.046 0.26-0.091 0.389-0.143 0.356-0.14 0.702-0.298 1.041-0.466 0.097-0.049 0.196-0.09 0.292-0.142 0.42-0.224 0.824-0.468 1.215-0.732 0.113-0.078 0.221-0.167 0.33-0.248 0.277-0.201 0.548-0.411 0.806-0.635 0.138-0.119 0.271-0.241 0.402-0.365 0.244-0.229 0.477-0.466 0.704-0.712 0.103-0.113 0.208-0.222 0.308-0.339 0.323-0.38 0.63-0.775 0.908-1.19 2e-3 -4e-3 5e-3 -7e-3 7e-3 -0.011 0.029-0.043 0.05-0.087 0.078-0.13 0.203-0.313 0.396-0.632 0.572-0.964 0.063-0.117 0.112-0.237 0.171-0.354 0.129-0.26 0.256-0.52 0.368-0.79 0.07-0.17 0.125-0.344 0.188-0.516 0.081-0.221 0.164-0.44 0.232-0.666 0.065-0.219 0.115-0.438 0.169-0.657 0.047-0.188 0.098-0.371 0.136-0.563 0.054-0.27 0.09-0.544 0.124-0.815 0.019-0.146 0.047-0.289 0.062-0.437 0.035-0.346 0.047-0.693 0.054-1.039 2e-3 -0.076 0.012-0.15 0.012-0.226v-0.045c4e-3 -0.014 4e-3 -0.028 4e-3 -0.041zm-330.32-344.74 237.58-158.4h37.219l-263.23 175.48h46.524l246.42-164.28v183.63h-323.87v-194.84h210.42l-191.06 127.39zm-120 36.433h-323.87v-127.73l162.18 108.38h46.446l-208.62-139.42v-24.86l246.42 164.28h46.524l-263.23-175.48h294.16v194.84zm-19.356 137.09-237.58 158.39h-37.218l263.23-175.48h-46.524l-246.42 164.28v-183.63h323.87v194.84h-210.42l191.06-127.38v-31.017zm120-36.448h233.55c7.128 0 12.903-5.777 12.903-12.903s-5.775-12.902-12.903-12.902h-246.45c-7.127 0-12.903 5.776-12.903 12.902v207.74h-49.031v-207.74c0-7.126-5.776-12.902-12.903-12.902h-336.78v-49.033h336.77c7.127 0 12.903-5.777 12.903-12.903v-207.74h49.031v207.74c0 7.126 5.776 12.903 12.903 12.903h336.77v49.033h-38.709c-7.128 0-12.903 5.776-12.903 12.902s5.775 12.903 12.903 12.903h38.709v128.96l-164.02-109.61h-46.448l210.47 140.64v23.631l-246.42-164.28h-46.524l263.23 175.48h-294.16v-194.84z"/>
  <polygon points="330.32 269.81 157.87 154.84 55.52 154.84 318.75 330.32 272.22 330.32 234.43 330.32 187.98 330.32 25.807 221.94 25.807 234.28 169.87 330.32 25.807 330.32 25.807 349.68 349.68 349.68 349.68 154.84 330.32 154.84" fill="#fff"/>
  <path d="m469.68 530.19 172.45 114.97h102.35l-263.23-175.48h128.92l164.02 109.61v-13.565l-144.06-96.043h144.06v-19.355h-38.709c-7.128 0-12.903-5.777-12.903-12.903h-25.807c0 7.126-5.775 12.903-12.903 12.903h-233.55v194.84h19.355v-114.97z" fill="#fff"/>
  <path d="m374.48 646.16v-208.74c0-6.563-5.34-11.902-11.903-11.902h-337.77v-51.033h337.77c6.563 0 11.903-5.34 11.903-11.903v-208.74h51.031v208.74c0 6.563 5.34 11.903 11.903 11.903h337.77v51.033h-39.709c-6.563 0-11.903 5.339-11.903 11.902v1h-27.807v-1c0-6.563-5.34-11.902-11.903-11.902h-246.45c-6.563 0-11.903 5.339-11.903 11.902v208.74z" fill="#ed1f34"/>
  <path d="m722.58 437.42c0-7.126 5.775-12.902 12.903-12.902h38.709v-49.033h-336.77c-7.127 0-12.903-5.777-12.903-12.903v-207.74h-49.031v207.74c0 7.126-5.776 12.903-12.903 12.903h-336.78v49.033h336.77c7.127 0 12.903 5.776 12.903 12.902v207.74h49.031v-207.74c0-7.126 5.776-12.902 12.903-12.902h246.45c7.128 0 12.903 5.776 12.903 12.902z" fill="#ed1f34"/>
 </g>
 <g transform="matrix(.097962 0 0 .097962 71.052 156.54)">
  <g fill="#164fce">
   <path d="m24.807 474.12v-148.24h125.94v98.443c0 16.91 3.354 33.191 9.969 48.394l0.609 1.399z"/>
   <path d="m25.807 326.88v146.24h133.99c-6.63-15.237-10.052-31.644-10.052-48.793v-97.443z"/>
   <path d="m644.16 487.02v-1c0-6.563-5.34-11.903-11.903-11.903h-254.6l0.608-1.399c6.614-15.203 9.968-31.485 9.968-48.394v-98.443h386.96v148.24h-91.322c-6.563 0-11.903 5.34-11.903 11.903v1z"/>
   <path d="m683.87 473.12h90.322v-146.24h-384.96v97.443c0 17.149-3.422 33.556-10.051 48.793h253.07c7.128 0 12.903 5.777 12.903 12.903h25.807c1e-3 -7.125 5.776-12.903 12.904-12.903z"/>
  </g>
  <path d="m24.807 646.16v-148.24h150.66l0.3 0.396c3.946 5.204 8.348 10.207 13.082 14.869 19.655 19.37 47.05 35.146 77.136 44.422 1.136 0.351 2.316 0.528 3.507 0.528s2.371-0.178 3.508-0.528c30.088-9.277 57.482-25.053 77.136-44.421 4.725-4.653 9.126-9.656 13.082-14.87l0.3-0.396h268.74c6.563 0 11.903-5.34 11.903-11.903v-1h27.807v1c0 6.563 5.34 11.903 11.903 11.903h91.322v148.24z" fill="#ed1f34"/>
  <path d="m683.87 498.92c-7.128 0-12.903-5.777-12.903-12.903h-25.807c0 7.126-5.775 12.903-12.903 12.903h-268.24c-3.95 5.206-8.337 10.211-13.177 14.978-19.768 19.48-47.307 35.342-77.543 44.665-1.239 0.382-2.521 0.572-3.802 0.572s-2.563-0.19-3.802-0.572c-30.237-9.322-57.776-25.185-77.543-44.665-4.839-4.767-9.229-9.771-13.177-14.978h-149.16v146.24h748.39v-146.24z" fill="#ed1f34"/>
  <path d="m149.75 301.08v-47.312c0-7.126 5.775-12.903 12.903-12.903h213.68c7.128 0 12.903 5.777 12.903 12.903v47.312h384.96v-146.24h-748.39v146.24z" fill="#fff"/>
  <path d="m787.1 129.03h-774.19c-7.128 0-12.903 5.778-12.903 12.904v516.13c0 7.126 5.775 12.903 12.903 12.903h774.19c7.128 0 12.903-5.777 12.903-12.903v-516.13c1e-3 -7.126-5.774-12.904-12.902-12.904zm-12.904 25.807v146.24h-384.96v-47.312c0-7.126-5.775-12.903-12.903-12.903h-213.68c-7.128 0-12.903 5.777-12.903 12.903v47.312h-123.94v-146.24zm-410.76 269.49c0 14.234-2.79 26.796-7.456 37.848-18.297 43.327-65.445 63.476-86.479 70.512-21.037-7.036-68.186-27.185-86.48-70.512-4.668-11.052-7.457-23.611-7.457-37.848v-157.66h187.88v157.66h-3e-3zm-203.63 48.793h-133.99v-146.24h123.94v97.443c0 17.15 3.422 33.556 10.052 48.793zm-133.99 172.04v-146.24h149.16c3.95 5.206 8.339 10.211 13.177 14.978 19.768 19.48 47.307 35.342 77.543 44.665 1.239 0.382 2.521 0.572 3.802 0.572s2.563-0.19 3.802-0.572c30.236-9.322 57.775-25.185 77.543-44.665 4.84-4.767 9.227-9.771 13.177-14.978h268.24c7.128 0 12.903-5.777 12.903-12.903s-5.775-12.903-12.903-12.903h-253.07c6.629-15.237 10.051-31.644 10.051-48.793v-97.443h384.96v146.24h-90.322c-7.128 0-12.903 5.777-12.903 12.903s5.775 12.903 12.903 12.903h90.322v146.24z"/>
  <path d="m205.61 467.33c-7.182-2.762-14.731-4.162-22.437-4.162l-0.165 5e-3h-0.663l-0.258-0.611c-5-11.843-7.535-24.707-7.535-38.236v-158.66h189.88v158.66c0 13.532-2.535 26.396-7.535 38.236l-0.258 0.611h-0.686s-0.113-4e-3 -0.116-4e-3c-7.739 0-15.284 1.4-22.463 4.161l-0.766 0.294-0.438-0.693c-11.195-17.709-29.419-29.904-49.999-33.458l-0.906-0.156 0.08-0.916c0.03-0.346 0.053-0.692 0.053-1.046v-39.876h27.143c6.563 0 11.903-5.34 11.903-11.903s-5.34-11.903-11.903-11.903h-27.143v-24.683h12.134c6.563 0 11.903-5.34 11.903-11.903s-5.34-11.903-11.903-11.903h-12.134v-19.025c0-6.563-5.34-11.903-11.903-11.903s-11.903 5.34-11.903 11.903v19.025h-12.135c-6.563 0-11.903 5.34-11.903 11.903s5.339 11.903 11.903 11.903h12.135v24.682h-27.144c-6.563 0-11.903 5.34-11.903 11.903s5.34 11.903 11.903 11.903h27.144v39.876c0 0.354 0.022 0.7 0.053 1.046l0.08 0.916-0.906 0.156c-20.578 3.552-38.801 15.747-49.998 33.458l-0.438 0.693z" fill="#ed1f34"/>
  <path d="m363.43 266.67h-187.88v157.66c0 14.234 2.791 26.796 7.457 37.848 0.055 0 0.11-5e-3 0.165-5e-3 8.038 0 15.718 1.507 22.796 4.229 11.126-17.6 29.366-30.231 50.673-33.909-0.033-0.374-0.057-0.75-0.057-1.133v-38.876h-26.144c-7.128 0-12.903-5.777-12.903-12.903s5.775-12.903 12.903-12.903h26.144v-22.684h-11.135c-7.127 0-12.903-5.777-12.903-12.903s5.775-12.903 12.903-12.903h11.135v-18.025c0-7.126 5.775-12.903 12.903-12.903 7.127 0 12.903 5.777 12.903 12.903v18.025h11.134c7.128 0 12.903 5.777 12.903 12.903s-5.775 12.903-12.903 12.903h-11.134v22.682h26.143c7.128 0 12.903 5.777 12.903 12.903s-5.775 12.903-12.903 12.903h-26.143v38.876c0 0.383-0.024 0.759-0.057 1.133 21.308 3.68 39.548 16.31 50.674 33.909 7.079-2.722 14.76-4.229 22.797-4.229 0.056 0 0.108 5e-3 0.164 5e-3 4.667-11.052 7.456-23.611 7.456-37.848v-157.66z" fill="#ed1f34"/>
  <path d="m282.34 432.49c0.033-0.374 0.057-0.751 0.057-1.133v-38.876h26.143c7.128 0 12.903-5.777 12.903-12.903s-5.775-12.903-12.903-12.903h-26.143v-22.682h11.134c7.128 0 12.903-5.777 12.903-12.903s-5.775-12.903-12.903-12.903h-11.134v-18.025c0-7.126-5.776-12.903-12.903-12.903-7.128 0-12.903 5.777-12.903 12.903v18.025h-11.135c-7.127 0-12.903 5.777-12.903 12.903s5.775 12.903 12.903 12.903h11.135v22.682h-26.144c-7.128 0-12.903 5.777-12.903 12.903s5.775 12.903 12.903 12.903h26.144v38.876c0 0.382 0.024 0.759 0.057 1.133 4.177-0.722 8.461-1.133 12.847-1.133s8.668 0.411 12.845 1.133z" fill="#fff"/>
  <path d="m269.17 533.63c-19.982-6.684-68.469-26.989-87.085-71.071l-0.586-1.389h1.508l0.165-5e-3c7.68 0 15.208 1.348 22.391 4.007 11.531-17.814 30.04-30.069 50.908-33.673 4.407-0.762 8.787-1.147 13.017-1.147s8.61 0.386 13.017 1.147c20.869 3.602 39.378 15.855 50.909 33.673 7.182-2.659 14.71-4.007 22.39-4.007l1.562 0.068-0.477 1.325c-18.614 44.082-67.101 64.388-87.083 71.071l-0.317 0.106z" fill="#164fce"/>
  <path d="m333.01 466.4c-11.126-17.602-29.364-30.231-50.674-33.909-4.177-0.722-8.461-1.133-12.846-1.133s-8.669 0.411-12.847 1.133c-21.307 3.68-39.547 16.31-50.673 33.909-7.078-2.722-14.76-4.229-22.796-4.229-0.055 0-0.11 5e-3 -0.165 5e-3 18.297 43.327 65.445 63.476 86.481 70.512 21.036-7.036 68.184-27.185 86.479-70.512-0.055 0-0.108-5e-3 -0.163-5e-3 -8.037 1e-3 -15.718 1.508-22.796 4.229z" fill="#164fce"/>
 </g>
 <g transform="matrix(.097962 0 0 .097962 31.114 263.78)">
  <g fill="#103b9b">
   <polygon points="173.18 331.32 24.807 331.32 24.807 232.41"/>
   <polygon points="169.87 330.32 25.807 234.28 25.807 330.32"/>
   <polygon points="331.32 271.68 154.57 153.84 331.32 153.84"/>
   <polygon points="330.32 269.81 330.32 154.84 157.87 154.84"/>
   <polygon points="24.807 567.59 24.807 468.68 173.18 468.68"/>
   <polygon points="169.87 469.68 25.807 469.68 25.807 565.72"/>
   <polygon points="468.68 271.68 468.68 153.84 645.43 153.84"/>
   <polygon points="469.68 269.81 642.13 154.84 469.68 154.84"/>
   <polygon points="775.19 331.32 626.82 331.32 775.19 232.41"/>
   <polygon points="630.13 330.32 774.19 330.32 774.19 234.28"/>
   <polygon points="331.32 646.16 154.57 646.16 331.32 528.32"/>
   <polygon points="330.32 530.19 157.87 645.16 330.32 645.16"/>
   <polygon points="775.19 567.59 626.82 468.68 775.19 468.68"/>
   <polygon points="630.13 469.68 774.19 565.72 774.19 469.68"/>
   <polygon points="645.43 646.16 468.68 646.16 468.68 528.32"/>
   <polygon points="469.68 530.19 469.68 645.16 642.13 645.16"/>
  </g>
  <polygon points="469.68 269.81 469.68 154.84 450.32 154.84 450.32 349.68 774.19 349.68 774.19 330.32 630.13 330.32 774.19 234.28 774.19 166.04 527.78 330.32 481.25 330.32 469.68 330.32 469.68 313.24 469.68 282.23 660.74 154.84 642.13 154.84" fill="#fff"/>
  <polygon points="330.32 530.19 330.32 645.16 349.68 645.16 349.68 450.32 25.807 450.32 25.807 469.68 169.87 469.68 25.807 565.72 25.807 633.95 272.22 469.68 318.75 469.68 330.32 469.68 330.32 486.77 330.32 517.79 139.26 645.16 157.87 645.16" fill="#fff"/>
  <g fill="#ed1f34">
   <polygon points="331.32 468.68 331.32 487.3 93.041 646.16 52.217 646.16 318.44 468.68"/>
   <polygon points="92.738 645.16 330.32 486.77 330.32 469.68 318.75 469.68 55.52 645.16"/>
   <polygon points="24.807 191.44 24.807 164.18 275.52 331.32 234.13 331.32"/>
   <polygon points="25.807 190.91 234.43 330.32 272.22 330.32 25.807 166.04"/>
   <polygon points="564.03 468.68 775.19 609.79 775.19 635.82 524.48 468.68"/>
   <polygon points="774.19 610.32 563.72 469.68 527.78 469.68 774.19 633.95"/>
   <polygon points="706.96 153.84 747.78 153.84 481.56 331.32 468.68 331.32 468.68 312.71"/>
   <polygon points="707.26 154.84 469.68 313.24 469.68 330.32 481.25 330.32 744.48 154.84"/>
  </g>
  <path d="m800 657.98v-54.572-0.062-461.32-0.039-0.045c0-0.076-0.011-0.15-0.012-0.226-6e-3 -0.348-0.02-0.693-0.054-1.041-0.014-0.148-0.041-0.291-0.061-0.436-0.036-0.272-0.07-0.545-0.125-0.815-0.038-0.189-0.09-0.374-0.136-0.561-0.054-0.22-0.104-0.44-0.169-0.659-0.069-0.227-0.153-0.446-0.232-0.666-0.063-0.172-0.118-0.346-0.189-0.516-0.111-0.27-0.239-0.53-0.368-0.79-0.059-0.119-0.108-0.237-0.17-0.354-0.178-0.33-0.37-0.65-0.573-0.963-0.027-0.043-0.05-0.088-0.077-0.131-2e-3 -3e-3 -5e-3 -7e-3 -9e-3 -0.01-0.241-0.359-0.497-0.708-0.772-1.042-0.125-0.153-0.265-0.289-0.396-0.435-0.146-0.162-0.287-0.331-0.442-0.485-0.217-0.217-0.447-0.417-0.678-0.616-0.084-0.072-0.162-0.153-0.249-0.224-0.221-0.181-0.451-0.344-0.682-0.509-0.11-0.08-0.217-0.167-0.33-0.243-0.2-0.134-0.408-0.251-0.614-0.374-0.158-0.094-0.313-0.194-0.475-0.28-0.164-0.088-0.334-0.162-0.503-0.243-0.215-0.103-0.427-0.21-0.646-0.303-0.126-0.052-0.255-0.093-0.382-0.14-0.267-0.1-0.532-0.201-0.806-0.285-0.1-0.031-0.201-0.05-0.303-0.078-0.301-0.083-0.602-0.167-0.91-0.227-0.138-0.027-0.276-0.04-0.414-0.063-0.298-0.05-0.596-0.1-0.9-0.127-0.398-0.038-0.8-0.06-1.202-0.06-9e-3 -2e-3 -0.018-2e-3 -0.024-2e-3h-83.654-0.045-690.5-0.021c-0.403 2e-3 -0.805 0.022-1.206 0.06-0.351 0.033-0.695 0.088-1.038 0.148-0.091 0.016-0.183 0.024-0.272 0.042-0.337 0.067-0.666 0.155-0.993 0.248-0.072 0.021-0.146 0.035-0.218 0.057-0.296 0.089-0.583 0.198-0.871 0.308-0.105 0.04-0.213 0.072-0.316 0.117-0.241 0.1-0.473 0.215-0.706 0.33-0.146 0.072-0.298 0.136-0.442 0.213-0.184 0.098-0.359 0.21-0.538 0.318-0.184 0.11-0.372 0.215-0.552 0.335-0.136 0.091-0.262 0.193-0.394 0.288-0.208 0.151-0.42 0.299-0.621 0.464-0.108 0.088-0.207 0.188-0.312 0.279-0.208 0.182-0.42 0.363-0.618 0.561-0.189 0.188-0.361 0.391-0.539 0.59-0.1 0.114-0.207 0.217-0.303 0.333-0.275 0.334-0.532 0.682-0.772 1.041-3e-3 5e-3 -7e-3 9e-3 -0.01 0.014-0.033 0.05-0.059 0.104-0.091 0.153-0.198 0.306-0.389 0.618-0.561 0.939-0.065 0.12-0.117 0.246-0.177 0.368-0.126 0.256-0.253 0.511-0.361 0.776-0.072 0.174-0.129 0.351-0.193 0.526-0.079 0.218-0.162 0.434-0.23 0.657-0.067 0.22-0.115 0.44-0.17 0.663-0.046 0.186-0.098 0.368-0.134 0.557-0.053 0.272-0.089 0.545-0.125 0.819-0.019 0.145-0.046 0.288-0.06 0.434-0.035 0.348-0.046 0.695-0.053 1.041 4e-3 0.075-6e-3 0.149-6e-3 0.225v0.045 0.039 55.811 0.044 460.1 0.04 0.044c0 0.076 0.01 0.15 0.012 0.226 5e-3 0.348 0.019 0.693 0.053 1.041 0.014 0.146 0.041 0.289 0.06 0.436 0.036 0.273 0.071 0.545 0.125 0.817 0.038 0.188 0.09 0.373 0.136 0.561 0.053 0.22 0.103 0.44 0.168 0.659 0.069 0.225 0.151 0.441 0.232 0.662 0.063 0.174 0.119 0.35 0.191 0.521 0.11 0.268 0.239 0.526 0.366 0.784 0.059 0.119 0.108 0.239 0.172 0.357 0.177 0.331 0.37 0.65 0.573 0.964 0.027 0.043 0.05 0.088 0.078 0.131 1e-3 3e-3 5e-3 7e-3 7e-3 0.01 0.278 0.417 0.585 0.811 0.908 1.191 0.1 0.118 0.207 0.227 0.31 0.342 0.224 0.246 0.458 0.481 0.699 0.709 0.134 0.126 0.268 0.249 0.406 0.368 0.256 0.22 0.523 0.427 0.797 0.628 0.115 0.084 0.224 0.176 0.34 0.255 0.389 0.265 0.792 0.507 1.209 0.73 0.1 0.054 0.203 0.097 0.305 0.146 0.335 0.167 0.676 0.322 1.027 0.461 0.133 0.052 0.265 0.099 0.397 0.146 0.332 0.119 0.669 0.222 1.012 0.313 0.136 0.036 0.272 0.073 0.41 0.104 0.354 0.081 0.714 0.145 1.079 0.196 0.125 0.018 0.25 0.043 0.375 0.057 0.459 0.052 0.926 0.083 1.399 0.084 0.022 0 0.044 4e-3 0.068 4e-3h0.018 83.623 0.053 690.46c5e-3 0 0.013 2e-3 0.018 2e-3 0.022 0 0.045-4e-3 0.067-4e-3 0.473-2e-3 0.938-0.032 1.398-0.084 0.124-0.014 0.246-0.04 0.369-0.057 0.367-0.052 0.73-0.115 1.086-0.198 0.135-0.031 0.269-0.067 0.402-0.104 0.348-0.093 0.688-0.197 1.022-0.316 0.131-0.046 0.26-0.091 0.389-0.143 0.356-0.14 0.702-0.298 1.041-0.466 0.097-0.049 0.196-0.09 0.292-0.142 0.42-0.224 0.824-0.468 1.215-0.732 0.113-0.078 0.221-0.167 0.33-0.248 0.277-0.201 0.548-0.411 0.806-0.635 0.138-0.119 0.271-0.241 0.402-0.365 0.244-0.229 0.477-0.466 0.704-0.712 0.103-0.113 0.208-0.222 0.308-0.339 0.323-0.38 0.63-0.775 0.908-1.19 2e-3 -4e-3 5e-3 -7e-3 7e-3 -0.011 0.029-0.043 0.05-0.087 0.078-0.13 0.203-0.313 0.396-0.632 0.572-0.964 0.063-0.117 0.112-0.237 0.171-0.354 0.129-0.26 0.256-0.52 0.368-0.79 0.07-0.17 0.125-0.344 0.188-0.516 0.081-0.221 0.164-0.44 0.232-0.666 0.065-0.219 0.115-0.438 0.169-0.657 0.047-0.188 0.098-0.371 0.136-0.563 0.054-0.27 0.09-0.544 0.124-0.815 0.019-0.146 0.047-0.289 0.062-0.437 0.035-0.346 0.047-0.693 0.054-1.039 2e-3 -0.076 0.012-0.15 0.012-0.226v-0.045c4e-3 -0.014 4e-3 -0.028 4e-3 -0.041zm-330.32-344.74 237.58-158.4h37.219l-263.23 175.48h46.524l246.42-164.28v183.63h-323.87v-194.84h210.42l-191.06 127.39zm-120 36.433h-323.87v-127.73l162.18 108.38h46.446l-208.62-139.42v-24.86l246.42 164.28h46.524l-263.23-175.48h294.16v194.84zm-19.356 137.09-237.58 158.39h-37.218l263.23-175.48h-46.524l-246.42 164.28v-183.63h323.87v194.84h-210.42l191.06-127.38v-31.017zm120-36.448h233.55c7.128 0 12.903-5.777 12.903-12.903s-5.775-12.902-12.903-12.902h-246.45c-7.127 0-12.903 5.776-12.903 12.902v207.74h-49.031v-207.74c0-7.126-5.776-12.902-12.903-12.902h-336.78v-49.033h336.77c7.127 0 12.903-5.777 12.903-12.903v-207.74h49.031v207.74c0 7.126 5.776 12.903 12.903 12.903h336.77v49.033h-38.709c-7.128 0-12.903 5.776-12.903 12.902s5.775 12.903 12.903 12.903h38.709v128.96l-164.02-109.61h-46.448l210.47 140.64v23.631l-246.42-164.28h-46.524l263.23 175.48h-294.16v-194.84z"/>
  <polygon points="55.52 154.84 318.75 330.32 272.22 330.32 234.43 330.32 187.98 330.32 25.807 221.94 25.807 234.28 169.87 330.32 25.807 330.32 25.807 349.68 349.68 349.68 349.68 154.84 330.32 154.84 330.32 269.81 157.87 154.84" fill="#fff"/>
  <path d="m469.68 530.19 172.45 114.97h102.35l-263.23-175.48h128.92l164.02 109.61v-13.565l-144.06-96.043h144.06v-19.355h-38.709c-7.128 0-12.903-5.777-12.903-12.903h-25.807c0 7.126-5.775 12.903-12.903 12.903h-233.55v194.84h19.355v-114.97z" fill="#fff"/>
  <path d="m374.48 646.16v-208.74c0-6.563-5.34-11.902-11.903-11.902h-337.77v-51.033h337.77c6.563 0 11.903-5.34 11.903-11.903v-208.74h51.031v208.74c0 6.563 5.34 11.903 11.903 11.903h337.77v51.033h-39.709c-6.563 0-11.903 5.339-11.903 11.902v1h-27.807v-1c0-6.563-5.34-11.902-11.903-11.902h-246.45c-6.563 0-11.903 5.339-11.903 11.902v208.74z" fill="#ed1f34"/>
  <path d="m722.58 437.42c0-7.126 5.775-12.902 12.903-12.902h38.709v-49.033h-336.77c-7.127 0-12.903-5.777-12.903-12.903v-207.74h-49.031v207.74c0 7.126-5.776 12.903-12.903 12.903h-336.78v49.033h336.77c7.127 0 12.903 5.776 12.903 12.902v207.74h49.031v-207.74c0-7.126 5.776-12.902 12.903-12.902h246.45c7.128 0 12.903 5.776 12.903 12.902z" fill="#ed1f34"/>
 </g>
 <g transform="matrix(.097962 0 0 .097962 406.34 378.97)">
  <g fill="#164fce">
   <path d="m24.807 474.12v-148.24h125.94v98.443c0 16.91 3.354 33.191 9.969 48.394l0.609 1.399z"/>
   <path d="m25.807 326.88v146.24h133.99c-6.63-15.237-10.052-31.644-10.052-48.793v-97.443z"/>
   <path d="m644.16 487.02v-1c0-6.563-5.34-11.903-11.903-11.903h-254.6l0.608-1.399c6.614-15.203 9.968-31.485 9.968-48.394v-98.443h386.96v148.24h-91.322c-6.563 0-11.903 5.34-11.903 11.903v1z"/>
   <path d="m683.87 473.12h90.322v-146.24h-384.96v97.443c0 17.149-3.422 33.556-10.051 48.793h253.07c7.128 0 12.903 5.777 12.903 12.903h25.807c1e-3 -7.125 5.776-12.903 12.904-12.903z"/>
  </g>
  <path d="m24.807 646.16v-148.24h150.66l0.3 0.396c3.946 5.204 8.348 10.207 13.082 14.869 19.655 19.37 47.05 35.146 77.136 44.422 1.136 0.351 2.316 0.528 3.507 0.528s2.371-0.178 3.508-0.528c30.088-9.277 57.482-25.053 77.136-44.421 4.725-4.653 9.126-9.656 13.082-14.87l0.3-0.396h268.74c6.563 0 11.903-5.34 11.903-11.903v-1h27.807v1c0 6.563 5.34 11.903 11.903 11.903h91.322v148.24z" fill="#ed1f34"/>
  <path d="m683.87 498.92c-7.128 0-12.903-5.777-12.903-12.903h-25.807c0 7.126-5.775 12.903-12.903 12.903h-268.24c-3.95 5.206-8.337 10.211-13.177 14.978-19.768 19.48-47.307 35.342-77.543 44.665-1.239 0.382-2.521 0.572-3.802 0.572s-2.563-0.19-3.802-0.572c-30.237-9.322-57.776-25.185-77.543-44.665-4.839-4.767-9.229-9.771-13.177-14.978h-149.16v146.24h748.39v-146.24z" fill="#ed1f34"/>
  <path d="m149.75 301.08v-47.312c0-7.126 5.775-12.903 12.903-12.903h213.68c7.128 0 12.903 5.777 12.903 12.903v47.312h384.96v-146.24h-748.39v146.24z" fill="#fff"/>
  <path d="m787.1 129.03h-774.19c-7.128 0-12.903 5.778-12.903 12.904v516.13c0 7.126 5.775 12.903 12.903 12.903h774.19c7.128 0 12.903-5.777 12.903-12.903v-516.13c1e-3 -7.126-5.774-12.904-12.902-12.904zm-12.904 25.807v146.24h-384.96v-47.312c0-7.126-5.775-12.903-12.903-12.903h-213.68c-7.128 0-12.903 5.777-12.903 12.903v47.312h-123.94v-146.24zm-410.76 269.49c0 14.234-2.79 26.796-7.456 37.848-18.297 43.327-65.445 63.476-86.479 70.512-21.037-7.036-68.186-27.185-86.48-70.512-4.668-11.052-7.457-23.611-7.457-37.848v-157.66h187.88v157.66h-3e-3zm-203.63 48.793h-133.99v-146.24h123.94v97.443c0 17.15 3.422 33.556 10.052 48.793zm-133.99 172.04v-146.24h149.16c3.95 5.206 8.339 10.211 13.177 14.978 19.768 19.48 47.307 35.342 77.543 44.665 1.239 0.382 2.521 0.572 3.802 0.572s2.563-0.19 3.802-0.572c30.236-9.322 57.775-25.185 77.543-44.665 4.84-4.767 9.227-9.771 13.177-14.978h268.24c7.128 0 12.903-5.777 12.903-12.903s-5.775-12.903-12.903-12.903h-253.07c6.629-15.237 10.051-31.644 10.051-48.793v-97.443h384.96v146.24h-90.322c-7.128 0-12.903 5.777-12.903 12.903s5.775 12.903 12.903 12.903h90.322v146.24z"/>
  <path d="m205.61 467.33c-7.182-2.762-14.731-4.162-22.437-4.162l-0.165 5e-3h-0.663l-0.258-0.611c-5-11.843-7.535-24.707-7.535-38.236v-158.66h189.88v158.66c0 13.532-2.535 26.396-7.535 38.236l-0.258 0.611h-0.686s-0.113-4e-3 -0.116-4e-3c-7.739 0-15.284 1.4-22.463 4.161l-0.766 0.294-0.438-0.693c-11.195-17.709-29.419-29.904-49.999-33.458l-0.906-0.156 0.08-0.916c0.03-0.346 0.053-0.692 0.053-1.046v-39.876h27.143c6.563 0 11.903-5.34 11.903-11.903s-5.34-11.903-11.903-11.903h-27.143v-24.683h12.134c6.563 0 11.903-5.34 11.903-11.903s-5.34-11.903-11.903-11.903h-12.134v-19.025c0-6.563-5.34-11.903-11.903-11.903s-11.903 5.34-11.903 11.903v19.025h-12.135c-6.563 0-11.903 5.34-11.903 11.903s5.339 11.903 11.903 11.903h12.135v24.682h-27.144c-6.563 0-11.903 5.34-11.903 11.903s5.34 11.903 11.903 11.903h27.144v39.876c0 0.354 0.022 0.7 0.053 1.046l0.08 0.916-0.906 0.156c-20.578 3.552-38.801 15.747-49.998 33.458l-0.438 0.693z" fill="#ed1f34"/>
  <path d="m363.43 266.67h-187.88v157.66c0 14.234 2.791 26.796 7.457 37.848 0.055 0 0.11-5e-3 0.165-5e-3 8.038 0 15.718 1.507 22.796 4.229 11.126-17.6 29.366-30.231 50.673-33.909-0.033-0.374-0.057-0.75-0.057-1.133v-38.876h-26.144c-7.128 0-12.903-5.777-12.903-12.903s5.775-12.903 12.903-12.903h26.144v-22.684h-11.135c-7.127 0-12.903-5.777-12.903-12.903s5.775-12.903 12.903-12.903h11.135v-18.025c0-7.126 5.775-12.903 12.903-12.903 7.127 0 12.903 5.777 12.903 12.903v18.025h11.134c7.128 0 12.903 5.777 12.903 12.903s-5.775 12.903-12.903 12.903h-11.134v22.682h26.143c7.128 0 12.903 5.777 12.903 12.903s-5.775 12.903-12.903 12.903h-26.143v38.876c0 0.383-0.024 0.759-0.057 1.133 21.308 3.68 39.548 16.31 50.674 33.909 7.079-2.722 14.76-4.229 22.797-4.229 0.056 0 0.108 5e-3 0.164 5e-3 4.667-11.052 7.456-23.611 7.456-37.848v-157.66z" fill="#ed1f34"/>
  <path d="m282.34 432.49c0.033-0.374 0.057-0.751 0.057-1.133v-38.876h26.143c7.128 0 12.903-5.777 12.903-12.903s-5.775-12.903-12.903-12.903h-26.143v-22.682h11.134c7.128 0 12.903-5.777 12.903-12.903s-5.775-12.903-12.903-12.903h-11.134v-18.025c0-7.126-5.776-12.903-12.903-12.903-7.128 0-12.903 5.777-12.903 12.903v18.025h-11.135c-7.127 0-12.903 5.777-12.903 12.903s5.775 12.903 12.903 12.903h11.135v22.682h-26.144c-7.128 0-12.903 5.777-12.903 12.903s5.775 12.903 12.903 12.903h26.144v38.876c0 0.382 0.024 0.759 0.057 1.133 4.177-0.722 8.461-1.133 12.847-1.133s8.668 0.411 12.845 1.133z" fill="#fff"/>
  <path d="m269.17 533.63c-19.982-6.684-68.469-26.989-87.085-71.071l-0.586-1.389h1.508l0.165-5e-3c7.68 0 15.208 1.348 22.391 4.007 11.531-17.814 30.04-30.069 50.908-33.673 4.407-0.762 8.787-1.147 13.017-1.147s8.61 0.386 13.017 1.147c20.869 3.602 39.378 15.855 50.909 33.673 7.182-2.659 14.71-4.007 22.39-4.007l1.562 0.068-0.477 1.325c-18.614 44.082-67.101 64.388-87.083 71.071l-0.317 0.106z" fill="#164fce"/>
  <path d="m333.01 466.4c-11.126-17.602-29.364-30.231-50.674-33.909-4.177-0.722-8.461-1.133-12.846-1.133s-8.669 0.411-12.847 1.133c-21.307 3.68-39.547 16.31-50.673 33.909-7.078-2.722-14.76-4.229-22.796-4.229-0.055 0-0.11 5e-3 -0.165 5e-3 18.297 43.327 65.445 63.476 86.481 70.512 21.036-7.036 68.184-27.185 86.479-70.512-0.055 0-0.108-5e-3 -0.163-5e-3 -8.037 1e-3 -15.718 1.508-22.796 4.229z" fill="#164fce"/>
 </g>
 <g transform="matrix(.097962 0 0 .097962 346.32 272.8)">
  <path d="m632.26 326.88h-606.45v146.24h748.39v-146.24h-90.322c-7.128 0-12.903-5.777-12.903-12.903h-25.807c-1e-3 7.125-5.776 12.903-12.904 12.903z" fill="#fff"/>
  <path d="m644.16 314.98v-1c0-6.563-5.34-11.903-11.903-11.903h-607.45v-148.24h750.39v148.24h-91.322c-6.563 0-11.903 5.34-11.903 11.903v1h-27.808z" fill="#b21727"/>
  <path d="m632.26 301.08c7.128 0 12.903 5.777 12.903 12.903h25.807c0-7.126 5.775-12.903 12.903-12.903h90.322v-146.24h-748.39v146.24z" fill="#b21727"/>
  <rect x="24.807" y="497.92" width="750.39" height="148.24" fill="#103b9b"/>
  <rect x="25.807" y="498.92" width="748.39" height="146.24" fill="#103b9b"/>
  <path d="m787.1 129.03h-774.19c-7.126 0-12.903 5.778-12.903 12.904v516.13c0 7.126 5.777 12.903 12.903 12.903h774.19c7.128 0 12.903-5.777 12.903-12.903v-516.13c1e-3 -7.126-5.774-12.904-12.902-12.904zm-12.904 25.807v146.24h-90.322c-7.128 0-12.903 5.777-12.903 12.903s5.775 12.903 12.903 12.903h90.322v146.24h-748.39v-146.24h606.45c7.128 0 12.903-5.777 12.903-12.903s-5.775-12.903-12.903-12.903h-606.45v-146.24zm-748.39 490.32v-146.24h748.39v146.24z"/>
 </g>
 <g transform="matrix(.097962 0 0 .097962 202.04 280.94)">
  <g fill="#164fce">
   <path d="m24.807 474.12v-148.24h125.94v98.443c0 16.91 3.354 33.191 9.969 48.394l0.609 1.399z"/>
   <path d="m25.807 326.88v146.24h133.99c-6.63-15.237-10.052-31.644-10.052-48.793v-97.443z"/>
   <path d="m644.16 487.02v-1c0-6.563-5.34-11.903-11.903-11.903h-254.6l0.608-1.399c6.614-15.203 9.968-31.485 9.968-48.394v-98.443h386.96v148.24h-91.322c-6.563 0-11.903 5.34-11.903 11.903v1z"/>
   <path d="m683.87 473.12h90.322v-146.24h-384.96v97.443c0 17.149-3.422 33.556-10.051 48.793h253.07c7.128 0 12.903 5.777 12.903 12.903h25.807c1e-3 -7.125 5.776-12.903 12.904-12.903z"/>
  </g>
  <path d="m24.807 646.16v-148.24h150.66l0.3 0.396c3.946 5.204 8.348 10.207 13.082 14.869 19.655 19.37 47.05 35.146 77.136 44.422 1.136 0.351 2.316 0.528 3.507 0.528s2.371-0.178 3.508-0.528c30.088-9.277 57.482-25.053 77.136-44.421 4.725-4.653 9.126-9.656 13.082-14.87l0.3-0.396h268.74c6.563 0 11.903-5.34 11.903-11.903v-1h27.807v1c0 6.563 5.34 11.903 11.903 11.903h91.322v148.24z" fill="#ed1f34"/>
  <path d="m683.87 498.92c-7.128 0-12.903-5.777-12.903-12.903h-25.807c0 7.126-5.775 12.903-12.903 12.903h-268.24c-3.95 5.206-8.337 10.211-13.177 14.978-19.768 19.48-47.307 35.342-77.543 44.665-1.239 0.382-2.521 0.572-3.802 0.572s-2.563-0.19-3.802-0.572c-30.237-9.322-57.776-25.185-77.543-44.665-4.839-4.767-9.229-9.771-13.177-14.978h-149.16v146.24h748.39v-146.24z" fill="#ed1f34"/>
  <path d="m149.75 301.08v-47.312c0-7.126 5.775-12.903 12.903-12.903h213.68c7.128 0 12.903 5.777 12.903 12.903v47.312h384.96v-146.24h-748.39v146.24z" fill="#fff"/>
  <path d="m787.1 129.03h-774.19c-7.128 0-12.903 5.778-12.903 12.904v516.13c0 7.126 5.775 12.903 12.903 12.903h774.19c7.128 0 12.903-5.777 12.903-12.903v-516.13c1e-3 -7.126-5.774-12.904-12.902-12.904zm-12.904 25.807v146.24h-384.96v-47.312c0-7.126-5.775-12.903-12.903-12.903h-213.68c-7.128 0-12.903 5.777-12.903 12.903v47.312h-123.94v-146.24zm-410.76 269.49c0 14.234-2.79 26.796-7.456 37.848-18.297 43.327-65.445 63.476-86.479 70.512-21.037-7.036-68.186-27.185-86.48-70.512-4.668-11.052-7.457-23.611-7.457-37.848v-157.66h187.88v157.66h-3e-3zm-203.63 48.793h-133.99v-146.24h123.94v97.443c0 17.15 3.422 33.556 10.052 48.793zm-133.99 172.04v-146.24h149.16c3.95 5.206 8.339 10.211 13.177 14.978 19.768 19.48 47.307 35.342 77.543 44.665 1.239 0.382 2.521 0.572 3.802 0.572s2.563-0.19 3.802-0.572c30.236-9.322 57.775-25.185 77.543-44.665 4.84-4.767 9.227-9.771 13.177-14.978h268.24c7.128 0 12.903-5.777 12.903-12.903s-5.775-12.903-12.903-12.903h-253.07c6.629-15.237 10.051-31.644 10.051-48.793v-97.443h384.96v146.24h-90.322c-7.128 0-12.903 5.777-12.903 12.903s5.775 12.903 12.903 12.903h90.322v146.24z"/>
  <path d="m205.61 467.33c-7.182-2.762-14.731-4.162-22.437-4.162l-0.165 5e-3h-0.663l-0.258-0.611c-5-11.843-7.535-24.707-7.535-38.236v-158.66h189.88v158.66c0 13.532-2.535 26.396-7.535 38.236l-0.258 0.611h-0.686s-0.113-4e-3 -0.116-4e-3c-7.739 0-15.284 1.4-22.463 4.161l-0.766 0.294-0.438-0.693c-11.195-17.709-29.419-29.904-49.999-33.458l-0.906-0.156 0.08-0.916c0.03-0.346 0.053-0.692 0.053-1.046v-39.876h27.143c6.563 0 11.903-5.34 11.903-11.903s-5.34-11.903-11.903-11.903h-27.143v-24.683h12.134c6.563 0 11.903-5.34 11.903-11.903s-5.34-11.903-11.903-11.903h-12.134v-19.025c0-6.563-5.34-11.903-11.903-11.903s-11.903 5.34-11.903 11.903v19.025h-12.135c-6.563 0-11.903 5.34-11.903 11.903s5.339 11.903 11.903 11.903h12.135v24.682h-27.144c-6.563 0-11.903 5.34-11.903 11.903s5.34 11.903 11.903 11.903h27.144v39.876c0 0.354 0.022 0.7 0.053 1.046l0.08 0.916-0.906 0.156c-20.578 3.552-38.801 15.747-49.998 33.458l-0.438 0.693z" fill="#ed1f34"/>
  <path d="m363.43 266.67h-187.88v157.66c0 14.234 2.791 26.796 7.457 37.848 0.055 0 0.11-5e-3 0.165-5e-3 8.038 0 15.718 1.507 22.796 4.229 11.126-17.6 29.366-30.231 50.673-33.909-0.033-0.374-0.057-0.75-0.057-1.133v-38.876h-26.144c-7.128 0-12.903-5.777-12.903-12.903s5.775-12.903 12.903-12.903h26.144v-22.684h-11.135c-7.127 0-12.903-5.777-12.903-12.903s5.775-12.903 12.903-12.903h11.135v-18.025c0-7.126 5.775-12.903 12.903-12.903 7.127 0 12.903 5.777 12.903 12.903v18.025h11.134c7.128 0 12.903 5.777 12.903 12.903s-5.775 12.903-12.903 12.903h-11.134v22.682h26.143c7.128 0 12.903 5.777 12.903 12.903s-5.775 12.903-12.903 12.903h-26.143v38.876c0 0.383-0.024 0.759-0.057 1.133 21.308 3.68 39.548 16.31 50.674 33.909 7.079-2.722 14.76-4.229 22.797-4.229 0.056 0 0.108 5e-3 0.164 5e-3 4.667-11.052 7.456-23.611 7.456-37.848v-157.66z" fill="#ed1f34"/>
  <path d="m282.34 432.49c0.033-0.374 0.057-0.751 0.057-1.133v-38.876h26.143c7.128 0 12.903-5.777 12.903-12.903s-5.775-12.903-12.903-12.903h-26.143v-22.682h11.134c7.128 0 12.903-5.777 12.903-12.903s-5.775-12.903-12.903-12.903h-11.134v-18.025c0-7.126-5.776-12.903-12.903-12.903-7.128 0-12.903 5.777-12.903 12.903v18.025h-11.135c-7.127 0-12.903 5.777-12.903 12.903s5.775 12.903 12.903 12.903h11.135v22.682h-26.144c-7.128 0-12.903 5.777-12.903 12.903s5.775 12.903 12.903 12.903h26.144v38.876c0 0.382 0.024 0.759 0.057 1.133 4.177-0.722 8.461-1.133 12.847-1.133s8.668 0.411 12.845 1.133z" fill="#fff"/>
  <path d="m269.17 533.63c-19.982-6.684-68.469-26.989-87.085-71.071l-0.586-1.389h1.508l0.165-5e-3c7.68 0 15.208 1.348 22.391 4.007 11.531-17.814 30.04-30.069 50.908-33.673 4.407-0.762 8.787-1.147 13.017-1.147s8.61 0.386 13.017 1.147c20.869 3.602 39.378 15.855 50.909 33.673 7.182-2.659 14.71-4.007 22.39-4.007l1.562 0.068-0.477 1.325c-18.614 44.082-67.101 64.388-87.083 71.071l-0.317 0.106z" fill="#164fce"/>
  <path d="m333.01 466.4c-11.126-17.602-29.364-30.231-50.674-33.909-4.177-0.722-8.461-1.133-12.846-1.133s-8.669 0.411-12.847 1.133c-21.307 3.68-39.547 16.31-50.673 33.909-7.078-2.722-14.76-4.229-22.796-4.229-0.055 0-0.11 5e-3 -0.165 5e-3 18.297 43.327 65.445 63.476 86.481 70.512 21.036-7.036 68.184-27.185 86.479-70.512-0.055 0-0.108-5e-3 -0.163-5e-3 -8.037 1e-3 -15.718 1.508-22.796 4.229z" fill="#164fce"/>
 </g>
 <g transform="matrix(.097962 0 0 .097962 283.1 433.78)">
  <path d="m644.16 487.02v-1c0-6.563-5.34-11.903-11.903-11.903h-607.45v-148.24h750.39v148.24h-91.322c-6.563 0-11.903 5.34-11.903 11.903v1z" fill="#ed1f34"/>
  <path d="m683.87 473.12h90.322v-146.24h-748.39v146.24h606.45c7.128 0 12.903 5.777 12.903 12.903h25.807c0-7.125 5.775-12.903 12.903-12.903z" fill="#ed1f34"/>
  <path d="m24.807 646.16v-148.24h607.45c6.563 0 11.903-5.34 11.903-11.903v-1h27.807v1c0 6.563 5.34 11.903 11.903 11.903h91.322v148.24z" fill="#ffe000"/>
  <path d="m683.87 498.92c-7.128 0-12.903-5.777-12.903-12.903h-25.807c0 7.126-5.775 12.903-12.903 12.903h-606.45v146.24h748.39v-146.24z" fill="#ffe000"/>
  <rect x="24.807" y="153.84" width="750.39" height="148.24" fill="#333"/>
  <rect x="25.807" y="154.84" width="748.39" height="146.24" fill="#333"/>
  <path d="m787.1 129.03h-774.19c-7.126 0-12.903 5.778-12.903 12.904v516.13c0 7.126 5.777 12.903 12.903 12.903h774.19c7.128 0 12.903-5.777 12.903-12.903v-516.13c1e-3 -7.126-5.774-12.904-12.902-12.904zm-12.904 25.807v146.24h-748.39v-146.24zm-748.39 490.32v-146.24h606.45c7.128 0 12.903-5.777 12.903-12.903s-5.775-12.903-12.903-12.903h-606.45v-146.24h748.39v146.24h-90.322c-7.128 0-12.903 5.777-12.903 12.903s5.775 12.903 12.903 12.903h90.322v146.24h-748.39z"/>
 </g>
 <g transform="matrix(.097962 0 0 .097962 134.88 426.14)">
  <g fill="#103b9b">
   <polygon points="24.807 331.32 24.807 232.41 173.18 331.32"/>
   <polygon points="25.807 234.28 25.807 330.32 169.87 330.32"/>
   <polygon points="154.57 153.84 331.32 153.84 331.32 271.68"/>
   <polygon points="330.32 154.84 157.87 154.84 330.32 269.81"/>
   <polygon points="24.807 468.68 173.18 468.68 24.807 567.59"/>
   <polygon points="25.807 469.68 25.807 565.72 169.87 469.68"/>
   <polygon points="468.68 153.84 645.43 153.84 468.68 271.68"/>
   <polygon points="642.13 154.84 469.68 154.84 469.68 269.81"/>
   <polygon points="626.82 331.32 775.19 232.41 775.19 331.32"/>
   <polygon points="774.19 330.32 774.19 234.28 630.13 330.32"/>
   <polygon points="154.57 646.16 331.32 528.32 331.32 646.16"/>
   <polygon points="157.87 645.16 330.32 645.16 330.32 530.19"/>
   <polygon points="626.82 468.68 775.19 468.68 775.19 567.59"/>
   <polygon points="774.19 565.72 774.19 469.68 630.13 469.68"/>
   <polygon points="468.68 646.16 468.68 528.32 645.43 646.16"/>
   <polygon points="469.68 645.16 642.13 645.16 469.68 530.19"/>
  </g>
  <polygon points="660.74 154.84 642.13 154.84 469.68 269.81 469.68 154.84 450.32 154.84 450.32 349.68 774.19 349.68 774.19 330.32 630.13 330.32 774.19 234.28 774.19 166.04 527.78 330.32 481.25 330.32 469.68 330.32 469.68 313.24 469.68 282.23" fill="#fff"/>
  <polygon points="139.26 645.16 157.87 645.16 330.32 530.19 330.32 645.16 349.68 645.16 349.68 450.32 25.807 450.32 25.807 469.68 169.87 469.68 25.807 565.72 25.807 633.95 272.22 469.68 318.75 469.68 330.32 469.68 330.32 486.77 330.32 517.79" fill="#fff"/>
  <g fill="#ed1f34">
   <polygon points="52.217 646.16 318.44 468.68 331.32 468.68 331.32 487.3 93.041 646.16"/>
   <polygon points="318.75 469.68 55.52 645.16 92.738 645.16 330.32 486.77 330.32 469.68"/>
   <polygon points="275.52 331.32 234.13 331.32 24.807 191.44 24.807 164.18"/>
   <polygon points="272.22 330.32 25.807 166.04 25.807 190.91 234.43 330.32"/>
   <polygon points="775.19 635.82 524.48 468.68 564.03 468.68 775.19 609.79"/>
   <polygon points="527.78 469.68 774.19 633.95 774.19 610.32 563.72 469.68"/>
   <polygon points="468.68 331.32 468.68 312.71 706.96 153.84 747.78 153.84 481.56 331.32"/>
   <polygon points="481.25 330.32 744.48 154.84 707.26 154.84 469.68 313.24 469.68 330.32"/>
  </g>
  <path d="m800 657.98v-54.572-0.062-461.32-0.039-0.045c0-0.076-0.011-0.15-0.012-0.226-6e-3 -0.348-0.02-0.693-0.054-1.041-0.014-0.148-0.041-0.291-0.061-0.436-0.036-0.272-0.07-0.545-0.125-0.815-0.038-0.189-0.09-0.374-0.136-0.561-0.054-0.22-0.104-0.44-0.169-0.659-0.069-0.227-0.153-0.446-0.232-0.666-0.063-0.172-0.118-0.346-0.189-0.516-0.111-0.27-0.239-0.53-0.368-0.79-0.059-0.119-0.108-0.237-0.17-0.354-0.178-0.33-0.37-0.65-0.573-0.963-0.027-0.043-0.05-0.088-0.077-0.131-2e-3 -3e-3 -5e-3 -7e-3 -9e-3 -0.01-0.241-0.359-0.497-0.708-0.772-1.042-0.125-0.153-0.265-0.289-0.396-0.435-0.146-0.162-0.287-0.331-0.442-0.485-0.217-0.217-0.447-0.417-0.678-0.616-0.084-0.072-0.162-0.153-0.249-0.224-0.221-0.181-0.451-0.344-0.682-0.509-0.11-0.08-0.217-0.167-0.33-0.243-0.2-0.134-0.408-0.251-0.614-0.374-0.158-0.094-0.313-0.194-0.475-0.28-0.164-0.088-0.334-0.162-0.503-0.243-0.215-0.103-0.427-0.21-0.646-0.303-0.126-0.052-0.255-0.093-0.382-0.14-0.267-0.1-0.532-0.201-0.806-0.285-0.1-0.031-0.201-0.05-0.303-0.078-0.301-0.083-0.602-0.167-0.91-0.227-0.138-0.027-0.276-0.04-0.414-0.063-0.298-0.05-0.596-0.1-0.9-0.127-0.398-0.038-0.8-0.06-1.202-0.06-9e-3 -2e-3 -0.018-2e-3 -0.024-2e-3h-83.654-0.045-690.5-0.021c-0.403 2e-3 -0.805 0.022-1.206 0.06-0.351 0.033-0.695 0.088-1.038 0.148-0.091 0.016-0.183 0.024-0.272 0.042-0.337 0.067-0.666 0.155-0.993 0.248-0.072 0.021-0.146 0.035-0.218 0.057-0.296 0.089-0.583 0.198-0.871 0.308-0.105 0.04-0.213 0.072-0.316 0.117-0.241 0.1-0.473 0.215-0.706 0.33-0.146 0.072-0.298 0.136-0.442 0.213-0.184 0.098-0.359 0.21-0.538 0.318-0.184 0.11-0.372 0.215-0.552 0.335-0.136 0.091-0.262 0.193-0.394 0.288-0.208 0.151-0.42 0.299-0.621 0.464-0.108 0.088-0.207 0.188-0.312 0.279-0.208 0.182-0.42 0.363-0.618 0.561-0.189 0.188-0.361 0.391-0.539 0.59-0.1 0.114-0.207 0.217-0.303 0.333-0.275 0.334-0.532 0.682-0.772 1.041-3e-3 5e-3 -7e-3 9e-3 -0.01 0.014-0.033 0.05-0.059 0.104-0.091 0.153-0.198 0.306-0.389 0.618-0.561 0.939-0.065 0.12-0.117 0.246-0.177 0.368-0.126 0.256-0.253 0.511-0.361 0.776-0.072 0.174-0.129 0.351-0.193 0.526-0.079 0.218-0.162 0.434-0.23 0.657-0.067 0.22-0.115 0.44-0.17 0.663-0.046 0.186-0.098 0.368-0.134 0.557-0.053 0.272-0.089 0.545-0.125 0.819-0.019 0.145-0.046 0.288-0.06 0.434-0.035 0.348-0.046 0.695-0.053 1.041 4e-3 0.075-6e-3 0.149-6e-3 0.225v0.045 0.039 55.811 0.044 460.1 0.04 0.044c0 0.076 0.01 0.15 0.012 0.226 5e-3 0.348 0.019 0.693 0.053 1.041 0.014 0.146 0.041 0.289 0.06 0.436 0.036 0.273 0.071 0.545 0.125 0.817 0.038 0.188 0.09 0.373 0.136 0.561 0.053 0.22 0.103 0.44 0.168 0.659 0.069 0.225 0.151 0.441 0.232 0.662 0.063 0.174 0.119 0.35 0.191 0.521 0.11 0.268 0.239 0.526 0.366 0.784 0.059 0.119 0.108 0.239 0.172 0.357 0.177 0.331 0.37 0.65 0.573 0.964 0.027 0.043 0.05 0.088 0.078 0.131 1e-3 3e-3 5e-3 7e-3 7e-3 0.01 0.278 0.417 0.585 0.811 0.908 1.191 0.1 0.118 0.207 0.227 0.31 0.342 0.224 0.246 0.458 0.481 0.699 0.709 0.134 0.126 0.268 0.249 0.406 0.368 0.256 0.22 0.523 0.427 0.797 0.628 0.115 0.084 0.224 0.176 0.34 0.255 0.389 0.265 0.792 0.507 1.209 0.73 0.1 0.054 0.203 0.097 0.305 0.146 0.335 0.167 0.676 0.322 1.027 0.461 0.133 0.052 0.265 0.099 0.397 0.146 0.332 0.119 0.669 0.222 1.012 0.313 0.136 0.036 0.272 0.073 0.41 0.104 0.354 0.081 0.714 0.145 1.079 0.196 0.125 0.018 0.25 0.043 0.375 0.057 0.459 0.052 0.926 0.083 1.399 0.084 0.022 0 0.044 4e-3 0.068 4e-3h0.018 83.623 0.053 690.46c5e-3 0 0.013 2e-3 0.018 2e-3 0.022 0 0.045-4e-3 0.067-4e-3 0.473-2e-3 0.938-0.032 1.398-0.084 0.124-0.014 0.246-0.04 0.369-0.057 0.367-0.052 0.73-0.115 1.086-0.198 0.135-0.031 0.269-0.067 0.402-0.104 0.348-0.093 0.688-0.197 1.022-0.316 0.131-0.046 0.26-0.091 0.389-0.143 0.356-0.14 0.702-0.298 1.041-0.466 0.097-0.049 0.196-0.09 0.292-0.142 0.42-0.224 0.824-0.468 1.215-0.732 0.113-0.078 0.221-0.167 0.33-0.248 0.277-0.201 0.548-0.411 0.806-0.635 0.138-0.119 0.271-0.241 0.402-0.365 0.244-0.229 0.477-0.466 0.704-0.712 0.103-0.113 0.208-0.222 0.308-0.339 0.323-0.38 0.63-0.775 0.908-1.19 2e-3 -4e-3 5e-3 -7e-3 7e-3 -0.011 0.029-0.043 0.05-0.087 0.078-0.13 0.203-0.313 0.396-0.632 0.572-0.964 0.063-0.117 0.112-0.237 0.171-0.354 0.129-0.26 0.256-0.52 0.368-0.79 0.07-0.17 0.125-0.344 0.188-0.516 0.081-0.221 0.164-0.44 0.232-0.666 0.065-0.219 0.115-0.438 0.169-0.657 0.047-0.188 0.098-0.371 0.136-0.563 0.054-0.27 0.09-0.544 0.124-0.815 0.019-0.146 0.047-0.289 0.062-0.437 0.035-0.346 0.047-0.693 0.054-1.039 2e-3 -0.076 0.012-0.15 0.012-0.226v-0.045c4e-3 -0.014 4e-3 -0.028 4e-3 -0.041zm-330.32-344.74 237.58-158.4h37.219l-263.23 175.48h46.524l246.42-164.28v183.63h-323.87v-194.84h210.42l-191.06 127.39zm-120 36.433h-323.87v-127.73l162.18 108.38h46.446l-208.62-139.42v-24.86l246.42 164.28h46.524l-263.23-175.48h294.16v194.84zm-19.356 137.09-237.58 158.39h-37.218l263.23-175.48h-46.524l-246.42 164.28v-183.63h323.87v194.84h-210.42l191.06-127.38v-31.017zm120-36.448h233.55c7.128 0 12.903-5.777 12.903-12.903s-5.775-12.902-12.903-12.902h-246.45c-7.127 0-12.903 5.776-12.903 12.902v207.74h-49.031v-207.74c0-7.126-5.776-12.902-12.903-12.902h-336.78v-49.033h336.77c7.127 0 12.903-5.777 12.903-12.903v-207.74h49.031v207.74c0 7.126 5.776 12.903 12.903 12.903h336.77v49.033h-38.709c-7.128 0-12.903 5.776-12.903 12.902s5.775 12.903 12.903 12.903h38.709v128.96l-164.02-109.61h-46.448l210.47 140.64v23.631l-246.42-164.28h-46.524l263.23 175.48h-294.16v-194.84z"/>
  <polygon points="330.32 269.81 157.87 154.84 55.52 154.84 318.75 330.32 272.22 330.32 234.43 330.32 187.98 330.32 25.807 221.94 25.807 234.28 169.87 330.32 25.807 330.32 25.807 349.68 349.68 349.68 349.68 154.84 330.32 154.84" fill="#fff"/>
  <path d="m469.68 530.19 172.45 114.97h102.35l-263.23-175.48h128.92l164.02 109.61v-13.565l-144.06-96.043h144.06v-19.355h-38.709c-7.128 0-12.903-5.777-12.903-12.903h-25.807c0 7.126-5.775 12.903-12.903 12.903h-233.55v194.84h19.355v-114.97z" fill="#fff"/>
  <path d="m374.48 646.16v-208.74c0-6.563-5.34-11.902-11.903-11.902h-337.77v-51.033h337.77c6.563 0 11.903-5.34 11.903-11.903v-208.74h51.031v208.74c0 6.563 5.34 11.903 11.903 11.903h337.77v51.033h-39.709c-6.563 0-11.903 5.339-11.903 11.902v1h-27.807v-1c0-6.563-5.34-11.902-11.903-11.902h-246.45c-6.563 0-11.903 5.339-11.903 11.902v208.74z" fill="#ed1f34"/>
  <path d="m722.58 437.42c0-7.126 5.775-12.902 12.903-12.902h38.709v-49.033h-336.77c-7.127 0-12.903-5.777-12.903-12.903v-207.74h-49.031v207.74c0 7.126-5.776 12.903-12.903 12.903h-336.78v49.033h336.77c7.127 0 12.903 5.776 12.903 12.902v207.74h49.031v-207.74c0-7.126 5.776-12.902 12.903-12.902h246.45c7.128 0 12.903 5.776 12.903 12.902z" fill="#ed1f34"/>
 </g>
 <g fill="none" stroke="#000">
  <g stroke-width="2.595">
   <path d="m67.92 55.694c7.1852-11.94 19.236-20.595 32.952-20.595"/>
   <path d="m198.91 30.156c1.4578 3.3029 55.993 18.896 56.019 18.948" stroke-dasharray="7.78501, 2.59501"/>
   <path d="m348.02 54.046c8.139 0.073 51.9 4.5014 51.9 9.8857"/>
   <path d="m449.34 97.708c-4.3262 6.7978 4.9001 27.228-1.6476 33.776-1.8946 1.8946-3.9382 2.9336-4.9428 4.9429" stroke-dasharray="7.78501, 2.59501"/>
   <path d="m380.14 175.97c-19.963 7.802-40.071 6.5905-60.962 6.5905"/>
  </g>
  <g stroke-dasharray="7.78501, 2.59501" stroke-width="2.595">
   <path d="m208.79 183.38c-17.904 2.3875-33.019 9.5072-46.957 16.476"/>
   <path d="m120.64 307.78c20.355 2.7894 33.288 11.371 51.076 17.3 5.9955 1.9985 15.698 0 22.243 0"/>
   <path d="m272.23 475.84c-14.675-1.9768-36.761 3.4507-48.605-2.4714"/>
  </g>
  <g>
   <path d="m123.12 467.6c-28.649 2.6684-44.009-3.6426-59.314-18.948" stroke-width="2.595"/>
   <path d="m293.31 322.04c14.309 1.229 26.134-6.0476 40.065-6.0476" stroke-width="2.595"/>
   <path d="m439.96 458.86c-9.0495 21.697-34.929 20.411-56.696 20.411" stroke-width="2.595"/>
  </g>
  <path d="m442.23 315.23c22.341 12.094 18.899 44.443 18.899 66.524" stroke-dasharray="7.78510039,2.59503346" stroke-width="2.595"/>
  <path d="m55.94 219.23c-13.983 9.8552-13.175 31.859-6.8036 44.601" stroke-width="2.595"/>
 </g>
</svg>
