<?xml version="1.0" encoding="UTF-8"?>
<!-- Created with Inkscape (http://www.inkscape.org/) -->
<svg width="1e3" height="727.22" version="1.1" viewBox="0 0 264.58 192.41" xmlns="http://www.w3.org/2000/svg">
 <g transform="translate(-3.9e-5)">
  <path transform="translate(75.897 -34.861)" d="m123.78 36.718-0.51693 0.77796-2.6504-0.53109-2.5554 0.09223-1.8596-1.2694-0.46286 0.57312-1.2007-0.89289-0.96567 0.08465-0.17542-0.40266-0.86621-0.0276-0.53282 0.49189-0.36836-0.75298-1.0184 0.12386v1.1405l-0.70746 0.39329-0.61928-0.29565-0.76661 0.62431-0.70938-0.44038-0.98576-0.90877-0.7716 1.4113-0.83496 0.26677-0.49035-0.57197-1.2447 0.89078 0.17473 0.49536-1.0843-0.26087 0.30713 1.0564-1.531-0.11116-1.8217 0.83432 0.46096 1.0146-0.67775 0.27192-0.1354 0.49726 0.62896 0.58214 0.0093 0.37611h-0.50514l0.32371 1.7065 1.155 0.18294-1.0885 0.71587 0.24932 1.6159 0.66424 0.21707 0.26773 1.6319 0.56792 0.20343 1.0393 0.34604 0.5002 0.47685 0.54643 0.01572 0.47715-0.65365 0.13356-0.61023 0.85639-0.04311 0.2769 0.61481-0.52698 0.95378 0.076 1.9461-0.74326 1.6905 0.0845 1.2738-1e-5 1.2269 0.21775 0.12039 0.20434 2.9003-0.33419 1.2906-1.0938 0.99232-1.2596 0.67038-1.2989 0.39717-0.91765-0.81996-1.0085-0.22464-0.65551-2.0089-0.30652-0.9508-0.81279-0.35806-0.59759-0.92156-0.73116-0.33288-0.63622-1.0588v-0.97528l-0.25648-0.26665-2.9857 1.6642-1.612 0.08767-0.70854 1.7727-0.8358 1.1054 0.04972 2.6893-1.9318 1.7053 0.02683 1.4792-0.54706 3.4046 0.22622 1.323 0.26158 1.1564 0.31682 3.8232-0.03175 0.73921 0.49696 0.32854 0.20149 1.2304-0.05833 1.188 0.36043 0.46818-0.81326 1.0874 0.46907 1.6476-0.17542 0.54379h-0.7859l-2.4177-0.26298 0.3267-0.5762-0.86959 0.0029-0.48198 0.55348-2.5462-0.06975 0.14235 1.9427 0.89841 0.61523 1.3841-0.02087-1.4692 0.91164-0.55243-0.08763-0.53959 1.0221-0.4951-0.02857-0.50464 0.64235-0.12428 0.25998-0.90065 0.45166-0.76735 0.64585-0.7252-0.554 0.42696-0.53964-1.9756 0.14109-0.94961-0.07505-0.85611-0.67176v-1.421l-0.69069-0.52412 0.08408-0.39757-0.38851-0.25592 0.0735-0.70604-0.61343-0.39381-2.5236 0.12912-2.2676 0.58729-1.9745 0.69028-0.53244 0.79963-1.496 0.35764-0.43864 0.08737-0.89307 0.69149-1.2852 1.6325-0.78128 0.42008-1.8004 0.3189-1.2998 0.52091-0.90557 0.20313-1.2726 0.38663-2.0347 0.59288-1.5418 0.16847-1.4994-0.12531-0.52842-0.38516-1.1454-0.56639-0.37887-0.31798-0.70644 0.30555-0.62481-0.06895-0.54703-0.35426-0.17425-0.55174-0.56841-0.23429-0.44444-0.48278-0.02962-0.496-0.44042-0.42566-0.34981 0.01183-0.40396 0.47495-0.33098 0.01031-0.19619-0.349 0.35623-0.16353-0.41504-0.27642-0.58115 0.08047-0.44137-0.03115-0.3819-0.12166-0.1699 0.49166-0.23462 0.31771 0.46286 0.02513 0.46922-0.02951-0.30497 0.27521-0.60958 0.34809-0.77431 0.28726-0.91288 0.62937-0.47776 0.26209-0.78076 0.13109-0.91589 0.01044-0.35032 0.4174-0.25447 0.68048-0.72332 0.28178-0.4158-0.0785-0.02467 0.20897 0.41275 0.13538v0.35542l-0.22787 0.04283-0.22154-0.2233-0.62627-0.03742-0.30402-0.44953-0.62507 0.0235-0.94489 0.48389-0.47625-0.61966 0.6895-0.70613 0.79676-0.89016-0.07248-1.4486-0.43062-0.33234-0.49985 0.23645-0.65292 0.49868h-0.31037l-0.59265-0.49216-0.807-0.31031-0.3368-0.20607-0.63102 0.17308-0.49232-0.05637-0.10152-0.69073-1.6706 0.26325 1.0176-0.90509-0.08345-0.62108 0.10336-0.62211-0.38237-0.76031-0.4346 0.16261-0.71361-0.34419-0.69729-0.25398h-0.67809l-0.22043-0.12675 0.84648-0.35048 0.6069 0.21477-7.03e-4 -0.36836 0.44411-0.1065 1.317 0.27285 0.06542-0.18052-0.37116-0.78894-0.27202-0.35348-0.87387-0.55633-0.45045-0.07572-0.34591 0.43511-0.91957 0.06755 0.48518-0.6054-0.3147-0.49737 0.5038-0.54282h0.50856l-0.24346-1.431-0.07379-0.37531 0.09078-0.73375 1.017-0.40696 0.86499-0.88321 0.27979-0.65716v-0.74732l-0.16394-0.60608-0.30549-0.06194 0.19103-0.29098 0.58755-0.09905 0.35296 0.31795 0.40339-0.55801 0.33391-1.5729-0.35862-0.76024 0.43471-0.72483 0.28459-0.55597 0.33842 0.29707-0.15547 0.66157 0.53295 0.18561 0.3572-0.46008 0.52388 0.08338 1.0068-0.92631 0.52098-1.1529-0.07063-0.45814-0.50478-0.53208-0.30386-0.06264-0.90337 0.04432-0.71997 0.07493-0.68446-0.35577-0.09584-0.54703 0.25242-0.46293-0.5295-1.3997 0.07904-1.4566-0.10042-0.61258 0.46593-0.34132 0.31049-0.80876 0.06073-0.40062 0.55454-0.32731 0.18039-2.2813-0.56005-1.0394-0.19611-0.35217 0.21875-0.59948 0.69502-1.068-0.32692-0.08819-0.92782 0.83479-0.3437 0.49302-1.1564 0.18475h-0.78292l-1.0636 1.5768-0.01989 0.3581-1.2335 1.7708-0.97365 0.66635-1.0935 0.19952-0.29729-0.20912-0.44787 0.0074-0.57106 0.40559-0.9788 0.01508-0.36684-0.02955-0.45698 0.01371-0.63022 1.0234-0.61666 0.71889-0.52479 0.99733 0.52426 1.2674 0.83059 0.72942 0.62192-0.02307 0.55408 0.58591 0.28698 0.6857-0.7638 0.11024-0.20985-0.7528-0.57538 0.20486-0.95999-0.41658-0.30282-0.2203-0.63089 0.28903 0.10494 1.1993 0.62769 1.053-0.73166 0.53193 0.29769 1.1493-0.34395 0.95398 1.0495 0.08972 0.32527 1.5536-0.26866 0.40036-0.5151-0.49553-0.29375 0.78754v0.99627l-0.33293 1.2751-0.1204 0.46906 1.0673 0.63669 0.21075-0.91537 0.85936 0.80802 0.9037 0.88609 0.12457 0.95618 0.18737 1.3301-0.35519 2.0282-0.18769 0.98579 0.57631 0.38124 0.84219 1.8753-0.2253 0.60564 0.31196 0.40706h0.49095l-0.74815 0.52564-0.95184 0.05608 0.0542 0.65996-0.53555 0.15268 0.48021 0.40861 1.0473-0.13768-0.07046 1.3043 0.56238 0.18327 0.28672 0.60607-0.6673 0.08602-0.07655 0.44283-0.38328-0.0067-0.26782 1.1884-0.63234-0.13311-0.64655 1.6615 0.39995 1.203-0.31032 0.20283-0.82161-0.81869-0.72026 0.44597 0.50145 0.89577-0.26534 0.44492-0.70509-0.36283 0.37577-0.81409-0.79963-1.2137-0.62956-0.22915-1.7811 0.14233-1.8774 0.23234-0.81685 0.68449-0.23582 0.74313-0.18491 0.85032 0.17235 0.68857 0.92991 0.28997 0.25331 0.40832-0.50951 0.12838-0.43265-0.37182-0.56964-0.15785-0.40192-1.0525-0.67952-0.31638-4.6145 0.49916-1.9761 1.1084-0.56872 0.70932-0.29046 0.67208 0.00883 1.5215 0.39244 1.3645 0.86493-0.0237-0.47883 1.2643-0.26759 1.1163-1.0971 0.84267-0.87126 0.467-0.03585-0.35384-0.12637-1.025 0.68082-0.79815 0.80172-0.74796-0.48163-0.40355-0.46297-0.0295-0.2218-0.53652-0.42198-1.0005-0.63506 0.31592h-0.6131l-0.16363-0.3492-0.54758 0.31023v0.55142l-0.58708 3.1887-0.57588 1.5835-1.0501 1.6524-2.062 1.9096 0.16484 0.95502 0.83223 0.21113 0.37788 0.58322-0.3153 0.168-0.64619-0.55056-1.2536 0.0302-0.25542 0.34316 0.27916 0.12127h0.43228l0.71936 0.55892 0.53171 0.34792 0.58405 0.52311 0.42469 0.29061-0.49073 0.13415-0.81308-0.5803-0.40696-0.34535-0.07013-0.3129-0.67559-0.15022-0.62231 0.357-0.3639-0.23042-0.83361 0.64512 0.3156 0.56876 0.30308 0.49353-0.84751 0.20531-1.3115 0.43744-2.5042 1.5107-1.4494 0.60198-1.6924 0.35687-2.0035 0.87092-0.581 0.59092-0.14075 2.4197 0.04641 1.6471-0.14793 1.0393 0.33918 0.48624h-0.44448l-0.5815 1.0574-1.3394 0.94945-1.8631 0.56316-1.1374 0.32887-1.5223 0.54024-1.0216 0.89584-0.27796 1.5104 1.0859 0.23158-0.8571 0.57354-1.3297 0.59909-1.4743-0.089-0.84563-0.20137-0.9655 0.0948-0.91808-0.52403-1.2153 0.26433-0.06195-0.74496-0.47702-0.41238 0.20221-0.7439-0.183-0.67653-1.2236-0.1424-0.75676 0.30697-1.0389-0.28666-0.39073-0.22844-0.10856 0.0745 0.12543 0.74724 0.06668 0.96026 0.43879 1.039 0.72296 1.2862 0.27317 0.4414-0.10354 1.0736 0.35742 0.62909-0.29061 1.1598 0.16973 0.76684 0.77334 0.60526-0.4514 0.20294-0.6079-0.0801-0.90767 0.0225-0.28004-0.50768-0.4907-6e-3 -0.23242 0.35955-1.0663 0.0796-0.84911-0.26949-1.0478 0.47391-0.4774 0.63883-0.71169-0.35239-0.15909-0.6846-1.2166-0.79469v-0.45034l-0.32224-0.30599-0.89165-0.0425-0.94382 0.40944-0.25639-0.30724-0.53663 0.555v0.73664l-1.307-0.19743-0.17138 0.5362-0.73566-0.52687-1.3348 0.22468-0.1325 0.34801-0.41464-0.25368-0.86326 0.61372-1.3107 0.11955-0.28288 1.3572 0.23363 0.7814 1.0811-0.18681 0.60405-0.22003 0.57646 0.29821-0.32388 0.39879h-0.47901l0.03565 0.38511 0.58537 0.0861 0.22825 0.57064-0.92703 0.43499h-1.0817l-0.36808 0.44096 0.89477 0.36924 0.75582 0.17399 0.60156 0.57876-0.05406 0.64745 0.36631 0.3663h0.6248l0.40788-0.70646 1.1119-0.0253 0.34145 0.55791 0.8516 0.31737 0.76728-0.13511 1.1037 0.66495 1.3588 0.95851 0.85102-0.0527 0.41599-0.36595 0.41254 0.3558-0.54874 0.58123 1.0137 0.18401 0.28923-0.40914 0.87434 0.28628v0.6135l-0.58273 0.54995 0.42782 0.67065 0.94673 0.22191 0.42332-0.22587 0.03368 1.0546 0.2235 0.35773h0.78706l0.07109 0.48007-0.7144 0.62668-0.23852 0.65136 0.41359 0.6755 1.0201 0.77184 0.50416 1.599 1.0281 0.61284 0.86467 0.0485 0.03048 0.35308 0.54192 0.0301 0.58284 0.33565 0.5037 0.0835 0.06061 0.47183-0.63775 0.14044 0.19377 0.44964 0.52826 0.30125 0.02539 0.7254 0.27183 0.77674-0.32822 0.56438-0.48904 0.25151-0.06227 0.72439 1.1238 0.78116 1.4025 1.4454 0.42016 1.4426 0.03114 0.67979-0.29458-0.57386-0.3919-0.94605-0.69302-0.71044-0.47504-0.44103-0.45121-6e-3 -0.28318 0.64511-0.04119 1.2773v1.6354l-0.32031 1.1346-0.0082 0.91548 0.41374-0.24329 0.56013 0.57964-0.46506 0.28785h-0.34824l-0.16521 0.7411-0.25265 1.5992-0.90924 5.3505-0.93961 1.3374-0.9892 0.29438-1.2207 0.31418-1.6624 0.11206-1.4701-0.37623-0.60358-0.54455-1.3374 0.32961-1.1903 6e-3 -1.5232-0.49096-0.63932-0.24406-2.0791 0.30549-2.9164 0.45939-3.6868-0.596-2.1659-0.77718-1.1102-0.35292-0.48276 0.39318-1.5897 0.19245-1.7554 0.0448-2.8461-0.34011-0.79721-0.1695-0.56292-0.4999-1.1327-0.24857-0.40963-0.32597-0.61242 0.3523-0.73522-0.40804-1.3228 1.1684-0.9288 0.57916 0.29697 0.88314-1.2022 0.59468-1.6706 0.12932-0.83688 0.32141 0.06379 0.38024-1.2982 0.43105 0.31937 0.63959-0.621 0.27742v0.94603l0.80441 0.25482 0.04609 0.74835 0.92289 0.0603-0.36694 0.40367-0.17541 1.3171 1.0402-0.84452 0.51476 0.23065-0.42272 0.38798-0.02942 1.1105 0.36544 0.30981-0.20698 0.26771 0.52963 0.49941-0.52299 0.48158-0.60835 0.59788 0.23746 1.4479 0.0081 1.1789 0.28626 2.4491 0.37497 1.3277 0.42709 1.9963-0.3414 1.1876-0.23151 1.2317-0.43154 1.9125-0.37737 1.9564-0.53242 1.0251-1.0145 2.751-0.69604 1.5384v1.9339l-0.27645 0.8861-0.42317 0.91884 0.51292 0.59295 0.69607-0.14048 0.28634 0.53545-0.13761 0.81026 0.71998 0.24993 0.60415-0.42604 0.95622-0.12198 0.02687 1.4868-0.47069 1.6367 0.24966 0.92219 0.17035 2.0871-0.42503 2.2704-0.59367 1.285 0.56681 0.30483 0.83116-0.11687 0.6275-0.58081 0.88954 0.44494 1.7403-0.0835 1.4248 0.44222 1.5858-0.87792 2.5978-0.54758 1.926 0.90457 1.5131 1.4446 0.23326 1.5962 0.52806 1.3492 1.0436 1.7365 2.2119 1.0416 1.7033-0.39141 0.83366-1.346v-0.51634l1.4298-1.094 2.3037-0.14126 0.61377-1.098 1.9897-0.27663 2.6013 0.0868 2.3564 7e-4 0.86669-0.0919 0.78008 0.44784 0.98995-0.32049 0.37305-0.40649 1.2518-0.23412 0.8419 0.71822 1.2864-1.5289 0.56515-2.1124 2.4183-2.1429 1.8932 0.26971 1.4359-0.5917-0.56083-0.59735 0.72196-1.8764 0.4919-1.4572 0.59827 0.10803-0.2619-0.6347 1.5631-1.2539 1.7357-1.2926 0.49026-0.94485-1.7455-1.373-0.72791-2.5355 0.07417-1.5287 1.6818-2.8846 1.4637-1.9461 1.2651-2.1545 0.99636-0.41388 0.6187-0.60642-0.67737-0.57868 1.4625-1.3141 2.6973-0.99533 2.7189-0.70553 1.9822-1.5658 2.0139-1.0926 1.8629-0.99948 0.46911-1.6419-0.18996-0.97455-0.19182-0.69706 0.67663-0.41955v-0.46075l-0.31381-0.20751-0.59628-1.1206-0.23647-1.5382v-2.2419l1.0793-1.2513 1.214-0.66124 1.4483-0.98938 1.1644-0.57708 1.3957 0.54888 1.5715 0.70904 1.579 0.0295 1.432 0.21094 1.4676 0.78874 1.1244 0.61738 1.2624 0.35035 1.859-0.25425 0.80249 0.33731 0.52447-0.62484 1.1457-0.5114 0.17466-0.18302-0.40079-0.43713 0.4833-0.40411 0.36788-0.3878h0.37472l0.51916-0.46912 0.63627-0.37036 1.5064-1.1882 2.2914-0.20969 2.2236-1.2515 0.0262-0.86464 1.8004-2.0116 1.5951-0.83571 1.8339 0.48116 2.4547 1.2708 1.8418 1.2332 1.5122 1.7021v1.8993l1.1289 1.4159 0.08389 1.8431-0.3849 0.53839 1.5999 0.46155 0.08933 0.91525 1.2739 0.62809 1.2755 1.7308-0.73834 0.17018 0.06543 0.42405 0.66322 0.0625 0.82392-0.077 1.1787 0.87086 0.68908 0.98668 0.0778 0.53689 1.9244 1.1085 0.65773 1.1558 1.189 0.87416 0.55817 1.1169 1.6385 0.40271 0.65059 0.81145 0.12265 0.34631 0.49747-5e-3 1.0391-0.19916 0.84941 0.31523 1.1341-0.15774 0.85421 0.78778 0.69874 1.1685 0.28852 1.2476 0.97084 0.0989 0.39448-0.23564 0.74215 0.59858-0.3067 0.54149 0.62353 0.24201 0.70835-0.21285 0.87293 0.0294 0.43332 0.26852 0.3622 1.3065v0.71531l-0.11453 0.50902 0.84414 0.55043 0.83592 0.3498 0.68873 0.64191 0.4777 0.0282 0.53117-0.35305 0.94483 0.48123 0.45298 1.4824-0.0053 1.1538 0.70514 0.88908 0.74574 1.901-0.20125 1.2468 0.85789 0.86479-0.59166 0.99966-0.90449 0.41087-0.33921 0.49286 0.34898 0.59018-0.7088 0.72125v0.57237l-1.0119 0.41423-0.05888 0.73517-0.04395 0.66821 0.4585 0.77449 1.3804 0.4271 0.96074-0.0672 0.60458-1.2751 0.87268-1.1843 1.4948-1.0624-0.28515-1.9164 0.5062-0.84684 1.2256-0.64491 0.8308-9e-3 0.53756-1.587-0.16129-1.8605-1.7918-1.3904-0.99931-0.21308-0.38061-0.22854 0.10765-1.5523 0.45853-0.39947-0.12219-0.73121 0.7768-1.4416 1.518-1.634 0.77826 0.36971 0.11834 0.65189 1.2042 0.6031 1.9882-0.0807 0.7191 1.2594v1.1996l1.3704 1.063 0.86171-0.20944 0.2955-1.0612 0.32421-1.1807-1.4339-2.197-1.4105-1.391-3.0757-1.4844-0.86593-1.1313-3.5191-1.2948-3.05-1.3844-0.40539-1.5176 1.3449-1.137-0.05552-0.90894-0.6047-0.40326-1.1856 0.0577-0.44821 0.56655-0.60327-0.55741-1.3337 0.25811-1.8354-0.50649-1.6347-0.96775-0.93322-0.85538-1.1035-1.4427-0.77134-0.15789v-0.89053l-1.1494-0.93026-0.29451-3.0665-0.81185-1.6378-1.1702-1.6803-0.31824-0.3478-0.41066-0.017-0.80883-0.8667-1.789-1.2212-1.6684-0.96095-1.2339-1.2535-0.24903-1.4269-0.36024-1.5115 0.22875-1.5712 0.96536-0.3876-7e-3 -0.8547-0.8926-0.31276-0.11578-0.37171 0.19548-0.74444-0.75476-0.75112 0.24757-1.0723 1.0011-0.79354 0.86666-0.0428 0.12124 0.31796 1.2481-0.70906 1.2403-0.36142 0.25875-0.87681 1.7933 0.32992 0.53248-0.10882 0.7248 0.48836-0.30831 0.7956-0.9031 0.40203 0.43311 1.3744-0.02352 1.5558 1.1351 1.6872 0.68876 0.60266 0.72946-0.71257 1.1655-1.4073v-0.97548l0.14049-0.52154 0.85253 0.0754 0.29782 0.90027 0.28579 1.3149 0.95385 0.8111 0.84191 0.525-0.02927 1.0367-3.6e-5 0.2105-0.70629 0.0834 0.57841 1.0279 1.1321 0.94325 0.67501 1.6132 1.1468 1.4005 1.9197 1.7044 0.68843 0.30936 0.15217 1.4125 1.2205 0.27206 1.3202-0.40259 0.89032 0.3919 1.554 0.48819 1.769 1.7421 1.7777 1.4465 2.3839 1.783 2.2599 1.8634 0.40903 0.43234 0.445 0.97243 1.6331 1.2538 1.0896-3e-3 0.60965 1.1682 1.4882 0.55244 0.49404 0.34598-0.12026 0.78825-0.45727 1.6518-0.26383 2.1786-0.01292 0.94461-0.44848 0.71293-0.84435 0.771 0.24119 0.934 0.95713 0.7266-0.0017 1.0524-0.47209 0.42993 0.61779 0.70934 1.099 0.94747 1.6505 1.0922 0.25708 1.6981 0.95394 1.1095 0.04267 0.98345 0.80051 0.82738 0.91419 0.4421 1.0367 1.1623 0.54665-0.31562 1.0487 0.281 0.52973 0.75543-0.38514 0.21142-1.0916-0.20138-0.60626 0.84922 0.95454 0.43212 0.55126 0.84049 0.0945 1.1366 0.67506 0.97567 0.913-0.13337 1.0992-0.0953 1.635 0.17443 2.075-0.10252 1.6478-0.26483 1.2325 0.64246 1.1214 0.97162 1.1123-0.19661 0.13756 0.39609-0.83214 0.23307-0.79598 0.0503-0.13111 0.51773-0.53907-0.43392-1.5442-0.7807-1.6011-0.45281-1.156-0.25169h-1.0963l-0.47591 0.45893-0.87145 0.23696-0.6647-0.18401-0.19172 0.96944-1.2101 0.95437 0.07042 0.56268 0.72437 0.41915 0.2541 0.61592 1.3584 0.76357 0.34127 1.0384-0.41539 1.1356 0.23315 1.5247 0.25655 0.67736 0.07463 0.63493 0.97695 0.27367 0.51999 0.10464 0.2029-1.2018 0.69076-0.42291 0.57365 1.2398 0.70372 0.77273 0.35361 1.6105 0.47792 0.12536 0.23137-1.7112 0.66417-0.64635 0.63944 0.10736 0.52944 1.2737 0.86781 0.61589 0.36508 0.45309 0.52108-0.0431-0.25148-0.88815-0.50717-0.44814 0.02713-0.78176-0.35583-1.524-0.0312-0.80007-0.48335-0.25338-0.22255-1.0098-0.61544-1.6064 0.88413 0.16812 0.8703 0.49444 0.21095 0.59379 0.48625 0.13052 1.5925-0.5259-0.55147-0.67053-0.03657-0.68973-0.38586-0.36179v0.78163l-0.6272-0.40784-0.17818-1.0384-0.42956-0.65792 1.4894-0.5437 0.91025-0.18856 1.3203 1.1918 0.66537 0.62796 0.72467 0.12958 4e-3 -2.3425-0.11313-0.56083 0.53151-0.50941 0.67061 1.2755 1.4066 0.36766 0.47592-1.148-1.1615-0.81852-0.71893-1.3556-0.11414-0.80992-0.73811-1.1097-0.93259-0.55589-1.7328-0.47038-1.3962-1.0868-0.9429-6e-3 -0.79682-0.22126-1.0697-1.0239 1.3903-0.34834 0.73308 0.91926 0.55644-0.15227 0.24363-1.1126-0.94251-0.8127-1.3745-1.4181-1.3153-2.729-0.25056-2.1506 0.29592-1.2359 1.2154-0.67485v0.5489l-0.28203 0.79561 1.1521 0.81131 1.2019 0.73713v1.2628l1.39 0.47768 0.89759 0.0259-0.1154-0.54977-1.0633-0.43582-0.44134-0.85059v-0.39361l0.7964 0.13413 0.68619 0.89915 0.56658 0.85615 0.99808 0.35924 0.12466-0.85798-0.25092-0.67433-0.86641-0.47745-0.45545-0.61338 0.41477-0.27429 0.60327-0.014 1.0194 0.55672 0.49721 0.37499 0.34777 0.80865 0.52901-0.16308 0.15895-0.48415-0.64133-0.76648-0.54169-0.37047-0.83691-0.16283-0.71245-0.4269v-0.52218l0.0671-0.43593-0.78694-0.7299 0.47534-0.46049 0.75109 0.25295 1.1554 0.0217 0.86108-0.7685 0.99676-0.57711 1.133 0.33896 0.61924-0.0722 0.78223-0.73092 1.3079 0.18479 1.3808 0.66552 1.552 0.0444 0.96453 0.63578 0.59364 0.0372 1.3022-1.494 0.0156-2.1949 1.4793-0.49939v-2.0331l-1.7366-0.72053 0.30705-0.73132 1.2491-0.15843-0.0694-0.61457 1.8063-0.40613 1.1923-0.72773h0.95481l1.3289 1.3505 0.3861-0.542 1.2166 0.0134 0.84447-0.0673-0.35471-0.77718-1.2069-1.2298 0.21309-0.42344-0.65247-0.95471-0.86944-0.03 0.28005-0.60536h0.55233l0.38223-0.97961 1.077-8.4e-4 0.15202-3.4638 0.83035-1.612 1.2722-0.11835 1.2263-0.53953 0.29219-0.70344-0.11332-1.3469 0.32568-2.7285-0.0807-1.7664 1.0878-1.023v-0.59304l0.65959-0.88052 1.2022-0.75307 1.5433-0.2287 0.62621-0.12763 0.47791-2.5437 0.31768-2.0285-0.7405-0.34534-0.054-0.77837-0.0762-1.1095 0.226-0.0985 0.23267 0.87649 0.67757-0.15383 0.17699-0.81543h0.72851v-0.6487l0.59297 0.52393 0.75215-0.78446 0.91662-1.368 0.77962-0.6151 0.96603-1.6527 0.25097-1.3961 1.6798-0.62007 1.867 0.0518 0.75109-0.18984 1.05 0.13364 1.3323 0.22938 1.1547 0.3354-0.37742 0.25117-1.2999-0.042-1.7107-0.24383-0.42086 0.48759 0.60639 0.126 0.89724 0.062 0.59697 0.18398v0.50494l-0.97772 0.32389 0.41941 0.49166 1.1331 0.36596 0.68944 0.27241 0.3558 0.68881 1.2572 0.37826 1.3072-0.32171 1.835-0.49385 0.3903 0.1478 1.0404 0.19938 0.61869 0.49092 0.47772-0.53523 0.20309 0.94377 0.77215 0.27505-1.4321 0.76789-1.9257 0.96282-2.2344 1.0668-1.2261 1.2408 0.44939 0.66099 0.61355 0.22425 0.45739-0.399 0.9949 0.23148 0.50052-0.23323v0.40891l0.93263 1.2279 0.44798-0.0255 0.71786-0.71612 0.66923 0.24436-0.33721 0.57636 0.55535 0.88881-0.40914 2.6202-0.84409 0.56901 0.71489 0.6485 1.3212 0.85517 1.5807 0.0513 0.74847-0.642 1.2554-0.47975 0.46557-1.3659 1.051-0.49418 1.6818-0.45848 0.7733 0.11532 0.61871-0.92254 0.57359-0.17707 0.32613-0.81112 0.5516-0.25246 1.1952 0.42975 0.40237 0.486 1.093-0.31332 0.2634-0.58104 0.73412 0.80863 1.1174-0.56459-0.15126-0.99526 0.65992-0.96722 0.40129-0.32644-1.0259-0.61252-1.3102-0.13089-1.1394 0.60449-0.71552-0.41673-0.63068 0.72729-1.8806 0.50031-0.59509-0.40531-0.83327-0.24381-0.30609-0.63258 0.58374-0.43568-0.93955-1.5713-1.1276-0.53044-1.3757-0.99661-2.0232-1.3888 0.61604-0.6687 0.92291 0.17952 0.49903 1.2341 0.68832 0.0298 0.0138-1.1852 0.49375-0.16827 0.56573 0.23398 1.7989-1.3835 0.51064-0.61019 0.52263 0.44049 0.31981-0.59349 1.7811-1.2046 1.6548-0.63212 0.87106 0.35273 1.9403-1.0862 1.264 0.17923 2.0622-1.4013 0.71517 0.35118 0.89448-1.328 0.70911-0.23471 2.931-0.31288 0.10548-0.92097 0.49955-0.42758-0.48421-0.45475 0.36382-0.38479 0.10075-1.546 0.99384-0.49551 0.70214-0.0407 0.67877-0.44954 0.27497-1.1858 3.0064-0.0904 0.16752 0.48658 1.9189-0.41826 0.13547-1.2027 1.2018-2.0235-0.96926-0.45451 0.56959-0.44367-0.52979-0.63755-0.0439-1.0284h-0.91202l0.62922-2.0191 1.0415 0.39594 0.5361-0.52372-0.52877-0.42782-0.9262-0.0326-0.75067-1.0834 1.4695-0.20075 0.66031-1.031 0.77419-0.47798v-0.8038l-0.89203-0.68186 0.0376-0.85055 0.56569-0.37791-0.19814-0.46428-1.778 0.59922-0.94227-0.52936-0.12821-0.78379-1.4993-0.0488-0.8429-1.1946-1.164 0.5833-0.31318-0.67053-1.1667-0.70475-1.7884-0.35217v-0.43123l-0.80057 0.0147 0.24749 0.79984-0.97642 0.36785-0.42657-0.7732-1.2956-0.43686-0.17781-0.92513-0.25198-0.98501-0.90067-0.48773-0.0174-0.67402-1.5492 0.47058-1.6188 0.6163-1.7654 0.50479-1.2591-0.55724-0.72139-1.0424-1.6815 0.053-0.80558 0.74474-1.003-1.1044-0.46939-1.5671 0.33581-1.1747-0.70715-1.3171 0.14146-0.81685-1.0485-0.0699-0.25244-1.3568-2.1117 0.31583-0.39419-0.4675-2.0616-0.1098 0.37729-0.9666-0.4546-0.56023 0.34968-0.61408-1.0437-1.203 1.7559-0.545-0.0439-1.1482-0.76864-0.27767-0.93572-1.1201 0.0745-1.3252-1.3608-1.6878-1.7305 0.21885-1.8428-0.46249-1.7256 0.93005h-1.122l-0.83771-0.4074-0.70575-0.0113-0.19708 1.614-1.0927 0.39046-1.7312-0.0841-0.35452-0.79321-0.1096-0.82794-0.74153-0.85565 0.35821-1.4125-0.58403-1.0922 0.51114-0.91678-1.864-2.1968 0.67069-1.55 1.1884-0.20687 0.72096 0.5146 0.60457 0.59708 1.3687 0.05037 1.2937-0.74494 0.47736-0.32847 0.0879-0.87684 1.5633-0.06046-0.23271-1.3721-0.52248-0.15642-0.80967-0.54252-0.20483-0.63454 0.40756-0.55416-0.33884-0.43357-1.5663-0.63635-1.1065 0.08217-0.80238-0.04383 0.33668-1.0191 0.0303-1.4304-0.84435-0.57092-2.0186-0.69546-0.16032-1.3701-0.51932-0.92619-0.68555-0.5556 0.46717-0.988v-0.43726l-0.98726-0.14269-0.0145-0.43737-1.3631-0.81586 0.4948-1.0659 0.86616-0.27742 0.53182-1.3262-1.1478-1.4129 0.38933-1.6434 0.0156-1.5239-0.86048-0.03069-0.48856-0.97832-1.4106-0.95667-1.3686-0.80231-0.50314 0.40254-1.1656-0.04525-0.54456 0.59738-1.0278 0.39919-0.24997 0.43973-0.7629-0.55051-6e-3 -0.87497 0.64067-0.5123-0.29712-0.50382-1.8654-0.72204-1.1932 0.29002-0.36353 0.58424-0.84142-1.1415 0.23034-0.45614-1.6984 0.05811-0.0837 0.58509-1.0246-1.2301 0.49568-1.0341-0.21752-1.5167-0.42666-1.2659-0.53882-0.38581-0.61304-1.4568 0.36552-0.77456-0.83824-0.2509-0.64194 0.23236 0.33406-2.2685 0.60105-0.93133 0.0604-1.0621-1.7855-1.2858v-1.4199l-0.89264 0.10177 0.20803-1.3444 0.66341-0.71356 0.0287-0.67174 1.2228-0.0553 0.45052-0.59332-0.84332-0.33548-0.14891-0.69882-0.66088-2.0461-0.52275-1.5933-1.0075-0.73657-0.33314-1.6647-1.0155-2.0985 0.062-1.2103 1.2631-0.38317 0.69116-0.3075 1.2448-0.08537h0.49755l0.70413-1.8176 0.28587-0.72424 1.2339-0.62034 0.42544-0.92084-1.0635-1.0662z" fill="#ced5db"/>
 </g>
</svg>
