<?xml version="1.0" encoding="UTF-8"?>
<!-- Created with Inkscape (http://www.inkscape.org/) -->
<svg width="720" height="360" version="1.1" viewBox="0 0 190.5 95.25" xmlns="http://www.w3.org/2000/svg">
 <g fill="none" stroke="#242526" stroke-linecap="round" stroke-linejoin="round" stroke-width=".79375">
  <rect x="19.367" y=".39687" width="18.971" height="18.891"/>
  <rect x="38.338" y=".39687" width="18.971" height="18.891"/>
  <rect x="38.338" y=".39687" width="18.971" height="18.891"/>
  <rect x="57.309" y=".39687" width="18.971" height="18.891"/>
  <rect x="76.279" y=".39687" width="18.971" height="18.891"/>
  <rect x="95.25" y=".39687" width="18.971" height="18.891"/>
  <rect x="114.22" y=".39687" width="18.971" height="18.891"/>
  <rect x="133.19" y=".39687" width="18.971" height="18.891"/>
  <rect x="152.16" y=".39687" width="18.971" height="18.891"/>
  <rect x="171.13" y=".39687" width="18.971" height="18.891"/>
  <rect x="57.309" y="19.288" width="18.971" height="18.891"/>
  <rect x="76.279" y="19.288" width="18.971" height="18.891"/>
  <rect x="95.25" y="19.288" width="18.971" height="18.891"/>
  <rect x="114.22" y="19.288" width="18.971" height="18.891"/>
  <rect x="133.19" y="19.288" width="18.971" height="18.891"/>
  <rect x="19.367" y="38.179" width="18.971" height="18.891"/>
  <rect x="38.338" y="38.179" width="18.971" height="18.891"/>
  <rect x="38.338" y="38.179" width="18.971" height="18.891"/>
  <rect x="57.309" y="38.179" width="18.971" height="18.891"/>
  <rect x="76.279" y="38.179" width="18.971" height="18.891"/>
  <rect x="95.25" y="38.179" width="18.971" height="18.891"/>
  <rect x="76.279" y="57.071" width="18.971" height="18.891"/>
  <rect x="95.25" y="57.071" width="18.971" height="18.891"/>
  <rect x="114.22" y="57.071" width="18.971" height="18.891"/>
  <rect x="133.19" y="57.071" width="18.971" height="18.891"/>
  <rect x=".39687" y="75.962" width="18.971" height="18.891"/>
  <rect x="19.367" y="75.962" width="18.971" height="18.891"/>
  <rect x="38.338" y="75.962" width="18.971" height="18.891"/>
  <rect x="38.338" y="75.962" width="18.971" height="18.891"/>
  <rect x="57.309" y="75.962" width="18.971" height="18.891"/>
  <rect x="76.279" y="75.962" width="18.971" height="18.891"/>
  <rect x="95.25" y="75.962" width="18.971" height="18.891"/>
 </g>
 <g stroke-width="9.8089">
  <g id="Filled_outline" transform="matrix(.026974 0 0 .026974 79.153 2.6119)" data-name="Filled outline">
   <path d="m152 312a24 24 0 0 0-24-24h-68.686a8 8 0 0 1-5.657-2.343 8 8 0 0 1 0-11.314l10.343-10.343h-4a36 36 0 0 0-36 36 36 36 0 0 0 36 36h68a24 24 0 0 0 24-24z" fill="#4db7e5" stroke-width="93.221"/>
   <path transform="rotate(90,88,368)" d="m56 304h64v128h-64z" fill="#e0e0de" stroke-width="93.221"/>
   <g fill="#d6d6d4" stroke-width="9.8089">
    <path d="m48 336h16v64h-16z"/>
    <path d="m80 336h16v64h-16z"/>
    <path d="m112 336h16v64h-16z"/>
   </g>
   <path d="m488 388a20.007 20.007 0 0 1-20 20h-199.16a16.029 16.029 0 0 0-8.87 2.69l-33.89 22.59a40 40 0 0 1-22.19 6.72h-179.89v-40h179.16a16.029 16.029 0 0 0 8.87-2.69l33.89-22.59a40 40 0 0 1 22.19-6.72h199.89a19.994 19.994 0 0 1 20 20z" fill="#f35244" stroke-width="93.221"/>
   <path d="m488 388a20.007 20.007 0 0 1-20 20h-174.31a460.6 460.6 0 0 0 48.76-40h125.55a19.994 19.994 0 0 1 20 20z" fill="#e64c3f" stroke-width="93.221"/>
   <path d="m456 72v192l-320-32v-128l289.68-28.97z" fill="#e0e0de" stroke-width="93.221"/>
   <path d="m456 72v192l-320-32v-1.03c100.04-18.19 207.85-64.36 289.68-155.94z" fill="#dbdbd9" stroke-width="93.221"/>
   <path d="m456 72h32v192h-32z" fill="#d6d6d4" stroke-width="93.221"/>
   <path d="m96 208 40 24v-128l-40 24z" fill="#ebebe9" stroke-width="93.221"/>
   <path d="m24 200 72 8v-80l-72 8z" fill="#e0e0de" stroke-width="93.221"/>
   <path d="m424 112v104l-120.41-7.53-135.59-8.47v-64l214.3-20.09z" fill="#f35244" stroke-width="93.221"/>
   <path d="m424 112v104l-120.41-7.53a44.936 44.936 0 0 1-7.59-24.47c0-31.55 36.08-58.36 86.3-68.09a220.06 220.06 0 0 1 41.7-3.91z" fill="#348fd9" stroke-width="93.221"/>
   <path d="m352 144h48v16h-48z" fill="#4db7e5" stroke-width="93.221"/>
   <path d="m336 176h64v16h-64z" fill="#4db7e5" stroke-width="93.221"/>
   <g stroke-width="9.8089">
    <path d="m468 360h-199.89a47.846 47.846 0 0 0-26.626 8.062l-33.892 22.594a7.974 7.974 0 0 1-4.438 1.344h-43.155v-56a8 8 0 0 0-4.721-7.292 31.984 31.984 0 0 0-27.279-48.708h-68.686l10.343-10.343a8 8 0 0 0-5.657-13.657h-4a43.978 43.978 0 0 0-33.916 72h-2.084a8 8 0 0 0-8 8v40h16v-32h16v48h-24a8 8 0 0 0-8 8v40a8 8 0 0 0 8 8h179.89a47.846 47.846 0 0 0 26.626-8.062l33.892-22.594a7.974 7.974 0 0 1 4.438-1.344h199.16a28 28 0 0 0 0-56zm-340 32v-48h16v48zm-16-48v48h-16v-48zm-80-44a27.982 27.982 0 0 1 11.527-22.629 16.248 16.248 0 0 0-0.214 2.629 16 16 0 0 0 16 16h68.687a16 16 0 0 1 0 32h-68a28.032 28.032 0 0 1-28-28zm32 44h16v48h-16zm404 56h-199.16a23.932 23.932 0 0 0-13.314 4.031l-33.89 22.594a31.9 31.9 0 0 1-17.752 5.375h-171.89v-24h171.16a23.932 23.932 0 0 0 13.314-4.031l33.89-22.594a31.9 31.9 0 0 1 17.752-5.375h199.89a12 12 0 0 1 0 24z"/>
    <path d="m488 64h-31.91a7.746 7.746 0 0 0-0.886 0.04h-0.036l-319.97 32a8 8 0 0 0-7.2 7.96v113.87l-24-14.4v-70.941l12.116-7.268-8.232-13.721-14.5 8.7-70.264 7.807a8 8 0 0 0-7.12 7.953v64a8 8 0 0 0 7.116 7.951l70.264 7.807 38.5 23.1c0.034 0.021 0.071 0.035 0.106 0.055a8.209 8.209 0 0 0 0.771 0.393c0.05 0.022 0.1 0.047 0.15 0.068a7.98 7.98 0 0 0 0.915 0.319c0.064 0.018 0.127 0.031 0.191 0.047 0.249 0.064 0.5 0.115 0.761 0.155 0.087 0.014 0.175 0.028 0.263 0.039 0.055 6e-3 0.108 0.019 0.163 0.024l319.96 32h0.036a7.872 7.872 0 0 0 0.8 0.04h32a8 8 0 0 0 8-8v-192a8 8 0 0 0-7.997-8zm-456 79.16 56-6.222v62.124l-56-6.222zm112-31.92 304-30.4v174.32l-304-30.4zm336 144.76h-16v-176h16z"/>
    <path d="m431.94 111.08c-0.028-0.249-0.065-0.494-0.116-0.735-6e-3 -0.03-0.016-0.059-0.023-0.09-0.053-0.237-0.114-0.471-0.187-0.7-0.015-0.048-0.035-0.094-0.052-0.142-0.071-0.207-0.146-0.412-0.233-0.611-0.03-0.069-0.066-0.135-0.1-0.2-0.081-0.173-0.164-0.344-0.257-0.509-0.048-0.086-0.1-0.167-0.152-0.251-0.087-0.142-0.175-0.283-0.27-0.42-0.064-0.092-0.134-0.181-0.2-0.271-0.093-0.121-0.186-0.24-0.286-0.356-0.078-0.091-0.16-0.179-0.243-0.267q-0.151-0.164-0.312-0.316c-0.043-0.041-0.081-0.087-0.125-0.127s-0.1-0.077-0.144-0.118q-0.17-0.147-0.347-0.284c-0.094-0.073-0.188-0.144-0.284-0.213-0.126-0.089-0.256-0.172-0.386-0.254-0.1-0.059-0.19-0.119-0.287-0.174-0.142-0.081-0.289-0.154-0.437-0.226-0.091-0.045-0.181-0.091-0.273-0.132-0.162-0.072-0.329-0.134-0.5-0.195-0.084-0.031-0.166-0.064-0.251-0.092-0.176-0.057-0.357-0.1-0.539-0.149-0.082-0.021-0.162-0.046-0.245-0.064-0.177-0.038-0.359-0.065-0.541-0.091-0.091-0.013-0.18-0.031-0.272-0.041-0.168-0.019-0.339-0.025-0.509-0.033-0.107-5e-3 -0.214-0.016-0.322-0.016h-0.053a228.06 228.06 0 0 0-42.768 3.975l-213.98 20.06a8 8 0 0 0-7.25 7.96v64a8 8 0 0 0 7.5 7.984l135.59 8.47 120.41 7.53c0.167 0.011 0.333 0.016 0.5 0.016a8 8 0 0 0 8-8v-104a7.918 7.918 0 0 0-0.044-0.834c-3e-3 -0.028-9e-3 -0.056-0.013-0.084zm-255.94 32.203 148.08-13.885c-3.038 1.925-5.94 3.935-8.663 6.047-17.935 13.911-27.415 30.699-27.415 48.553a49.891 49.891 0 0 0 2.532 15.639l-114.53-7.155zm240 64.2-107.66-6.733a35.69 35.69 0 0 1-4.337-16.752c0-16.076 11.539-28.4 21.22-35.9 14.317-11.1 35-19.71 58.268-24.262l32.512-3.053z"/>
    <path d="m352 144h48v16h-48z"/>
    <path d="m336 176h64v16h-64z"/>
   </g>
  </g>
  <g id="filled_outline" transform="matrix(.026974 0 0 .026974 79.282 21.904)" data-name="filled outline">
   <path d="m152 24h208v40h-208z" fill="#0056ac" stroke-width="93.221"/>
   <path d="m360 56a56.277 56.277 0 0 1 16.471 38.622l7.316 351.17a10 10 0 0 1-10 10.208h-76.527a10 10 0 0 1-9.97-9.233l-22.676-294.79a8.64 8.64 0 0 0-8.614-7.976 8.64 8.64 0 0 0-8.614 7.976l-22.676 294.79a10 10 0 0 1-9.97 9.233h-76.529a10 10 0 0 1-10-10.208l7.316-351.17a56.277 56.277 0 0 1 16.473-38.622l16 8 16-8h144l16 8z" fill="#007af6" stroke-width="93.221"/>
   <g fill="#005dbb" stroke-width="9.8089">
    <path d="m136 456h80v32h-80z"/>
    <path d="m296 456h80v32h-80z"/>
    <path d="m184 56-7.32 29.29a77.813 77.813 0 0 1-40.68 50.71l-1.35 0.67 0.88-42.05a56.266 56.266 0 0 1 16.47-38.62z"/>
    <path d="m377.35 136.67-1.35-0.67a77.813 77.813 0 0 1-40.68-50.71l-7.32-29.29h32a56.266 56.266 0 0 1 16.47 38.62z"/>
   </g>
   <path d="m360 16h-208a8 8 0 0 0-8 8v28.821a63.951 63.951 0 0 0-16.469 41.635l-7.316 351.17a17.866 17.866 0 0 0 5.135 12.97 18.19 18.19 0 0 0 2.65 2.229v27.177a8 8 0 0 0 8 8h80a8 8 0 0 0 8-8v-26.608a18.043 18.043 0 0 0 8.687-14.011l22.676-294.79a0.639 0.639 0 0 1 1.274 0l22.676 294.79a18.043 18.043 0 0 0 8.687 14.011v26.608a8 8 0 0 0 8 8h80a8 8 0 0 0 8-8v-27.177a18.19 18.19 0 0 0 2.65-2.229 17.865 17.865 0 0 0 5.135-12.969l-7.316-351.17a63.951 63.951 0 0 0-16.469-41.635v-28.821a8 8 0 0 0-8-8zm-200 16h192v16h-72a8 8 0 0 0-16 0h-16a8 8 0 0 0-16 0h-72zm-4.538 32h18.292l-4.838 19.351a69.683 69.683 0 0 1-25.963 38.982l0.574-27.544a48.029 48.029 0 0 1 11.935-30.789zm52.538 416h-64v-16h64zm64.59-328.64a16.639 16.639 0 0 0-33.18 0l-22.676 294.79a2.01 2.01 0 0 1-1.994 1.847h-76.53a2 2 0 0 1-2-2.042l6.341-304.37a85.668 85.668 0 0 0 41.886-54.355l5.809-23.231h40.3a87.917 87.917 0 0 1-24.485 46.627l-3.716 3.716a8.0002 8.0002 0 0 0 11.314 11.314l3.716-3.716a103.79 103.79 0 0 0 29.411-57.941h18.428a103.79 103.79 0 0 0 29.413 57.941l3.716 3.716a8.0002 8.0002 0 0 0 11.314-11.314l-3.716-3.716a87.908 87.908 0 0 1-24.484-46.627h40.3l5.808 23.231a85.668 85.668 0 0 0 41.886 54.355l6.341 304.37a2 2 0 0 1-2 2.041h-76.532a2.01 2.01 0 0 1-1.994-1.847zm95.41 328.64h-64v-16h64zm1.047-357.67a69.683 69.683 0 0 1-25.963-38.982l-4.838-19.351h18.292a48.029 48.029 0 0 1 11.935 30.789z" stroke-width="9.8089"/>
  </g>
  <g transform="matrix(.026974 0 0 .026974 79.129 40.603)">
   <g clip-rule="evenodd" fill-rule="evenodd" stroke-width="93.221">
    <path d="m45.2 504.5h421.6c15.3 0 27.8-12.5 27.8-27.8v-305.1h-477.3v305.1c0 15.3 12.6 27.8 27.9 27.8z" fill="#eff6ff"/>
    <path d="m17.3 171.6h477.3c5.4 0 9.8-4.3 9.9-9.6v-26.8h-497v26.8c0.1 5.3 4.5 9.6 9.8 9.6z" fill="#9fd4fe"/>
    <path d="m7.5 135.2h497v-68c-0.1-5.3-4.5-9.6-9.9-9.6h-41.2v20.7c0 12.4-10.2 22.6-22.6 22.6s-22.6-10.2-22.6-22.6v-20.7h-71.3v20.7c0 12.4-10.2 22.6-22.6 22.6s-22.6-10.2-22.6-22.6v-20.7h-71.3v20.7c0 12.4-10.2 22.6-22.6 22.6s-22.6-10.2-22.6-22.6v-20.7h-71.3v20.7c0 12.4-10.2 22.6-22.6 22.6s-22.6-10.2-22.6-22.6v-20.7h-41.4c-5.4 0-9.8 4.3-9.8 9.7v0.2z" fill="#eb5468"/>
    <path d="m363.8 57.6c13.2 23.3 24.6 49.4 34 77.6h106.7v-68c-0.1-5.3-4.5-9.6-9.9-9.6h-41.2v20.7c0 12.4-10.2 22.6-22.6 22.6s-22.6-10.2-22.6-22.6v-20.7z" fill="#e5384f"/>
    <path d="m397.8 135.2c3.9 11.8 7.5 23.9 10.6 36.4h86.2c5.4 0 9.8-4.3 9.9-9.6v-26.8z" fill="#85beef"/>
    <g fill="#ffd772">
     <path d="m58.6 78.3c0 12.4 10.2 22.6 22.6 22.6s22.6-10.2 22.6-22.6v-48.2c0-12.4-10.2-22.6-22.6-22.6s-22.6 10.1-22.6 22.6v27.5z"/>
     <path d="m175.1 78.3c0 12.4 10.1 22.6 22.6 22.6 12.4 0 22.6-10.2 22.6-22.6v-48.2c0-12.4-10.2-22.6-22.6-22.6s-22.6 10.1-22.6 22.6v27.5z"/>
     <path d="m291.7 78.3c0 12.4 10.1 22.6 22.6 22.6 12.4 0 22.6-10.2 22.6-22.6v-48.2c0-12.4-10.2-22.6-22.6-22.6s-22.6 10.1-22.6 22.6v27.5z"/>
     <path d="m408.2 30.1v48.2c0 12.4 10.2 22.6 22.6 22.6s22.6-10.2 22.6-22.6v-48.2c0-12.4-10.2-22.6-22.6-22.6s-22.6 10.1-22.6 22.6z"/>
    </g>
    <g fill="#fbba58">
     <path d="m198.1 30.1v48.2c0 8.4-4.6 15.8-11.5 19.6 3.3 1.9 7.1 2.9 11.1 2.9 12.4 0 22.6-10.2 22.6-22.6v-48.1c0-12.4-10.2-22.6-22.6-22.6-4 0-7.8 1-11.1 2.9 6.9 3.9 11.5 11.3 11.5 19.7z"/>
     <path d="m81.6 30.1v48.2c0 8.4-4.6 15.8-11.5 19.6 3.3 1.9 7.1 2.9 11.1 2.9 12.4 0 22.6-10.2 22.6-22.6v-48.1c0-12.4-10.2-22.6-22.6-22.6-4 0-7.8 1-11.1 2.9 6.9 3.9 11.5 11.3 11.5 19.7z"/>
     <path d="m314.7 30.1v48.2c0 8.4-4.6 15.8-11.5 19.6 3.3 1.9 7.1 2.9 11.1 2.9 12.4 0 22.6-10.2 22.6-22.6v-48.1c0-12.4-10.2-22.6-22.6-22.6-4 0-7.8 1-11.1 2.9 6.8 3.9 11.5 11.3 11.5 19.7z"/>
     <path d="m431.2 30.1v48.2c0 8.4-4.6 15.8-11.5 19.6 3.3 1.9 7.1 2.9 11.1 2.9 12.4 0 22.6-10.2 22.6-22.6v-48.1c0-12.4-10.2-22.6-22.6-22.6-4 0-7.8 1-11.1 2.9 6.8 3.9 11.5 11.3 11.5 19.7z"/>
    </g>
    <g fill="#9fd4fe">
     <path d="m296.8 299.5v45.5h52.7v-50.7h-47.6c-2.8 0-5.1 2.3-5.1 5.2z"/>
     <path d="m349.6 294.3h52.8v50.7h-52.8z"/>
     <path d="m402.3 294.3v50.7h52.7v-45.6c0-2.8-2.3-5.1-5.1-5.1z"/>
     <path d="m402.3 345.1h52.7v50.7h-52.7z"/>
     <path d="m349.6 345.1h52.8v50.7h-52.8z"/>
     <path d="m296.8 345.1h52.7v50.7h-52.7z"/>
     <path d="m296.8 395.8v45.6c0 2.8 2.3 5.1 5.1 5.1h47.6v-50.7z"/>
    </g>
    <path d="m349.6 395.8h52.8v50.7h-52.8z" fill="#eb5468"/>
    <path d="m402.3 395.8v50.7h47.6c2.8 0 5.1-2.3 5.1-5.1v-45.6z" fill="#9fd4fe"/>
    <g fill="#85beef">
     <path d="m420.9 294.3c2.4 16.4 4 33.4 4.6 50.7h29.5v-45.6c0-2.8-2.3-5.1-5.1-5.1z"/>
     <path d="m425.5 345.1c0.3 6.4 0.4 12.9 0.4 19.4 0 10.6-0.3 21-1 31.3h30.1v-50.7z"/>
     <path d="m425 395.8c-1.1 17.4-3.1 34.3-5.9 50.7h30.9c2.8 0 5.1-2.3 5.1-5.1v-45.6z"/>
    </g>
    <path d="m412.3 250.4c3.5 14.2 6.4 28.8 8.6 43.9h29c2.8 0 5.1 2.3 5.1 5.1v141.9c0 2.8-2.3 5.1-5.1 5.1h-30.9c-3.5 20.2-8.2 39.6-14.1 58h61.9c15.3 0 27.8-12.5 27.8-27.8v-305h-110.9c11.8 23.7 21.5 50.2 28.6 78.8z" fill="#d9eeff"/>
    <path d="m79.7 284c-17.3 3.9-30 17.4-30 33.5s12.8 29.6 30 33.5c3.3 0.8 6.8 1.2 10.4 1.2 10.7 0 25.8-3.5 38.6-9.4 3.3-1.5 6.5-3.2 9.4-5 13.9-8.8 18.1-28.8 0-40.7-2.9-1.8-6.1-3.5-9.4-5-12.8-5.8-27.9-9.4-38.6-9.4-3.6 0.1-7.1 0.5-10.4 1.3z" fill="#eb5468"/>
    <path d="m120.5 243.5c-0.7 3.2-1 6.5-1 10 0 10.7 3.5 25.8 9.4 38.6 17.1 26.9 40.3 22.6 50.6 0 5.8-12.8 9.4-28 9.4-38.6 0-3.5-0.4-6.8-1.1-10-3.8-17.5-17.4-30.5-33.6-30.5-16.3 0.1-29.9 13-33.7 30.5z" fill="#eb5468"/>
    <path d="m85.5 249.2c-8.8 8.8-10.6 22.4-5.8 34.8 3.3-0.8 6.8-1.2 10.4-1.2 10.7 0 25.8 3.5 38.6 9.4-5.8-12.8-9.4-28-9.4-38.6 0-3.5 0.4-6.8 1-10-12.3-5-25.9-3.2-34.8 5.6z" fill="#95d6a4"/>
    <path d="m79.7 351c-4.8 12.4-3 25.9 5.8 34.7 8.9 8.9 22.5 10.7 35 5.7-0.7-3.2-1-6.5-1-10 0-10.7 3.5-25.8 9.4-38.6-12.8 5.8-27.9 9.4-38.6 9.4-3.8-0.1-7.3-0.5-10.6-1.2z" fill="#95d6a4"/>
    <path d="m128.8 342.8c-5.8 12.8-9.4 28-9.4 38.6 0 3.5 0.4 6.8 1 10 3.8 17.5 17.4 30.5 33.6 30.5s29.8-13 33.6-30.5c0.7-3.2 1.1-6.5 1.1-10 0-10.7-3.6-25.8-9.4-38.6-12.5-18.5-30.1-18.8-50.5 0z" fill="#eb5468"/>
    <path d="m179.4 342.8c5.8 12.8 9.4 28 9.4 38.6 0 3.5-0.4 6.8-1.1 10 12.4 5 26.1 3.2 35-5.7 8.8-8.8 10.6-22.4 5.8-34.7-3.3 0.8-6.8 1.2-10.4 1.2-10.8-0.1-25.9-3.6-38.7-9.4z" fill="#95d6a4"/>
    <path d="m169.9 337.8c2.9 1.8 6.1 3.5 9.4 5 12.8 5.8 27.9 9.4 38.6 9.4 3.6 0 7.1-0.4 10.4-1.2 17.3-3.9 30-17.4 30-33.5 0-16-12.8-29.5-30-33.5-3.3-0.8-6.8-1.2-10.4-1.2-10.7 0-25.8 3.5-38.6 9.4-3.3 1.5-6.5 3.2-9.4 5-14.1 9.6-14.1 29.7 0 40.6z" fill="#eb5468"/>
    <path d="m188.7 253.5c0 10.7-3.5 25.8-9.4 38.6 12.8-5.8 27.9-9.4 38.6-9.4 3.6 0 7.1 0.4 10.4 1.2 4.8-12.4 3-25.9-5.8-34.8-8.9-8.9-22.5-10.6-35-5.7 0.9 3.3 1.2 6.7 1.2 10.1z" fill="#95d6a4"/>
    <path d="m138.2 297.1c-6.1 4.7-9.9 12.1-9.9 20.3 0 8.3 3.9 15.6 9.9 20.4 4.4 3.4 9.9 5.5 15.8 5.5 6 0 11.5-2 15.9-5.5 6-4.7 9.9-12.1 9.9-20.4 0-8.2-3.9-15.6-9.9-20.3-4.4-3.4-9.9-5.5-15.9-5.5-5.9 0.1-11.4 2.1-15.8 5.5z" fill="#ffd772"/>
    <path d="m177.5 328.3c-1.7 3.7-4.3 7-7.5 9.5 2.9 1.8 6.1 3.5 9.4 5 12.8 5.8 27.9 9.4 38.6 9.4 3.6 0 7.1-0.4 10.4-1.2 17.3-3.9 30-17.4 30-33.5 0-2.2-0.2-4.3-0.7-6.3-15.3 31.6-59.7 25.3-78.3 18.1-0.5-0.3-1.3-0.6-1.9-1z" fill="#e5384f"/>
    <path d="m141.4 218.3c38.2-0.2 30.9 51.8 26.1 77.2 0.8 0.5 1.6 1 2.4 1.7 2.9-1.8 6.1-3.5 9.4-5 5.8-12.8 9.4-28 9.4-38.6 0-3.5-0.4-6.8-1.1-10-3.8-17.5-17.4-30.5-33.6-30.5-6.4 0-12.4 2-17.6 5.6 1.7-0.3 3.8-0.5 5-0.4z" fill="#e5384f"/>
    <path d="m155.5 296.6c6 4.7 9.9 12.1 9.9 20.3 0 8.3-3.9 15.6-9.9 20.4-2.8 2.2-6 3.8-9.5 4.7 2.6 0.9 5.3 1.3 8.1 1.3 6 0 11.5-2 15.9-5.5 3.2-2.5 5.8-5.8 7.5-9.5 1.5-3.3 2.4-7 2.4-10.9 0-8.2-3.9-15.6-9.9-20.3-0.8-0.6-1.6-1.2-2.4-1.7-3.9-2.4-8.5-3.8-13.5-3.8-2.2 0-4.3 0.3-6.3 0.8 2.8 1 5.4 2.4 7.7 4.2z" fill="#fbba58"/>
    <path d="m128.8 342.8c-5.8 12.8-9.4 28-9.4 38.6 0 3.5 0.4 6.8 1 10 3.8 17.5 17.4 30.5 33.6 30.5 6.9 0 13.2-2.3 18.6-6.3-0.9 0.1 5.8 0.1-2.7 0.1s-25.8-13-29.6-30.5c-0.7-3.2-1-3.5-1-10s-1.2-22.6 3.6-34.5c-1.7-0.8-3.3-1.8-4.7-2.9-2.9 1.8-6.1 3.5-9.4 5z" fill="#e5384f"/>
    <path d="m79.7 284c-17.3 3.9-30 17.4-30 33.5 0 1.2 0.1 2.4 0.2 3.6 13.9-27.8 54.9-20.7 77.2-14.6 1 0.5 2.1 1 3.1 1.4 1.7-4.3 4.5-8 8.1-10.8-2.9-1.8-6.1-3.5-9.4-5-12.8-5.8-27.9-9.4-38.6-9.4-3.8 0.1-7.3 0.5-10.6 1.3z" fill="#e5384f"/>
   </g>
   <g stroke-width="9.8089">
    <path d="m85.1 439c-4.1 0-7.5 3.4-7.5 7.5s3.4 7.5 7.5 7.5h138c4.1 0 7.5-3.4 7.5-7.5s-3.4-7.5-7.5-7.5z"/>
    <path d="m289.3 441.4c0 7 5.7 12.6 12.6 12.6h148c6.9 0 12.6-5.7 12.6-12.6v-141.9c0-7-5.7-12.6-12.6-12.6h-148c-6.9 0-12.6 5.7-12.6 12.6zm158.2-53.1h-37.7v-35.7h37.7zm-90.4-35.7h37.8v35.7h-37.8zm0 50.7h37.8v35.7h-37.8zm37.7-65.7h-37.8v-35.7h37.8zm-52.7 50.7h-37.7v-35.7h37.7zm-37.8 15h37.7v35.7h-37.7zm105.5 35.7v-35.7h37.7v35.7zm37.7-101.4h-37.7v-35.7h37.7zm-105.4-35.8v35.7h-37.7v-35.7z"/>
    <path d="m296.8 221.8h65.8c4.1 0 7.5-3.4 7.5-7.5s-3.4-7.5-7.5-7.5h-65.8c-4.1 0-7.5 3.4-7.5 7.5s3.4 7.5 7.5 7.5z"/>
    <path d="m296.8 257.9h131.7c4.1 0 7.5-3.4 7.5-7.5s-3.4-7.5-7.5-7.5h-131.7c-4.1 0-7.5 3.4-7.5 7.5s3.4 7.5 7.5 7.5z"/>
    <path d="m266 317.5c0-17.1-11.6-31.8-28.3-38.4 2.7-13.2-0.8-26.1-9.7-35.1-9-9-22-12.5-35.3-9.7-6.5-16.9-21.4-28.7-38.6-28.7s-32 11.8-38.6 28.7c-13.2-2.8-26.2 0.7-35.3 9.7-9 9-12.4 21.9-9.7 35.1-16.7 6.6-28.3 21.3-28.3 38.4s11.6 31.8 28.3 38.4c-2.7 13.2 0.8 26.1 9.7 35.1 7 7 16.4 10.7 26.4 10.7 2.9 0 5.9-0.3 8.9-1 6.5 16.9 21.4 28.7 38.6 28.7s32.1-11.8 38.6-28.7c3 0.6 6 1 8.9 1 10 0 19.4-3.7 26.4-10.7 9-9 12.4-21.9 9.8-35.1 16.5-6.6 28.2-21.3 28.2-38.4zm-48.7-63c5.2 5.2 7.3 12.9 5.8 21-1.7-0.2-3.4-0.2-5.1-0.2-7.7 0-16.9 1.6-26 4.3 2.7-9.2 4.2-18.4 4.2-26 0-1.6-0.1-3.1-0.2-4.7 8.2-1.6 16 0.4 21.3 5.6zm-63.2 81.3c-10.1 0-18.3-8.2-18.3-18.3 0-5.7 2.7-10.9 6.8-14.2 3.1-2.5 7.1-4.1 11.5-4.1 10.1 0 18.3 8.2 18.3 18.3s-8.2 18.3-18.3 18.3zm0-115.2c15 0 27.2 14.8 27.2 33 0 9.1-3 22.1-7.6 33.1-1.2 0.6-2.3 1.1-3.4 1.7-2.7-1.5-5.6-2.6-8.7-3.3v-19.8c0-4.1-3.4-7.5-7.5-7.5s-7.5 3.4-7.5 7.5v19.7c-3.1 0.7-6 1.8-8.6 3.3-1.1-0.6-2.2-1.2-3.4-1.7-4.6-11-7.6-24-7.6-33.1-0.1-18.1 12.1-32.9 27.1-32.9zm-63.3 33.9c5.3-5.3 13.1-7.3 21.3-5.7-0.1 1.5-0.2 3.1-0.2 4.7 0 7.6 1.5 16.9 4.2 26-9.1-2.7-18.3-4.3-26-4.3-1.7 0-3.4 0.1-5.1 0.2-1.4-7.9 0.6-15.6 5.8-20.9zm-33.6 63c0-15 14.8-27.1 33-27.1 10.3 0 24.5 3.6 36.1 8.9-2.1 3.2-3.7 6.8-4.6 10.7h-19.8c-4.1 0-7.5 3.4-7.5 7.5s3.4 7.5 7.5 7.5h19.8c0.9 3.9 2.5 7.5 4.6 10.7-11.6 5.3-25.8 8.9-36.1 8.9-18.2 0-33-12.1-33-27.1zm33.6 62.9c-5.2-5.2-7.3-12.9-5.8-21 1.7 0.2 3.4 0.2 5.1 0.2 7.7 0 16.9-1.6 26-4.3-2.7 9.2-4.2 18.4-4.2 26 0 1.6 0.1 3.1 0.2 4.7-8.2 1.7-16-0.3-21.3-5.6zm63.3 34c-15 0-27.1-14.8-27.1-33 0-9.1 3-22.1 7.6-33.1 1.2-0.6 2.3-1.1 3.4-1.7 2.7 1.5 5.6 2.6 8.6 3.3v19.8c0 4.1 3.4 7.5 7.5 7.5s7.5-3.4 7.5-7.5v-19.8c3.1-0.7 6-1.8 8.7-3.3 1.1 0.6 2.2 1.2 3.4 1.7 4.7 11.2 7.6 23.9 7.6 33.1 0 2.8-0.3 5.5-0.8 8.1-0.1 0.2-0.1 0.4-0.1 0.6-3.3 14-13.8 24.3-26.3 24.3zm63.2-34c-5.3 5.3-13.1 7.3-21.3 5.7 0.1-1.5 0.2-3.1 0.2-4.7 0-7.6-1.5-16.8-4.2-26 9.1 2.7 18.3 4.3 26 4.3 1.7 0 3.4-0.1 5.1-0.2 1.5 8-0.5 15.7-5.8 20.9zm0.7-35.8c-10.3 0-24.5-3.6-36.1-8.9 2.1-3.2 3.7-6.8 4.6-10.7h19.8c4.1 0 7.5-3.4 7.5-7.5s-3.4-7.5-7.5-7.5h-19.8c-0.9-3.9-2.5-7.5-4.6-10.7 11.6-5.3 25.8-8.9 36.1-8.9 18.2 0 33 12.2 33 27.1 0 15-14.8 27.1-33 27.1z"/>
    <path d="m494.6 50.1h-33.7v-20c0-16.6-13.5-30.1-30.1-30.1s-30.1 13.5-30.1 30.1v20h-56.3v-20c0-16.6-13.5-30.1-30.1-30.1s-30.1 13.5-30.1 30.1v20h-56.3v-20c0-16.6-13.5-30.1-30.1-30.1s-30.1 13.5-30.1 30.1v20h-56.3v-20c-0.1-16.6-13.6-30.1-30.2-30.1s-30.1 13.5-30.1 30.1v20h-33.8c-9.5 0-17.3 7.8-17.3 17.3v94.3c0 6.9 4 12.8 9.8 15.6v299.3c0 19.5 15.9 35.3 35.3 35.3h193.1c4.1 0 7.5-3.4 7.5-7.5s-3.4-7.5-7.5-7.5h-193c-11.2 0-20.3-9.1-20.3-20.3v-297.5h212.5c4.1 0 7.5-3.4 7.5-7.5s-3.4-7.5-7.5-7.5h-220c-1.3 0-2.3-1.1-2.3-2.3v-19.1h482v19.1c0 1.3-1.1 2.3-2.4 2.3h-220.3c-4.1 0-7.5 3.4-7.5 7.5s3.4 7.5 7.5 7.5h212.7v297.6c0 11.2-9.1 20.3-20.3 20.3h-194.8c-4.1 0-7.5 3.4-7.5 7.5s3.4 7.5 7.5 7.5h194.8c19.5 0 35.3-15.9 35.3-35.3v-299.4c5.8-2.8 9.9-8.7 9.9-15.6v-94.3c0-9.5-7.8-17.3-17.4-17.3zm-78.9-20c0-8.3 6.8-15.1 15.1-15.1s15.1 6.8 15.1 15.1v48.2c0 8.3-6.8 15.1-15.1 15.1s-15.1-6.8-15.1-15.1zm-116.5 0c0-8.3 6.8-15.1 15.1-15.1s15.1 6.8 15.1 15.1v48.2c0 8.3-6.8 15.1-15.1 15.1s-15.1-6.8-15.1-15.1zm-116.6 0c0-8.3 6.8-15.1 15.1-15.1s15.1 6.8 15.1 15.1v48.2c0 8.3-6.8 15.1-15.1 15.1s-15.1-6.8-15.1-15.1zm-116.5 0c0-8.3 6.8-15.1 15.1-15.1s15.1 6.8 15.1 15.1v48.2c0 8.3-6.8 15.1-15.1 15.1s-15.1-6.8-15.1-15.1zm-51.1 97.6v-60.3c0-1.3 1.1-2.3 2.3-2.3h33.7v13.2c0 16.6 13.5 30.1 30.1 30.1s30.1-13.5 30.1-30.1v-13.2h56.3v13.2c0 16.6 13.5 30.1 30.1 30.1s30.1-13.5 30.1-30.1v-13.2h56.3v13.2c0 16.6 13.5 30.1 30.1 30.1s30.1-13.5 30.1-30.1v-13.2h56.3v13.2c0 16.6 13.5 30.1 30.1 30.1s30.1-13.5 30.1-30.1v-13.2h33.7c1.3 0 2.4 1 2.4 2.3v60.2z"/>
   </g>
  </g>
  <g transform="matrix(.026974 0 0 .026974 79.203 59.485)">
   <g stroke-width="9.8089">
    <path d="m7.5 236.17c0-11.055 11.564-18.331 21.516-13.517 21.755 10.523 28.665 35.383 61.315 35.383 41.416 0 41.416-40 82.832-40 41.415 0 41.415 40 82.831 40s41.416-40 82.833-40c41.418 0 41.418 40 82.837 40 26.995 0 36.395-16.991 51.136-28.826 3.09-2.481 5.415-1.735 9.186-3.559 9.952-4.813 21.515 2.463 21.515 13.517l1 85.435-41.865 67.963-391.7 0.357-63.436-68.319z" fill="#90d8f9" stroke-width="93.221"/>
    <g stroke-width="9.8089">
     <path d="m482.98 222.65c-3.771 1.824-7.09 4.084-10.181 6.565 1.073 2.049 1.696 4.398 1.696 6.953v168.4l30-79.965v-88.435c0-11.055-11.563-18.331-21.515-13.518z" fill="#75cef9" stroke-width="93.221"/>
    </g>
    <path d="m489.5 346.27c-13.401 0-7.466-19.573-15.001-16.74-15.754 5.922-24.819 15.074-52.836 15.074-41.418 0-41.418-20-82.837-20-41.417 0-41.417 20-82.833 20-41.415 0-41.415-20-82.831-20s-41.416 20-82.832 20-41.416-20-82.831-20v79.965l104.8 66.946 368.28-16.98z" fill="#75cef9" stroke-width="93.221"/>
    <g stroke-width="9.8089">
     <path d="m474.5 329.53v79.965l30-4.928v-79.965c-13.402 0-22.465 2.095-30 4.928z" fill="#6bbef6" stroke-width="93.221"/>
    </g>
    <g stroke-width="93.221">
     <path d="m443.59 47.833c0 22.275-8.058 39.333-30.333 39.333-3.452 0-6.803 0.566-10.001-0.249-17.438-4.449-30.333-20.26-30.333-39.084s12.895-34.635 30.333-39.084c3.198-0.816 6.548-0.249 10.001-0.249 22.275 0 30.333 17.058 30.333 39.333z" fill="#ffe282"/>
     <path d="m413.25 7.5c-3.452 0-6.802 0.436-10 1.251 17.438 4.449 30.333 20.259 30.333 39.082 0 18.824-12.895 34.633-30.333 39.082 3.198 0.816 6.548 1.251 10 1.251 22.275 0 40.333-18.058 40.333-40.333s-18.058-40.333-40.333-40.333z" fill="#fdda78"/>
     <path d="m498.23 416.34c-13.401 0-16.193-9.679-23.728-6.846-15.754 5.922-24.819 15.074-52.836 15.074-41.418 0-41.418-20-82.837-20-41.417 0-41.417 20-82.833 20-41.415 0-41.415-20-82.831-20s-41.416 20-82.832 20-41.416-20-82.831-20v84.93c0 8.284 6.716 15 15 15h447c8.284 0 15-6.716 15-15z" fill="#90d8f9"/>
    </g>
    <g stroke-width="9.8089">
     <path d="m474.5 409.5v80.003c0 8.284-6.716 15-15 15h30c8.284 0 15-6.716 15-15v-84.931c-13.402 0-22.465 2.095-30 4.928z" fill="#75cef9" stroke-width="93.221"/>
    </g>
    <path d="m58.413 123.9c12.583 0 23.948 7.46 28.953 19.003 1.676 3.869 5.483 6.369 9.699 6.37h2e-3c4.216 0 8.023-2.499 9.701-6.368 5.006-11.545 16.371-19.005 28.954-19.005 4.143 0 7.5-3.358 7.5-7.5s-3.357-7.5-7.5-7.5c-15.7 0-30.113 7.871-38.655 20.602-8.541-12.731-22.954-20.602-38.654-20.602-4.143 0-7.5 3.358-7.5 7.5s3.358 7.5 7.5 7.5z"/>
    <path d="m127.47 80.653c12.583 0 23.948 7.46 28.953 19.003 1.676 3.869 5.483 6.369 9.699 6.37h2e-3c4.216 0 8.023-2.499 9.701-6.368 5.005-11.545 16.37-19.005 28.954-19.005 4.143 0 7.5-3.358 7.5-7.5s-3.357-7.5-7.5-7.5c-15.701 0-30.114 7.871-38.655 20.602-8.541-12.73-22.956-20.602-38.654-20.602-4.143 0-7.5 3.358-7.5 7.5s3.357 7.5 7.5 7.5z"/>
    <path d="m204.78 148.57c-8.541-12.731-22.955-20.602-38.655-20.602-4.143 0-7.5 3.358-7.5 7.5s3.357 7.5 7.5 7.5c12.583 0 23.948 7.46 28.954 19.006 1.678 3.868 5.485 6.366 9.701 6.366h2e-3c4.216-1e-3 8.023-2.501 9.698-6.367 5.006-11.545 16.371-19.005 28.954-19.005 4.143 0 7.5-3.358 7.5-7.5s-3.357-7.5-7.5-7.5c-15.699 0-30.113 7.871-38.654 20.602z"/>
    <path d="m413.25 80.667c-13.031 0-24.838-7.711-30.079-19.645-1.666-3.792-6.089-5.518-9.884-3.851-3.792 1.665-5.516 6.09-3.851 9.883 7.635 17.381 24.833 28.612 43.814 28.612 26.375 0 47.833-21.458 47.833-47.833s-21.458-47.833-47.833-47.833c-13.368 0-26.221 5.653-35.261 15.511-3.521 3.84-6.374 8.192-8.479 12.937-1.68 3.786 0.028 8.217 3.815 9.896 3.783 1.681 8.216-0.027 9.896-3.814 1.443-3.253 3.402-6.241 5.822-8.88 6.208-6.769 15.03-10.65 24.207-10.65 18.104 0 32.833 14.729 32.833 32.834 0 18.104-14.729 32.833-32.833 32.833z"/>
    <path d="m0 489.5c0 12.407 10.094 22.5 22.5 22.5h467c12.406 0 22.5-10.093 22.5-22.5v-253.33c0-7.797-3.945-14.927-10.554-19.071-6.599-4.139-14.722-4.585-21.727-1.198-9.04 4.372-15.551 10.66-21.848 16.741-9.942 9.603-18.529 17.895-36.208 17.895s-26.266-8.292-36.208-17.895c-10.729-10.362-22.889-22.105-46.629-22.105-23.738 0-35.898 11.744-46.626 22.105-9.942 9.602-18.529 17.895-36.207 17.895s-26.264-8.293-36.205-17.895c-8.174-7.895-17.439-16.843-32.156-20.446-4.019-0.987-8.082 1.478-9.068 5.501-0.984 4.023 1.479 8.083 5.502 9.068 10.779 2.639 17.51 9.139 25.302 16.666 10.729 10.362 22.888 22.106 46.626 22.106 23.739 0 35.898-11.744 46.627-22.105 9.942-9.602 18.528-17.895 36.206-17.895 17.68 0 26.267 8.293 36.209 17.895 10.729 10.361 22.889 22.105 46.628 22.105s35.899-11.744 46.628-22.105c5.698-5.503 11.081-10.701 17.959-14.027 3.357-1.626 6.172-0.26 7.227 0.401 1.06 0.664 3.523 2.615 3.523 6.364v81.165c-17.689 1.109-27.978 6.073-37.179 10.516-9.855 4.759-19.165 9.254-38.158 9.254s-28.302-4.495-38.156-9.254c-10.432-5.037-22.255-10.746-44.681-10.746-22.424 0-34.246 5.709-44.678 10.746-9.854 4.759-19.163 9.254-38.155 9.254-18.991 0-28.299-4.495-38.153-9.254-10.431-5.037-22.253-10.746-44.677-10.746s-34.247 5.709-44.678 10.746c-9.854 4.759-19.162 9.254-38.154 9.254s-28.3-4.495-38.154-9.254c-9.201-4.443-19.489-9.407-37.177-10.516v-81.164c0-3.749 2.465-5.7 3.524-6.364 1.055-0.661 3.867-2.026 7.226-0.402 6.876 3.326 12.258 8.524 17.955 14.027 10.729 10.361 22.888 22.105 46.626 22.105s35.897-11.744 46.626-22.105c6.027-5.821 11.72-11.32 19.214-14.607 3.793-1.664 5.52-6.087 3.855-9.881-1.663-3.792-6.086-5.52-9.881-3.855-9.955 4.367-16.896 11.07-23.609 17.554-9.941 9.602-18.528 17.895-36.205 17.895-17.678 0-26.264-8.293-36.205-17.895-6.296-6.081-12.807-12.369-21.845-16.741-7.008-3.389-15.129-2.941-21.727 1.198-6.61 4.145-10.555 11.274-10.555 19.071zm497 0c0 4.136-3.364 7.5-7.5 7.5h-467c-4.136 0-7.5-3.364-7.5-7.5v-77.173c14.134 1.018 22.191 4.91 30.653 8.997 10.431 5.037 22.254 10.746 44.678 10.746s34.247-5.709 44.678-10.746c9.854-4.759 19.162-9.254 38.154-9.254 18.991 0 28.299 4.495 38.153 9.254 10.431 5.037 22.253 10.746 44.677 10.746 22.425 0 34.247-5.709 44.679-10.746 6.828-3.297 13.277-6.412 22.709-8.047 4.082-0.707 6.816-4.589 6.109-8.67s-4.589-6.815-8.67-6.109c-11.502 1.993-19.214 5.717-26.672 9.318-9.854 4.759-19.163 9.254-38.155 9.254-18.991 0-28.299-4.495-38.153-9.254-10.431-5.037-22.253-10.746-44.677-10.746s-34.247 5.709-44.678 10.746c-9.854 4.759-19.162 9.254-38.154 9.254s-28.3-4.495-38.154-9.254c-9.201-4.444-19.489-9.407-37.177-10.516v-64.938c14.134 1.018 22.191 4.91 30.653 8.996 10.431 5.037 22.254 10.747 44.678 10.747s34.247-5.709 44.678-10.746c9.854-4.759 19.162-9.254 38.154-9.254 18.991 0 28.299 4.495 38.153 9.254 10.431 5.037 22.253 10.746 44.677 10.746 22.425 0 34.247-5.709 44.679-10.747 9.854-4.758 19.162-9.253 38.154-9.253 18.993 0 28.303 4.495 38.158 9.254 10.431 5.037 22.254 10.746 44.679 10.746 22.426 0 34.249-5.709 44.681-10.746 8.462-4.086 16.521-7.979 30.656-8.997v64.938c-17.689 1.109-27.978 6.073-37.179 10.516-9.855 4.759-19.165 9.254-38.158 9.254s-28.302-4.495-38.157-9.254c-7.709-3.722-15.68-7.571-27.806-9.507-4.103-0.652-7.936 2.134-8.589 6.224s2.134 7.936 6.224 8.588c9.952 1.589 16.605 4.801 23.648 8.203 10.432 5.037 22.255 10.746 44.68 10.746 22.426 0 34.249-5.709 44.681-10.746 8.462-4.086 16.521-7.979 30.656-8.997z"/>
   </g>
  </g>
  <g id="Fill_out_line" transform="matrix(.026974 0 0 .026974 79.242 78.811)" data-name="Fill out line">
   <path d="m28.784 431.98a21.388 21.388 0 0 0 35.041-2.3569l32.174-53.624 0.44787-0.26872a97.54 97.54 0 0 1 82.99-8.2177h1.1e-4a210.9 210.9 0 0 0 137.63 1.464l1.7e-4 -6e-5a196.53 196.53 0 0 0 127.08-133.39l43.848-156.4-50.152 28.528a205.2 205.2 0 0 1-163.25 17.312l-1.6e-4 -5e-5a133.89 133.89 0 0 0-121.95 21.551l-1.1e-4 8e-5a133.89 133.89 0 0 0-52.049 98.696l-3.476 62.567a97.54 97.54 0 0 1-10.147 38.211l-6.9723 13.945-48.598 42.524a21.388 21.388 0 0 0-2.6171 29.457z" fill="#a0cc00"/>
   <path d="m488 79.19-49.43 68.83a182.33 182.33 0 0 1-148.12 75.98 182.35 182.35 0 0 0-156.37 88.54l-38.08 63.46-32.17 53.62a21.391 21.391 0 1 1-32.43-27.1l48.6-42.52 33.15-63.29a195.38 195.38 0 0 1 173.05-104.71 195.39 195.39 0 0 0 129.17-48.79z" fill="#85b200"/>
   <path d="m96 376-32.17 53.62a21.391 21.391 0 1 1-32.43-27.1l48.6-42.52z" fill="#719600"/>
   <path d="m495.92 80.261c9e-3 -0.06665 0.016-0.13281 0.0233-0.19922a8.0139 8.0139 0 0 0 0.0513-1.0439c-7.3e-4 -0.03614-5e-3 -0.07154-7e-3 -0.10743a8.0351 8.0351 0 0 0-0.0947-0.96142c-0.01-0.063-0.0173-0.12647-0.0288-0.18945a8.0286 8.0286 0 0 0-0.24573-0.98536c-0.0194-0.06128-0.0411-0.12085-0.0619-0.18164a7.9605 7.9605 0 0 0-0.94019-1.8835c-0.0381-0.05615-0.0754-0.11206-0.115-0.16724a7.9653 7.9653 0 0 0-0.65881-0.80932c-0.0358-0.03833-0.0748-0.07325-0.11145-0.11084-0.11926-0.12281-0.2367-0.24683-0.36524-0.363-0.114-0.10327-0.23449-0.19507-0.3529-0.29053-0.0314-0.02539-0.0568-0.05566-0.0885-0.08056-0.0158-0.01221-0.0335-0.02076-0.0493-0.033a7.9764 7.9764 0 0 0-0.88354-0.5896c-0.0545-0.0315-0.10938-0.06055-0.16443-0.09034a7.9492 7.9492 0 0 0-1.9935-0.76367c-0.0584-0.01367-0.116-0.02832-0.17456-0.04077a7.9732 7.9732 0 0 0-1.023-0.15015c-0.0518-0.0044-0.10327-0.0049-0.15528-8e-3a7.9657 7.9657 0 0 0-1.0013-4.9e-4c-0.028 0.0017-0.0558 1e-3 -0.0836 0.0032a7.9855 7.9855 0 0 0-1.0398 0.15235c-0.061 0.01269-0.12171 0.02588-0.18262 0.04a7.935 7.935 0 0 0-1.0186 0.30713c-0.0291 0.011-0.057 0.02465-0.0858 0.03588a7.9548 7.9548 0 0 0-0.94958 0.44947c-0.0251 0.01391-0.0523 0.02246-0.0774 0.03662l-50.152 28.527a197.8 197.8 0 0 1-156.89 16.638 141.89 141.89 0 0 0-184.4 127.43l-3.4761 62.567a89.021 89.021 0 0 1-9.315 35.076l-6.2686 12.538-47.415 41.487a29.332 29.332 0 0 0-3.5957 40.476l-4.9e-4 -1e-3a29.4 29.4 0 0 0 22.948 11.03q0.98291 0 1.9722-0.0664a29.4 29.4 0 0 0 23.228-14.201l31.133-51.888a89.205 89.205 0 0 1 74.929-6.8047 219.89 219.89 0 0 0 142.85 1.5195 204.3 204.3 0 0 0 132.26-138.82l43.848-156.4c4e-3 -0.01416 5e-3 -0.02832 9e-3 -0.04224a7.9688 7.9688 0 0 0 0.20988-1.0461zm-205.47 135.74h-3e-3a190.36 190.36 0 0 0-163.23 92.42l-32.807 54.678-4.5961-4.596 30.425-58.083a186.82 186.82 0 0 1 165.96-100.42 203.23 203.23 0 0 0 134.45-50.793l19.647-17.315-8.2295 11.458a174.76 174.76 0 0 1-141.62 72.65zm-132.93-63.078a125.94 125.94 0 0 1 114.66-20.263 213.94 213.94 0 0 0 154.7-10.275l-15.942 14.051c-34.469 30.379-78.758 47.622-124.7 47.566-0.47026-5.8e-4 -0.93888 9e-3 -1.4085 0.0117a42.987 42.987 0 0 1 15.529-13.802 7.9704 7.9704 0 0 0 3.8424-9.5894l-5.5e-4 -2e-3a8.0183 8.0183 0 0 0-11.363-4.5284 59.035 59.035 0 0 0-26.701 28.896 203.2 203.2 0 0 0-50.134 11.438 86.959 86.959 0 0 1 10.795-41.641 8.033 8.033 0 0 0-2.5206-10.594 8.0105 8.0105 0 0 0-11.454 2.8009 102.89 102.89 0 0 0-12.828 49.856v6.2363a202.38 202.38 0 0 0-55.28 38.117 43.293 43.293 0 0 1-2.7991-23.968 8.0533 8.0533 0 0 0-5.3338-9.0339l-2e-3 -6.3e-4a8.0133 8.0133 0 0 0-10.428 6.2711 59.199 59.199 0 0 0 6.8394 39.104 204.42 204.42 0 0 0-26.929 39.425l-0.12341 0.23559 2.6395-47.51a125.78 125.78 0 0 1 48.94-92.799zm-100.56 272.59a13.388 13.388 0 0 1-21.934 1.4756l-4.9e-4 -1e-3a13.362 13.362 0 0 1 1.6387-18.438l42.965-37.595 6.291 6.291zm379.48-192.08a188.32 188.32 0 0 1-121.91 127.96 203.8 203.8 0 0 1-132.41-1.4082 105.16 105.16 0 0 0-66.23-1.5952l25.039-41.732c1.4055-2.3425 2.8834-4.6362 4.3951-6.9055l20.491-5.5886a111.96 111.96 0 0 1 95.121 17.373 8.0132 8.0132 0 0 0 10.878-1.3194l1e-3 -1e-3a7.9911 7.9911 0 0 0-1.4036-11.572 127.96 127.96 0 0 0-108.58-19.974 174.57 174.57 0 0 1 42.701-34.032q6.6396-3.7595 13.577-6.8975l5.442-1.0889a181.31 181.31 0 0 1 125.65 20.232 7.9768 7.9768 0 0 0 10.695-2.7314l1e-3 -2e-3a8.0192 8.0192 0 0 0-2.8694-11.222 197.83 197.83 0 0 0-55.352-21.26 189.83 189.83 0 0 0 40.08-6.7578l16.447 2.3496a176.87 176.87 0 0 0 25.026 1.7861 175.23 175.23 0 0 0 34.497-3.4333 8.0152 8.0152 0 0 0 6.2139-9.7961l-2.9e-4 -1e-3a7.9721 7.9721 0 0 0-9.276-5.9081 159.37 159.37 0 0 1-40.958 2.8422 190.4 190.4 0 0 0 71.35-60.061l22.995-32.019z"/>
  </g>
 </g>
</svg>
